<?xml version="1.0" encoding="UTF-8"?><svg id="a" xmlns="http://www.w3.org/2000/svg" viewBox="0 0 3000 801"><path d="M2097,1c.69.46,1.32,1.06,2.07,1.35,17.88,6.79,26.55,20.91,30.26,38.66,3.6,17.19,2.07,34.51.35,51.76-1.75,17.56-3.77,35.09-5.59,52.64-.45,4.3-.72,8.63-.82,12.96-.33,15.63,4.72,28.35,19.89,35.47-.11.31-.21.62-.32.92-1.3-.16-2.67-.09-3.88-.5-15.81-5.29-25.32-16.64-30.23-32.12-2.88-9.1-3.88-18.51-4.01-28.08-.33-26.19,1.63-52.26,3.58-78.35.82-10.98-.56-21.74-8.23-30.51-1.81-2.07-4.24-3.78-6.7-5.04-3.91-2-6.99-.84-8.19,3.42-1.16,4.1-1.83,8.47-1.85,12.73-.12,30.66.1,61.33-.04,91.99-.06,14.31.64,28.67-1.87,42.89-1.22,6.89-2.92,10.47-8.32,15.33.61-1.76.85-2.72,1.26-3.6,3.03-6.51,3.9-13.4,3.27-20.45-1.77-19.73-3.79-39.44-5.53-59.18-1.79-20.24-3.51-40.48-4.98-60.74-.55-7.61-1.05-15.24.99-22.85,2.13-7.94,6.49-13.72,13.92-17.21.73-.34,1.32-.97,1.97-1.47,4.33,0,8.67,0,13,0Z"/><path d="M1,424c.91-1.35,1.93-2.63,2.71-4.05,4.72-8.57,11.87-13.86,21.5-15.46,5.4-.89,10.9-1.78,16.34-1.67,23.81.5,47.62,1,71.4,2.26,10.59.56,21.09,2.86,31.61,4.53,11.74,1.87,23.51,2.22,35.32.92,1.41-.16,2.78-.65,4.62-.18-1.41.97-2.7,2.22-4.25,2.86-11.81,4.94-23.47,10.21-36.09,12.98-13.63,3-27.29,4.05-41.15,2.1-21.58-3.04-42.92-7.91-64.78-8.66-5.24-.18-10.68.23-15.75,1.48-6.66,1.64-11.21,8.6-11.26,15.44-.05,6.59,3.98,11.78,11.12,14.29,3.45,1.21,7.05,2.07,10.34,3.6,4.65,2.16,6.36,6.01,5.7,11.42-.29-.03-.81.02-.85-.1-2.05-6.16-6.2-8.61-12.77-8.85-9.5-.34-17.34-4.36-22.11-13.14-.37-.69-1.1-1.19-1.66-1.77,0-6,0-12,0-18Z"/><path d="M2250,801c-3.06-1.17-6.27-2.05-9.14-3.58-4.96-2.63-10.15-5.12-14.46-8.63-7.52-6.12-8.13-14.44-2.15-22.05,6.48-8.24,15.04-13.15,25.52-13.91,6.16-.45,11.45-1.67,14.25-8.72,1.85,4.45.22,7.52-2.22,9.52-3,2.46-6.59,4.42-10.23,5.85-6.49,2.54-12.4,5.68-16.51,11.51-3.03,4.3-2.66,6.19,1.98,8.66,6,3.19,12.54,4.38,19.25,4.56,13.25.35,25.8-3.15,37.72-8.3,19.2-8.3,38.34-7.49,57.39-.57,10.87,3.95,21.23,9.27,31.82,13.98,0,.41-.02.83-.03,1.24-4.73.89-9.44,2.36-14.2,2.57-11.45.51-22.93.69-34.39.51-9.88-.16-19.58.82-29.24,2.73-5.7,1.12-11.47,1.96-17.18,3.03-2.09.39-4.13,1.07-6.2,1.62h-32Z"/><path d="M1772,1c3.6,1.21,7.23,2.36,10.8,3.66,1.95.71,3.81,1.65,5.89,3.59-.44.21-.87.54-1.33.6-8.58,1.03-15.56,5.63-22.37,10.39-2.21,1.54-4.07,3.98-5.34,6.4-8.72,16.67-23.03,24.41-41.17,25.61-16.88,1.11-33.68.12-49.68-5.89-7.41-2.79-14.63-6.36-21.37-10.5-3.8-2.34-7.06-6.17-9.5-10-6.77-10.6-16.02-16.61-28.58-17.53-1.12-.08-2.22-.45-3.39-1.22,4.93-2.04,9.94-3.58,15.37-2.88,9.12,1.17,17.21,4.99,22.86,12.08,5.68,7.14,13.04,10.82,21.32,12.93,14.42,3.67,29.03,5.88,43.91,2.59,12.74-2.81,24.51-7.26,32.76-18.25,3.71-4.93,9.03-7.75,14.76-9.83,1.39-.5,2.72-1.16,4.07-1.74,3.67,0,7.33,0,11,0Z"/><path d="M2575,1c2.39.92,4.77,1.84,7.62,2.94-1.05.99-1.84,2.01-2.87,2.65-11.29,7.1-23.57,11.02-36.8,13.05-13.78,2.12-27.2-.06-40.77-1.04-.97-.07-1.93-.2-3.35-.35.22.93.19,1.61.51,2.02,4.54,5.73,9.04,11.5,13.74,17.1,2.51,2.99,2.81,6.31,2.27,9.85-.44,2.92-.71,5.99-1.87,8.63-.65,1.46-2.86,2.72-4.59,3.12-7.08,1.61-15.52-4.56-16.81-12.18-1.25-7.38-2.31-14.79-3.39-22.19-.98-6.72-1-6.95-7.86-7.88-14.17-1.93-28.39-3.52-42.54-5.57-8.18-1.18-16.26-2.96-24.6-5.37,1.06-.49,2.08-1.25,3.19-1.42,5.09-.79,10.21-1.38,15.3-2.13,1.95-.29,3.87-.81,5.81-1.23,45.67,0,91.33,0,137,0Z"/><path d="M451.37,144.36c5.1-2.22,9.41-3.88,13.5-5.97,2.18-1.11,4.19-2.75,5.9-4.52,4.45-4.61,4.1-10-1.2-13.63-3.1-2.12-6.85-3.3-10.31-4.9-4.06-1.88-8.4-3.33-12.13-5.73-8.77-5.64-10.49-15.24-4.75-23.85,4.59-6.88,11.32-10.32,19.28-10.99,11.11-.94,22.27-1.38,33.41-1.92,16.13-.78,32.28-1.23,48.4-2.29,7.63-.5,15.19-2.22,21.97-6.03,2.71-1.52,5.33-3.5,7.38-5.82,6.12-6.9,5-14.29-2.55-19.54-6.94-4.83-15.01-6.43-23.06-7.48-19.97-2.62-40.01-4.67-60.21-4.66-10.7,0-21.33.32-31.4,4.56-1.23.52-2.44,1.07-3.62,1.68-.56.29-1.04.75-2.25,1.64,21.07,14.94,43.61,24.51,69.26,26.24v1.01c-.91.33-1.8.85-2.74.95-14.44,1.54-28.91,2.4-43.31-.01-12.57-2.1-24.53-6.23-35.42-12.94-12.43-7.66-13.53-21.57-2.57-31.43,6.55-5.89,14.4-9.49,22.76-12.04,17.09-5.21,34.54-5.03,51.97-2.82,14.34,1.82,28.63,4.23,42.83,6.94,11.38,2.17,22.09,6.38,31.13,13.92,9.42,7.86,14.82,21.19,9.78,34.14-3.62,9.32-10.05,15.92-18.77,20.51-10.43,5.49-21.85,7.45-33.32,7.54-22.14.16-44.29-.73-66.44-.93-5.78-.05-11.6.53-17.33,1.36-2.1.31-4.29,1.85-5.9,3.4-3.76,3.63-3.57,8.55.69,11.63,3.47,2.51,7.6,4.08,11.27,6.34,3.93,2.43,8.19,4.67,11.38,7.9,6.23,6.32,5.56,14.26-1.08,20.21-5.54,4.96-12.51,6.61-19.51,8.09-.71.15-1.54-.26-3.04-.54Z"/><path d="M1665.35,279.62c-7.88,2.71-15.2,4.86-22.22,7.74-6.39,2.62-11.83,6.8-15.74,12.67-.73,1.1-1.44,2.25-1.95,3.47-1.74,4.21-1.06,5.74,3.23,7,6.7,1.97,13.48,3.69,20.14,5.78,18.09,5.67,36.17,11.39,54.2,17.26,10.76,3.5,21.41,7.32,32.1,11,5.91,2.03,11.32,4.87,15.5,9.66,7.05,8.07,7.68,19.72,1.52,27.07-3.86,4.6-9.16,6.76-14.74,7.8-15.91,2.96-31.97,4.79-48.19,4.02-25.79-1.22-50.91-5.67-74.81-15.88-7.99-3.42-10.05-10.66-3.36-15.36,8.23-5.77,17.59-9.93,26.5-14.72.39-.21,1.13.24,2.57.6-5.2,3.38-9.82,6.18-14.21,9.31-4.27,3.04-8.88,5.79-11.65,10.5,15.15,13.32,108.37,14.65,124.02,1.9-.93-3.86-4.34-4.89-7.42-5.75-8.17-2.28-16.41-4.33-24.68-6.24-28.75-6.63-56.84-15.35-84.16-26.48-2.14-.87-4.2-2.04-6.14-3.31-11.84-7.73-13.83-21.45-4.8-32.35,5.96-7.2,13.59-11.8,22.58-13.89,9.27-2.16,18.73-3.06,28.28-2.48.96.06,1.9.38,3.43.7Z"/><path d="M2852.79,310.86c7.43,9.69,18.28,14.38,27.14,21.91-2.06-.69-4.26-1.13-6.17-2.11-6.95-3.58-13.81-7.3-20.67-11.06-1.29-.71-2.51-1.67-3.53-2.74-4.85-5.09-4.02-11.45,2.35-14.29,6.82-3.04,13.87-5.65,21-7.85,27.94-8.6,56.58-10.39,85.51-7.68,8.37.78,16.88,2.43,24.8,5.18,13.45,4.66,15.09,19.36,8.74,29.36-4.68,7.36-12.02,10.83-19.82,13.5-18.88,6.48-37.73,13.03-56.73,19.14-14.56,4.68-29.32,8.74-44,13.06-.32.09-.66.13-.98.21-8.15,2.27-8.97,4.64-3.8,11.62,7.59,10.25,18.5,14.83,30.48,17.47,1.56.34,3.15.58,5.98,1.09-1.7,1.01-2.29,1.65-2.91,1.68-14.64.81-29.11.26-41.82-8.26-7.24-4.86-12.86-11.18-13.66-20.48-.79-9.21,3.44-16.02,11.31-20.01,7.68-3.9,15.82-6.96,23.92-9.96,22.81-8.45,46.2-14.93,69.92-20.3,6.97-1.58,13.82-3.64,20.72-5.51.96-.26,2.07-.46,2.76-1.08,1.28-1.15,2.31-2.59,3.44-3.9-1.32-1.02-2.51-2.66-3.98-2.95-9.93-2.02-19.87-4.13-29.9-5.51-15.92-2.2-31.98-2.18-47.84.08-13.31,1.9-26.42,5.15-39.61,7.86-.73.15-1.36.77-2.67,1.54Z"/><path d="M1626.08,785.44c-.27-.4-.74-.78-.79-1.21-1.3-10.18-3.35-20.24.16-30.54,5.5-16.13,15.17-29.44,26.32-42,9.28-10.44,18.35-21.1,27.01-32.06,6.06-7.67,9.49-16.73,11.02-26.47,2.96-18.88-8.82-32.99-27.82-34.22-18.97-1.23-32.04,10.93-38.51,25.51-4.02,9.06-4.92,18.58-4.2,28.35.31,4.15,2.48,6.79,6.39,7.98,9.85,3,18.45.23,25.97-6.18,4.04-3.44,7.77-7.32,11.26-11.34,3.33-3.83,6.16-8.1,9.73-12.87-.16,1.68,0,2.8-.39,3.66-4.99,10.87-11.82,20.65-20.63,28.55-8.88,7.96-19.69,11.02-31.57,6.83-5.53-1.95-9.38-5.85-11.03-11.44-7.9-26.63,5.2-64.69,37.45-74.57,28.78-8.81,61.61,7.94,65.11,41.92,2.25,21.87-5.55,40.07-19.02,56.57-9.23,11.31-20.64,20.29-31.37,30-6.05,5.48-11.98,11.08-18.1,16.47-10.2,9-15.11,20.41-15.81,33.82-.05.97-.13,1.94-.2,2.91-.32.1-.64.21-.96.31Z"/><path d="M922.68,53.64c6.96,7.52,13.11,14.4,19.52,21.02,6.47,6.69,14.6,8.96,23.72,8.01,5.18-.54,8.32-2.96,9.26-7.59,3.45-16.95-4.92-43.7-25.35-52.43-10.61-4.53-21.21-4.16-31.33,1.21-8.38,4.45-12.74,11.74-13.48,21.36-1.24,16.27,5.66,29.54,15.41,41.52,8.93,10.97,18.64,21.29,27.87,32.02,9.99,11.6,17.97,24.35,21.94,39.33,2.15,8.12.75,16.2-.08,24.28-.14,1.35-1.14,2.61-2.53,3.84-.18-1.03-.54-2.06-.52-3.08.28-13.57-5.3-24.5-15.09-33.49-8.34-7.65-16.7-15.29-25.23-22.73-12.07-10.53-23.91-21.26-32.49-35.01-8.13-13.05-12.72-27.15-11.46-42.65,1.95-24.08,16.15-41.72,40.39-46.22,25.79-4.78,50.24,9.77,59.87,34.39,4.68,11.98,5.56,24.26,3.96,36.81-1.29,10.09-7.61,16.17-17.65,17.42-10.57,1.32-20.28-1.34-27.36-9.15-6.65-7.33-11.96-15.89-17.75-23.99-.81-1.14-.96-2.76-1.64-4.87Z"/><path d="M2030.3,426.73c-.28,1.91-.64,3.8-.82,5.72-3.54,37.01-4.87,74.09-4.04,111.26.22,9.66.71,19.31.85,28.96.07,4.81,0,9.68-2.94,13.93-2.03,2.93-4.53,5.12-8.54,6.15.35-.82.4-1.34.67-1.54,6.22-4.43,7.57-10.63,6.39-17.69-1.91-11.48-4.26-22.9-5.76-34.44-1.74-13.35-3.41-26.78-3.95-40.21-.89-21.95-.96-43.93-1.09-65.9-.03-5.29.65-10.67,1.7-15.86,2.7-13.39,15.81-18.64,27.24-11.14,10.62,6.97,17.12,17.01,21.31,28.75,5.97,16.74,5.28,34.04,4.43,51.38-.93,19.18-4.48,37.98-7.93,56.8-1.16,6.32-2.01,12.69-3,19.03-.36.02-.71.04-1.07.05-.26-.68-.66-1.34-.76-2.04-2.3-15.96-4.89-31.89-6.74-47.9-1.62-14.04-2.49-28.17-3.55-42.27-.88-11.8-1.63-23.62-6.14-34.74-1.24-3.07-3.23-5.84-4.88-8.75-.46.15-.92.29-1.39.44Z"/><path d="M2143.75,743.63c-.94-4.3-1.85-8.61-2.82-12.91-3.08-13.63-6.34-27.23-9.25-40.89-3.77-17.72-5.3-35.7-2.65-53.64,1.94-13.13,7.05-24.99,19.35-32.3,12.75-7.57,27.53-3.75,34.77,9.18,3.8,6.79,5.52,14.16,6.55,21.84,2.68,20.02,4.33,40.09,3.42,60.29-.87,19.15-3.01,38.16-7.09,56.93-1.41,6.5-2.63,13.06-3.6,19.64-.77,5.2.38,9.95,4.85,13.39,1.03.79,1.92,1.76,2.64,3.04-4.64-.42-8.28-2.64-10.94-6.53-3.99-5.83-5.01-12.66-6.07-19.38-4.55-28.93-4.52-58.08-3.82-87.25.29-12.16.83-24.32.65-36.47-.08-5.23-1.1-10.63-2.74-15.6-1.94-5.88-5.5-6.8-10.95-3.85-7.94,4.3-10.77,12.01-12.68,20.03-2.9,12.23-3.42,24.69-2.54,37.22,1.13,16.11,2.03,32.25,3.36,48.34.52,6.29,1.7,12.51-.46,18.92Z"/><path d="M2869.09,438.36c-3.12,1.39-6.28,2.7-9.36,4.18-18.38,8.78-28.27,23.93-32.79,43.3-3.24,13.92-1.94,27.48,2.75,40.74,6.16,17.41,18.73,28.38,36.02,33.99,16.21,5.26,32.85,6.43,49.82,4.78,9.68-.94,19.24-2.27,28.02-6.51,5.19-2.51,9.92-5.96,14.81-9.07,1.35-.86,2.52-2.03,4.7-3.82-.5,1.98-.52,2.93-.96,3.63-13.25,21.32-31.71,35.63-56.82,39.28-37.51,5.46-73.05-14.88-87.84-46.54-7.17-15.36-8.39-31.66-5.52-48.34,2.91-16.89,10.58-31.1,23.78-42.09,8.02-6.67,17.02-11.57,27.48-13.35,1.86-.32,3.68-.95,5.51-1.44.13.42.26.84.39,1.26Z"/><path d="M1923.4,770.63c.66,1.03,1.38,2.04,1.98,3.11,2.67,4.75,6.85,6.85,12.12,5.54,11.01-2.74,19.43-9.28,25.58-18.65,3.29-5,2.48-9.84-1.71-13.99-6.34-6.27-14.27-7.57-22.65-6.74-9.25.91-17.8,4.34-25.73,8.97-10.48,6.12-20.67,12.73-31,19.12-10.82,6.7-22.13,12.28-34.8,14.43-10.75,1.83-21.25,1.52-30.65-5.03-1.24-.87-2.25-2.07-3.36-3.12.21-.26.42-.53.63-.79,2.33,1.04,4.61,2.23,7.01,3.09,10.16,3.63,19.71.89,29-3.2,10.46-4.61,19.27-11.77,28.13-18.83,10.79-8.61,21.26-17.62,33.38-24.47,10.77-6.09,22.21-10.14,34.49-10.68,12.67-.55,24.43,2.76,33.85,11.98,14.05,13.76,12.52,35.35-3.48,47.56-10.95,8.36-23.43,11.65-37.08,10.27-8.91-.9-16.27-7.84-16.99-15.72-.07-.79.1-1.59.16-2.39.38-.15.75-.31,1.13-.46Z"/><path d="M2483.92,390.73c-1.99,0-4.16.52-5.93-.09-7.15-2.48-10.88-11.43-8.03-18.54,2.49-6.23,7.55-10.02,12.9-13.49,9.2-5.98,19.63-8.91,30-12.01,5.89-1.76,11.71-3.78,17.42-6.05,2.58-1.02,5.17-2.56,7.08-4.53,1.57-1.61,3.33-4.53,2.83-6.25-.51-1.77-3.48-3.37-5.66-3.97-2.47-.68-5.33-.54-7.91-.1-12.79,2.2-25.52,4.77-38.31,6.94-21.01,3.56-42.04,7.19-63.48,6.32-4.65-.19-9.25-1.39-13.87-2.12.03-.42.06-.84.09-1.26.73-.16,1.47-.5,2.2-.46,17.16.73,33.2-4.53,49.33-9.22,19-5.53,37.92-11.34,56.97-16.69,8.73-2.45,17.62-3.46,26.44.32,16.3,6.97,20.79,24.96,9.78,39.95-6.92,9.42-16.54,15.05-27.63,17.67-8.7,2.06-17.72,2.78-26.61,4.06-5.6.8-11.21,1.5-16.8,2.29-.81.11-1.6.44-2.38.75-4.25,1.66-6.42,4.19-6.37,7.38.06,3.32,2.44,5.88,6.88,7.47.41.15.73.52,1.1.79-.01.28-.02.57-.04.85Z"/><path d="M510.39,374.09c1.38-5.46-.99-10.45-2.4-15.46-5.67-20.21-10.51-40.6-12.75-61.48-1.44-13.47-.44-26.9,2.46-40.2,2.28-10.46,4.96-20.73,10.89-29.81,3.78-5.79,8.26-10.88,15.03-13.34.41-.15.9-.06,1.99-.12-1.06,1.25-1.67,2.2-2.48,2.9-5.71,4.96-8.01,11.53-7.78,18.74.33,10.46,1.41,20.9,2.04,31.36.87,14.45,1.71,28.9,2.41,43.36.82,16.99,3.04,33.79,6.59,50.42,1.41,6.62,1.53,13.22-1.03,19.65-1.84,4.61-4.73,8.39-8.97,11.05-5.6,3.51-8.25,3.31-12.55-1.69-3.36-3.9-6.34-8.13-9.33-12.34-5.88-8.28-11.5-16.74-17.54-24.9-2.03-2.74-4.72-5.21-7.58-7.08-5.77-3.78-11.28-.97-12.31,5.91-.19,1.24-.44,2.47-1.02,3.65-1.8-4.39-1.75-8.53,1.72-12.16,3.44-3.61,7.77-5.02,12.27-3,4.48,2.01,9.12,4.37,12.64,7.68,8.36,7.86,16.13,16.35,24.08,24.65.9.94,1.39,2.25,2.08,3.39.52-.39,1.03-.79,1.55-1.18Z"/><path d="M2937.68,182.27c4.1-8.04,8.47-15.36,11.66-23.16,6.73-16.43,10.41-33.63,11.75-51.37.67-8.87.54-17.62-1.84-26.22-4.74-17.07-16.13-28.01-32.3-34.17-14.87-5.67-30.03-4.92-45.18-.99-12.7,3.29-24.36,8.82-35.07,16.38-.81.57-1.69,1.06-2.57,1.53-.26.14-.62.1-1.59.23.78-1.19,1.19-2.18,1.91-2.86,12.89-12.05,26.99-22.27,43.96-27.75,39.53-12.78,78.95,5.48,92.87,45.63,10.14,29.24,2.41,55.13-17.35,77.82-6.98,8.02-15.03,15.1-22.65,22.56-.95.93-2.24,1.51-3.59,2.38Z"/><path d="M2372.1,320.67c-1.23.15-2.48.57-3.67.42-12.92-1.57-24.61,2.61-36.28,7.33-13.55,5.49-27.02,11.32-40.9,15.85-17.28,5.63-35.25,7.28-53.3,4.65-5.46-.79-11.12-2.69-15.87-5.48-10.46-6.16-11.32-18.5-2.18-26.45,10.39-9.03,22-16.1,35.12-20.55,2.82-.96,5.63-2.14,8.16-3.69,4.14-2.53,4.49-5.82,1.42-9.62-3.38-4.19-10.27-5.42-17.09-3.1-1.11.38-2.28.59-3.5.58,8.62-8.05,18.19-6.61,24.26-1.82,6.56,5.17,7.53,13.61,1.82,19.71-2.56,2.74-5.79,5.05-9.08,6.9-9.48,5.33-18.44,11.32-26.29,18.89-.84.81-1.71,1.59-2.49,2.45-.31.34-.44.85-.77,1.53,2.11,2.41,5.07,2.12,7.77,2.38,11.52,1.08,22.47-1.54,33.33-5.01,12.98-4.15,25.87-8.76,39.11-11.87,19.46-4.57,42.97-2.81,60.43,6.91Z"/><path d="M1920.16,538.55c-1.96.61-3.89,1.47-5.9,1.8-19.45,3.18-40.54-1.75-53.17-19.66-17.08-24.23-3.04-58.98,26.06-64.44,15.66-2.94,30.47-.14,44.69,6.3,7.06,3.2,12.18,8.71,15.01,16.01,4.52,11.66-.88,23.69-12.6,28.81-6.9,3.01-14.02,2.7-21.11,1.51-4.4-.74-8.69-2.26-12.93-3.72-3.13-1.08-5.51-3.12-5.82-6.78-.31-3.72,1.34-6.53,4.42-8.33,1.36-.79,3.17-.8,4.9-.43-1.67,1.66-3.66,3.1-4.91,5.03-1.59,2.44-.7,5.16,1.99,5.47,8.72.99,17.58,2.51,26.06-1.24,4.28-1.89,7.77-4.8,7.85-9.99.08-5.32-3.13-8.92-7.66-10.71-11.55-4.59-23.53-6.07-35.66-2.47-7.72,2.29-13.1,10.63-13.57,20.33-.33,6.83,1.27,13.32,4.78,19.11,7.79,12.85,18.74,20.97,34.28,21.73,1.06.05,2.1.44,3.14.68.05.33.09.66.14.99Z"/><path d="M840.26,472.34c3.85-5.83,9.04-10.48,14.98-14.06,16.34-9.86,34.28-13.64,53.15-11.86,10.73,1.01,21.34,3.38,32,5.12,11.21,1.83,22.2.77,33.01-2.52.95-.29,1.9-.67,2.73-1.2,2.96-1.89,3.26-3.6.63-5.9-1.97-1.73-4.24-3.28-6.62-4.36-8.03-3.61-16.23-6.86-24.26-10.47-3.31-1.49-6.66-3.16-9.49-5.39-4.62-3.66-6.47-8.77-5.7-14.67.63-4.88,4.25-7.93,8.39-7.24-6.29,7.85-4.26,14.24,5.66,17.21,6.84,2.05,13.83,3.65,20.65,5.76,5.86,1.81,11.83,3.56,17.31,6.25,8.52,4.18,12.15,11.56,10.79,19.99-.84,5.21-3.48,9.64-7.91,12.2-5.27,3.04-10.87,6.03-16.72,7.45-13.6,3.28-27.47,4.84-41.58,3.72-16.91-1.35-33.74-4.12-50.79-3.01-9.13.59-18.27,1.01-27.39,1.79-2.72.23-5.36,1.39-8.03,2.12-.27-.31-.54-.61-.81-.92Z"/><path d="M1896.4,351.34c2.26-.83,4.45-2,6.79-2.42,7.66-1.35,11.94-6.72,15.8-12.7,1.48-2.3.93-3.89-1.58-5.18-5.26-2.7-10.74-2.38-16.08-.99-12.98,3.38-19.49,12.82-21.8,25.31-.92,4.99-.64,10.31-.21,15.42.44,5.26,3.46,9.07,8.89,10.09,15.76,2.98,30.47,1.19,43.09-9.86,3.28-2.87,6.93-5.32,10.81-7.44-8.04,12.24-15.6,25.04-31.69,27.87-6.53,1.15-13.13,2.56-19.72,2.69-14.26.27-24.86-7.92-27.62-21.87-4.41-22.37,1.03-42.04,18.59-57.38,13.71-11.97,33.81-13.44,47.83-4.03,4.42,2.96,7.73,6.86,9.79,11.72,3.91,9.21.91,20.14-7.52,26.82-8.52,6.75-17.87,9.36-28.45,5.01-2.1-.87-4.43-1.19-6.65-1.77-.08-.43-.17-.86-.25-1.3Z"/><path d="M2262.08,7.15c3.85.55,4.97,3.15,5.17,6.2.34,5.16-2.37,9.08-6.31,11.81-4.63,3.21-9.67,5.84-14.6,8.6-7.72,4.32-15.54,8.55-20.65,16.12-1.64,2.43-2.86,5.27-3.71,8.09-1.19,3.96.09,5.79,4.23,5.93,5.32.17,10.65-.05,15.97-.31,19.23-.94,37.72-5.91,56.35-10.24,15.54-3.61,31.14-7.54,47.2-7.58,7.23-.02,14.48,1.5,21.67,2.69,2.08.34,3.95,1.97,5.8,3.48-12.68-2.82-23.07,2.71-33.36,8.42-10.18,5.65-20.24,11.49-31.42,15.1-15.72,5.08-31.94,6.35-48.29,6.44-10.82.06-21.64-.29-32.45-.75-10.76-.46-17.69-5.01-20.22-13.34-2.23-7.34-.17-14.16,3.67-20.5,4.75-7.85,11.78-13.15,20.12-16.52,7.53-3.05,15.35-5.42,23.03-8.08.16-.05.32-.08.48-.13,8.53-2.94,10.55-7.04,7.32-15.43Z"/><path d="M380.81,13.87c.39,2.9.57,5.84,1.2,8.69,1.9,8.61,3.96,17.18,5.99,25.76,3.67,15.51,5.59,31.27,3.69,47.09-2.91,24.27-6.72,48.43-10.11,72.64-1.37,9.76-9.2,14.11-19.46,10.24-9.5-3.58-14.54-11.38-17.46-20.6-1.7-5.37-2.56-11.01-3.97-16.48-.91-3.53-1.8-7.12-3.26-10.44-3.35-7.63-9.68-10.96-18.11-10.01-.62.07-1.27-.06-2.15-.12,4.98-3.91,8.5-4.22,15.1-1.47,4.93,2.06,8.96,5.38,11.42,10.05,3.41,6.46,6.22,13.23,9.44,19.79,1.61,3.27,3.29,6.58,5.44,9.5,1.59,2.15,4,3.71,6.04,5.53.39-.16.79-.33,1.18-.49.28-2.37.75-4.74.81-7.12.56-21.14,1.18-42.28,1.52-63.42.26-16.55,2.59-32.82,5.71-49.03,1.7-8.82,3-17.71,4.53-26.56.21-1.23.72-2.42,1.09-3.63.44.03.89.05,1.33.08Z"/><path d="M304.92,211.83c-4.46,8.18-3.42,16.31.38,24.04,1.79,3.63,4.51,7.02,7.48,9.79,5.1,4.76,10.92,8.73,16.11,13.41,18.15,16.35,26.9,36.89,24.05,61.14-2.26,19.28-14.86,35.79-36.36,41.07-4.51,1.11-9.12,2.2-13.3,4.15-3.02,1.41-5.83,3.86-7.97,6.47-3.56,4.33-3.03,8.73.77,12.99.86.97,1.71,1.94,3.18,3.62-1.65,0-2.58.26-3.28-.04-7.69-3.23-11.03-11.17-8.12-18.97,3.15-8.47,9.83-13.16,17.67-16.6,3.65-1.6,7.45-2.9,11.02-4.67,11.04-5.46,16.88-14.54,18.41-26.68,1.87-14.87-4.35-26.62-14.19-36.86-5.19-5.39-11.2-10.01-16.2-15.55-4.76-5.27-9.68-10.78-12.8-17.05-7.57-15.2-3.18-29.05,9.59-39.58.72-.59,1.71-.86,2.57-1.29.33.21.67.41,1,.62Z"/><path d="M849.2,635.07c8.46,2.26,16.28,4.31,24.07,6.44,10.27,2.8,20.43,6.06,30.8,8.38,9.68,2.16,19.54,1.28,29.31-.22,10.86-1.67,21.71-3.51,32.78-2.82,6.93.43,13.5,2.18,19.3,6.06,2.17,1.45,4.23,3.33,5.76,5.44,6.21,8.56,4.39,17.46-5.16,22.04-7.6,3.65-15.78,6.1-23.72,9.03-6.07,2.24-12.4,3.92-18.2,6.73-5.36,2.59-10.92,5.85-8.21,14.51-4.51-4.32-5.03-8.78-2.01-13.34,3.74-5.65,8.63-10.13,14.76-13.12,8.07-3.94,16.2-7.75,24.25-11.73,2.03-1.01,3.84-2.46,6.03-3.9-2.48-3.01-5.45-3.23-8.41-3.46-10.86-.84-21.07,2.01-31.31,5.17-6.96,2.15-14.13,3.94-21.34,4.86-12.57,1.61-23.83-3.07-34.88-8.48-13.86-6.79-24.4-17.19-33.24-29.56-.26-.36-.27-.91-.58-2.03Z"/><path d="M1573.81,304.73c-4.8,3.82-9.83,7.39-14.34,11.54-4.9,4.51-10.11,6.18-16.45,3.89-.78-.28-1.6-.5-2.41-.62-5.02-.72-5.75-1.51-5.88-6.46-.2-7.54,6.52-15.1,14.15-16.37,7.71-1.29,15.35-2.94,23.03-4.43,3.39-.66,4.69-2.54,5.13-6.17,2.42-19.82,5.17-39.6,7.94-59.37.47-3.37,1.6-6.65,2.42-9.97.47-.02.93-.04,1.4-.06.81,5.27,2.05,10.51,2.36,15.8,1.15,19.45,1.87,38.93,3,58.39.62,10.63,1.93,21.22,2.62,31.85,1.18,18.35,1.14,36.62-4.67,54.39-.86,2.63-1.25,5.42-1.99,8.76-1.3-.95-2.45-1.39-2.95-2.22-11.62-19.38-15.79-40.37-13.4-62.76.56-5.24.92-10.49,1.38-15.74-.44-.15-.88-.3-1.33-.45Z"/><path d="M2414.38,791.18c5.46-2.96,10.69-6.49,16.42-8.76,15.92-6.32,32.58-7.77,49.55-6.14,5.54.53,11.09.98,17.15.62-3.45-3.74-6.6-7.82-10.43-11.13-5.01-4.33-7.06-9.48-6.42-15.91.08-.83.12-1.66.16-2.49.35-6.58,1.73-7.84,8.4-7.61,6.91.24,13.9,6.08,15.96,13.11,2.1,7.17,4.38,14.3,6.55,21.45,1.07,3.53,3.1,5.41,7.07,5.82,13.56,1.38,27.11,2.93,40.62,4.8,7.99,1.1,15.88,2.91,24.92,4.61-4.71,3.04-8.98,3.37-13.12,3.65-15.28,1.01-30.57,1.75-45.85,2.71-18.92,1.19-37.83,2.85-56.77,3.66-15.65.67-31.28-.01-46.33-5.32-2.31-.81-4.82-1.08-7.23-1.6-.22-.48-.44-.97-.65-1.45Z"/><path d="M2807.98,784.01c-2.22-3.38-.81-5.58.48-7.67,4.1-6.67,10.08-11.45,17.45-13.38,10.09-2.65,20.42-4.91,30.78-5.92,12.07-1.18,24.28-.97,36.43-1.09,17.55-.18,34.82-2.29,51.85-6.59,12.08-3.06,24.26-5.72,36.38-8.62,5.56-1.33,10.34-3.75,12.43-10.89,2.69,4.8,1.95,8.84.76,12.57-1.97,6.16-5.65,11.36-11.07,15.02-19.31,13.05-40.3,20.22-63.95,18.19-21.72-1.87-43.44-3.69-65.18-5.25-10.31-.74-20.63-.19-30.72,2.41-6.42,1.65-12.13,4.44-15.65,11.23Z"/><path d="M799.45,321.28c1.37-.66,2.75-1.31,4.12-1.98,5.95-2.92,12.13-5.45,17.74-8.92,2.94-1.82,5.48-4.94,7.17-8.04,7.37-13.56,18.66-21.39,33.7-23.93,24.58-4.16,48.03-.15,70.4,10.43,7.61,3.6,13.86,8.85,18.39,16.31,6.21,10.23,15.51,15.73,27.72,15.79.83,0,1.66.1,2.48.24.28.05.51.36,1.54,1.13-2.79,1.04-5.06,2.36-7.47,2.69-11.4,1.57-22.06-.95-29.54-9.81-11.13-13.2-26.02-16.31-41.79-18.06-10.84-1.2-21.6-1.01-32.11,2.27-9.82,3.06-18.71,7.45-25.51,15.68-9.99,12.1-23,15.08-39.28,9.67-2.45-.81-4.9-1.61-7.35-2.42-.06-.35-.13-.71-.19-1.06Z"/><path d="M6.13,143.49c12.64-5.19,24.14-2.92,34.64,5.71,1.54,1.26,3.1,2.61,4.27,4.19,5.72,7.78,14.14,10.9,22.95,13.02,13.18,3.17,26.55,4.88,40.07,2.34,13.33-2.51,25.35-7.2,34.44-18.24,8.41-10.21,19.67-13.79,32.74-10.49,4.42,1.12,8.78,2.51,13.16,3.77.05.43.1.87.15,1.3-1,.59-1.92,1.5-3,1.73-7.67,1.68-14.16,5.76-20.35,10.24-2.31,1.67-4.17,4.3-5.54,6.87-6.89,12.9-17.48,20.9-31.73,23.54-25.72,4.76-50.34.85-73.69-10.79-6.93-3.45-12.63-8.38-16.76-15.22-6.18-10.24-15.38-15.86-27.53-16.25-1.28-.04-2.55-.35-3.83-.53,0-.39,0-.78.01-1.18Z"/><path d="M1406.67,789.39c1.44-.65,2.9-1.26,4.31-1.96,6.24-3.09,12.63-5.92,18.6-9.46,2.55-1.52,4.76-4.27,6.16-6.96,7.3-14.09,18.87-22.04,34.31-24.59,24.42-4.04,47.71-.07,69.93,10.47,7.61,3.61,14.01,8.71,18.46,16.22,6.14,10.36,15.44,15.75,27.63,15.88,1.05.01,2.1.36,3.14.56.07.38.14.76.21,1.15-2.38.83-4.71,2.08-7.16,2.41-12.52,1.71-23.34-2.3-31.24-11.9-6.65-8.09-15.36-11.41-24.79-13.66-12.05-2.87-24.35-4.05-36.65-2.22-14.1,2.1-26.82,6.91-36.38,18.56-8.61,10.49-20.17,13.52-33.31,10.3-4.34-1.06-8.6-2.41-12.9-3.62l-.32-1.17Z"/><path d="M2075.39,374.94c.61-4.54,1.55-9.07,1.75-13.63.34-7.8.35-15.62.26-23.43-.11-10.15-.99-20.31-.54-30.43.37-8.27,4.77-14.83,12.31-18.76,7.02-3.66,13.94-2.63,20.39,1.44,8.83,5.58,13.34,14.15,15.83,23.98,3.71,14.67,2.48,29.14-2.39,43.26-3.96,11.47-3.05,22.55,1.01,33.66.22.59.31,1.23.45,1.8-.47.24-.87.59-1.01.5-10.09-6.45-19.89-13.31-21.77-26.37-.7-4.87-.49-9.94-.17-14.89.65-10.13,1.83-20.23,2.42-30.36.2-3.42-.61-6.94-1.23-10.36-.25-1.41-1.04-2.82-1.89-4-2.86-3.96-5.68-3.86-7.99.35-.85,1.56-1.42,3.4-1.63,5.17-1.36,11.23-2.63,22.48-3.84,33.73-.98,9.09-4.06,17.46-8.37,25.43-.39.72-1.06,1.29-1.5,1.99-.35.55-.56,1.2-.83,1.8-.42-.29-.83-.58-1.25-.87Z"/><path d="M1813.18,7.25c6.19,2.69,12.33,5.49,18.57,8.06,14.49,5.96,29.73,8.41,45.26,9.28,19.71,1.11,39.23-1.33,58.81-2.97,12.2-1.02,24.27.34,35.82,4.81,11.34,4.39,17.32,13,19.3,24.69.18,1.04-.18,2.17-.33,3.74-.98-.52-1.68-.67-2.03-1.1-5.11-6.22-12.36-7.55-19.68-8.35-4.45-.49-9-.41-13.48-.18-25.39,1.27-50.6-.97-75.69-4.28-16.75-2.21-32.92-7.19-47.48-16.01-6.33-3.83-11.75-9.2-17.5-13.96-.95-.78-1.49-2.05-2.22-3.09.21-.21.43-.42.64-.64Z"/><path d="M1637.01,501.9c-.45,1.73-.5,3.5-1.32,4.78-3.9,6.05-9.31,10.46-16.69,10.13-7.51-.33-13.18-4.68-16.17-11.63-4.54-10.6-2.28-20.42,5.25-28.7,17.11-18.8,43.81-12.36,55.3,8.25.97,1.74,1.9,3.53,2.58,5.4,2.37,6.48,7.43,9.83,13.48,12.44,9.59,4.15,18.99,8.72,28.5,13.06,3.1,1.42,6.28,2.66,9.6,5.08-4.3,1.42-8.49,3.5-12.9,4.14-13.64,1.99-27.24,1.61-40.34-3.23-10.94-4.04-16.87-12.43-19.56-23.49-.74-3.04-1.54-6.24-3.15-8.85-3.65-5.88-12.16-7.97-18.69-5.09-7.28,3.22-11.13,10.19-9.57,17.31,1.23,5.6,7.58,8.89,13.43,6.46,3.4-1.41,6.4-3.75,10.26-6.08Z"/><path d="M292.35,632.25c1.41,1.32,2.8,2.66,4.22,3.96,2.88,2.63,5.98,4.76,10.15,4.7,4.67-.07,6.76-2.4,5.95-7.01-.22-1.26-.75-2.61-1.53-3.61-5.83-7.45-13.51-12.19-22.47-14.93-3.06-.94-5.77.04-7.3,2.84-2.07,3.77-3.87,7.7-5.55,11.67-.39.91-.02,2.3.34,3.35,4.49,13,11.13,24.9,18.98,36.12,1.69,2.41,3.99,4.38,6.61,7.19-1.61.36-2.73.86-3.85.83-9.61-.2-18.28-2.94-25.71-9.34-9.86-8.49-16.7-18.81-20.34-31.36-1.3-4.49-.82-8.61,1.07-12.61,3.74-7.9,8.72-14.93,15.31-20.77,8.41-7.45,17.68-8.67,27.75-3.84,10.14,4.86,18.38,11.95,24.55,21.37,3.67,5.6,4.67,11.71,2.81,18.16-2.63,9.12-12.37,13.16-20.8,8.72-5.15-2.71-9.07-8.01-10.2-15.45Z"/><path d="M1410.5,581.98c.3-6.42.43-12.86.95-19.27.52-6.47,1.78-12.89,2.04-19.37.18-4.44-.57-8.96-1.3-13.38-1.83-10.99-3.96-21.94-5.85-32.92-3.08-17.84-3.48-35.82-1.88-53.79.83-9.41,2.84-18.71,4.35-28.06.12-.75.52-1.46,1.8-2.28.31,1.66.72,3.31.92,4.99,1.38,11.57,2.45,23.19,4.14,34.71,3.17,21.62,7.84,42.85,16.72,63.02,2.51,5.69,4.3,12.08,4.69,18.25,1.05,16.65-5.84,30.39-17.67,41.8-2.38,2.29-5.04,4.29-7.6,6.38-.18.15-.63-.04-1.29-.1Z"/><path d="M2695.94,785.33c-.67-2.29-1.32-4.59-2.01-6.88-4.96-16.62-5.99-33.69-5.49-50.88.21-7.3,1.68-14.6,1.51-21.87-.23-9.78-1.61-19.53-2.31-29.3-1.05-14.75-2.49-29.56.91-44.19,1.23-5.3,3.78-10.12,7.37-14.2.72.32,1.2.38,1.28.58,3.59,10.17,7.25,20.31,10.69,30.54,4.34,12.92,3.77,26.2,2.78,39.54-1.21,16.33-6.21,31.97-8.47,48.08-1.45,10.36-2,20.85-2.91,31.28-.5,5.7-.9,11.42-1.34,17.13-.67.06-1.34.12-2,.18Z"/><path d="M667.09,469.28c6.17-.94,10.53,2.42,12.55,7.95,2.17,5.93.28,11.57-.97,17.19-2.29,10.29-3.87,20.61-3.54,31.18.18,5.71,1.32,6.74,6.93,6.26.5-.04,1-.17,1.49-.16,8.29.24,13.87-3.21,17.6-10.94,3.62-7.48,11.24-9.93,18.82-11.8.39-.1.9.28,1,.31-1.21,6.25-2.42,12.34-3.55,18.44-.33,1.8-.24,3.67-.63,5.45-3.29,15-12.8,22.47-28.18,21.97-6.88-.22-13.57-1.56-19.65-5.01-8.37-4.75-12.64-13.62-11.52-23.18,1.6-13.56,5.98-26.24,11.88-38.46.14-.3.33-.58.47-.88,3.01-6.32,5.17-12.58-2.73-18.32Z"/><path d="M1405.21,187.05c12.17-19.49,28.36-31.67,49.95-35.58,11.45-2.07,22.87-.26,33.79,4.08,7.15,2.84,11.78,8.5,16.23,14.36,1.11,1.46,2.18,2.94,3.2,4.46,3.46,5.15,7.77,6.38,14.79,2.75,1.68-.87,3.23-1.98,5.36-3.3-2.67,12.4-14.96,17.19-22.36,12.44-3.35-2.15-6.56-4.56-9.57-7.15-12.25-10.55-25.75-12.48-40-4.6-10.18,5.63-20.91,9.34-32.15,11.87-6.17,1.39-12.35.73-19.23.66Z"/><path d="M1127.47,358.63c1.31-9.01,1.34-9.07-7.37-13.09-8.4-3.88-15.83-8.84-18.81-18.15-2.51-7.84-1.51-15.79.21-23.69,2.43-11.16,8.53-19.5,18.14-25.79,7.28-4.76,11.04-12.31,12.62-20.8,1.05-5.6.23-10.89-4.18-15.24,2.76-1.93,4.53-.08,6.07,1.06,4.57,3.4,6.6,8.36,7.07,13.81,1.12,13-2.59,24.69-12.11,33.58-9.07,8.46-9.19,17.88-5.28,28.25.89,2.37,3.01,4.32,4.69,6.36,2.85,3.46,6.3,6.52,8.61,10.29,6.24,10.19,2.28,19.7-9.69,23.41Z"/><path d="M515.56,528.85c-3.13-8.02-3.42-15.76-.12-23.43,3.15-7.33,6.63-14.52,9.86-21.81,1.06-2.39,1.8-4.92,2.71-7.46-3.15-2.15-5.76-.78-8.37,0-4.6,1.37-9.13,3.14-13.82,4.03-7.67,1.45-14.86-.54-21.45-4.56-3.34-2.04-5.91-4.87-6.96-8.79-1.14-4.29.87-7.79,5.41-9.51.18.26.57.57.51.76-1.64,5.83-1.09,7.1,4.58,9.32,6.7,2.63,13.09,1.28,19.19-1.99,3.22-1.73,6.22-3.87,9.44-5.59,15.73-8.42,31.79.8,32.79,18.59.56,9.97-2.02,18.88-8.47,26.38-4.54,5.27-9.64,10.07-14.67,14.9-3.21,3.08-6.73,5.84-10.62,9.17Z"/><path d="M1125.7,631.09c-1.24-4.53-4.23-4.37-7.88-4.15-16.57.99-32.41,5.62-48.48,9.12-13.93,3.03-27.87,2.51-41.42-1.78-6.91-2.19-13.44-5.63-20.07-8.66-1.58-.72-2.87-2.07-4.89-3.57,1.27-.47,1.83-.88,2.35-.83,8.27.79,16.53,2.11,24.82,2.39,15.18.52,29.82-1.98,43.27-9.66,4.03-2.3,8.15-4.61,12.49-6.19,12.89-4.71,25.23-2.87,36.75,4.33,4.68,2.92,7.31,7.34,6.63,13.05-.23,1.97-1.35,3.83-2.07,5.74-.5.07-1,.14-1.5.21Z"/><path d="M1065.15,44.85c-.03,7.54.86,15.03-.77,22.63-2.45,11.37-4.57,22.81-6.59,34.26-.48,2.73-.52,5.73.06,8.43,2.66,12.51,5.47,24.99,8.5,37.41,1.25,5.12,1.09,8.11-2.29,12.97-2.03-3.67-5.69-4.43-9.1-5.99-8.28-3.8-13.11-11.04-16.37-19.31-3.5-8.87-2.69-17.97-1.06-27.06,2.59-14.4,8.21-27.66,14.97-40.54,3-5.73,5.34-11.81,8.04-17.69.87-1.9,1.95-3.71,2.93-5.55.56.15,1.12.31,1.68.46Z"/><path d="M1276.35,503.27c3.44-.87,6.85-1.98,10.34-2.56,8.2-1.36,16.41-2.66,24.66-3.64,14.52-1.72,29.04-3.55,43.61-4.63,14.56-1.08,27.38,1.87,40.26,11.82-5.31,3.65-10.42,7.1-16.46,8.99-11.54,3.61-23.25,3.28-35.07,1.71-10.7-1.42-21.47-2.36-32.18-3.75-9.55-1.24-19.07-2.72-28.58-4.29-2.3-.38-4.46-1.55-6.69-2.36.03-.43.06-.87.1-1.3Z"/><path d="M713.97,278.95c-2.65,10.75,2.71,19.5,6.54,28.62,7.95,18.88-.09,40.59-18,48.52-12.9,5.71-29.8-1.13-35.08-14.21-2.07-5.12-1.19-12.4,2.35-16.91,3.84,5.03,9.42,6.87,15.18,8.39,14.33,3.79,25-5.8,22.9-20.49-.87-6.08-2.04-12.2-1.98-18.3.04-4.13,1.77-8.32,3.17-12.34.52-1.49,2.24-2.56,3.42-3.82.5.18,1.01.35,1.51.53Z"/><path d="M263.22,466.16c2.71-3.89,5.6-7.67,8.11-11.68,7.51-12.02,10.69-24.94,7.95-39.11-.58-3.01-.37-6.18-.56-9.85,1.54.45,2.39.49,2.97.91,7.44,5.32,14.99,10.5,22.2,16.11,11.71,9.1,18.52,20.76,17.52,36.11-.09,1.32.04,2.8-.5,3.93-1.16,2.41-.58,4.05,1.72,5.08-3.33,6.11-5.82,7.09-11.08,3.5-2.78-1.89-5.15-4.71-6.99-7.57-3.77-5.87-7.05-12.06-10.56-18.09-.39-.68-.98-1.24-1.77-2.21-6.02,8.54-11.73,17.01-21.09,21.75-2.26,1.14-4.91,1.51-7.38,2.23-.18-.36-.36-.73-.54-1.09Z"/><path d="M1264.88,244.16c-4.9,9.55-14.66,9.97-22.86,12.97-3.66,1.34-7.8,1.74-11.74,1.82-3.98.08-4.72-1.65-2.55-5.01,1.26-1.95,2.86-3.67,4.28-5.51,3.65-4.73,7.46-9.36,10.88-14.25,2.81-4.01,6.67-5.31,11.19-5.33,1.79,0,3.57.38,5.58.61,1.35-4.02,2.64-7.89,4.04-12.06,9.44,2.22,17.4,6.36,22.53,14.59,3.73,5.98,9.1,10.1,14.59,14.15,4.28,3.16,8.72,6.12,12.99,9.3,1.39,1.03,2.45,2.49,4.42,4.54-10.64,2.53-19.76-.12-28.66-2.77-8.9-2.65-17.28-6.75-24.7-13.06Z"/><path d="M1095.35,527.51c.73-.35,1.47-.66,2.17-1.05,4.68-2.6,5.65-5.29,3.62-10.34-2.44-6.06-6.93-10.52-11.75-14.66-5.54-4.76-7.69-10.73-6.56-17.87,1.1-6.93,4.8-12.31,10.25-16.57,1.57-1.23,2.82-1.23,4.19.54,3.69,4.77,6.7,9.73,8.48,15.65,2.29,7.62,5.76,14.88,8.38,22.41,2.03,5.85,1.75,11.81-.75,17.55-2.56,5.88-7.65,9.05-13.42,8.08-1.74-.29-3.32-1.48-4.98-2.27.12-.49.24-.98.36-1.47Z"/><path d="M2300.2,533.99c-8.94-4.37-14.44-15.69-12.48-24.69,2.4-11.05,4.54-22.16,6.95-33.21.83-3.84,1.65-7.8,5.21-10.91,3.24,4.66,4.21,9.85,5.33,14.92,2.02,9.09,3.89,18.22,5.63,27.36,1.62,8.54-.08,16.22-6.56,22.45-1.42,1.37-2.79,2.78-4.08,4.07Z"/><path d="M2519.26,571.57c-.51,7.53-4.13,13.66-10.4,18.17-.84.6-2.96.4-3.9-.26-8.31-5.89-11.17-14.69-8.72-24.96,2.24-9.38,4.12-18.85,6.28-28.25.52-2.25,1.39-4.46,2.38-6.55.42-.89,1.5-1.74,2.44-1.98.46-.12,1.58,1.09,1.89,1.9,1.14,2.94,2.31,5.91,3.03,8.97,2.38,10.03,4.57,20.11,6.8,30.18.18.8.12,1.66.19,2.79Z"/><path d="M2792.58,40.7c1.19,4.61,1.18,8.16-.31,11.66-2.92,6.85-7.13,12.75-12.98,17.41-1.82,1.45-3.87,2.68-5.46,4.34-7.56,7.92-20.81,7.86-29.11-1.69,3.15-10.84,9.96-16.55,20.77-17.56,6.66-.62,12.33-3.78,17.77-7.35,3-1.97,5.81-4.22,9.33-6.81Z"/><path d="M2632.58,286.51c3.05.19,6.16.06,9.12.65,6.35,1.28,12.62,2.95,18.92,4.42,1.62.38,3.26.86,4.9.88,9.72.08,15.21,5.53,18.32,14.13.39,1.08.91,2.1,1.33,3.06-6.79,8.5-17.34,10.14-25.64,3.75-7.62-5.88-15.04-12.04-22.31-18.34-2.22-1.92-3.68-4.73-5.48-7.13.28-.47.56-.94.83-1.41Z"/><path d="M2605.72,313.08c3.52,0,7.06-.18,10.56.04,8.25.51,16.48,1.35,24.73,1.81,6.67.37,11.74,3.37,15.33,8.8,4.41,6.68,4.97,4.66-1.12,10.74-5.16,5.16-12.81,6.43-19.29,3.04-8.52-4.46-17.22-8.73-24.22-15.56-2.41-2.35-4.45-5.1-6.65-7.66.22-.4.43-.81.65-1.21Z"/><path d="M2762.28,277c-.57,2.65-.76,5.45-1.77,7.92-4.01,9.74-10.87,17.47-18.51,24.43-5.86,5.34-16.94,3.97-22.11-2.21-.46-.56-.87-1.57-.69-2.19,1.48-5.12,3.04-10.26,7.4-13.81,1.26-1.02,2.76-2.06,4.3-2.36,8.31-1.62,15.54-5.65,22.82-9.66,2.33-1.29,4.92-2.11,7.39-3.15.39.35.79.69,1.18,1.04Z"/><path d="M2789.71,309.64c-.62,2.47-.87,5.11-1.92,7.38-4.42,9.55-11.63,16.96-19.41,23.76-5.05,4.41-16.52,4.35-22.85-4.73.92-2.36,1.74-4.88,2.87-7.27,2.22-4.71,5.52-8.68,10.86-9.4,7.79-1.05,14.38-4.92,21.4-7.84,2.53-1.05,5.06-2.07,7.6-3.11.48.4.97.8,1.45,1.2Z"/><path d="M2638.67,20.95c2.08.87,4.24,1.58,6.23,2.64,7.64,4.07,15.27,7.92,24.05,9.2,4.79.7,7.38,4.83,9.5,8.88,3.59,6.86,2.98,9.32-3.88,12.93-5.35,2.81-11.25,3.06-16.01-.9-7.67-6.38-14.91-13.37-18.87-22.85-1.17-2.8-1.59-5.91-2.36-8.88.45-.34.89-.68,1.34-1.02Z"/><path d="M2761.06,19.42c-.19,2.92.08,4.75-.46,6.31-3.85,11.07-10.85,20.21-19.05,28.23-5.57,5.44-13.66,4.23-20.11-.64-.65-.49-1.08-1.64-1.11-2.5-.25-9.31,4.46-15.15,13.4-18.5,6.18-2.31,11.91-5.82,17.87-8.71,2.75-1.34,5.6-2.49,9.45-4.18Z"/><path d="M466.14,701.17c3.06-1.49,6.01-3.37,9.22-4.4,7.89-2.53,15.88-4.78,23.88-6.93,5.63-1.51,10.38,1.02,13.74,5.01,6.3,7.5,6.1,5.36.29,13.04-3.7,4.89-9.18,6.52-15.19,5.12-7.75-1.8-15.47-3.75-23.1-5.97-3.08-.89-5.91-2.65-8.86-4.02,0-.62.01-1.24.02-1.86Z"/><path d="M66.48,349.16c3.25-1.51,6.39-3.36,9.77-4.45,7.26-2.34,14.7-4.13,21.97-6.44,6.69-2.13,11.8.5,15.98,5.17,5.03,5.63,4.82,6.42-.07,12.11-4.77,5.55-10.38,6.94-17.52,4.88-6.53-1.9-13.23-3.21-19.76-5.12-3.57-1.04-6.94-2.77-10.41-4.19.01-.65.03-1.3.04-1.95Z"/><path d="M100.23,661.19c-.31-.03-1-.01-1.62-.2-8.74-2.59-17.52-5.07-26.18-7.93-1.96-.64-3.47-2.61-5.19-3.97,1.73-1.4,3.26-3.42,5.24-4.08,7.07-2.37,14.65-3.48,21.36-6.56,8.56-3.93,16.77.95,20.76,8.38.51.95.96,2.25.72,3.21-1.31,5.22-9.32,11.17-15.09,11.15Z"/><path d="M2613.32,567.73c4.37-1.19,8.12.57,11.83,1.64,4.65,1.34,8.97,2.75,14.01,1.05,4.37-1.48,8.1,1.16,10.99,4.37,5.16,5.73,5.15,8.61.05,14.37-3.6,4.06-8.14,5.97-13.47,4.18-11.51-3.86-18.76-12.2-23.39-23.1-.28-.67-.04-1.56-.04-2.52Z"/><path d="M2607.61,51.85c8.11.69,16.23,1.25,24.32,2.13,4.71.51,7.44,4.11,8.74,8.05,2.63,7.95,3.75,5.92-1.63,11.18-4.44,4.34-10.43,5.8-14.56,2.96-7.52-5.18-15.02-10.54-20.27-18.26-.94-1.39-1.95-3.69-1.4-4.86.53-1.12,3.03-1.32,4.66-1.93.05.24.1.48.14.72Z"/><path d="M2756.25,584.15c.51-1.87.98-4.84,2.15-7.49.67-1.51,2.29-2.9,3.83-3.67,6.04-3.06,12.23-5.85,18.35-8.75.9-.43,1.74-1,2.66-1.35,3.14-1.22,4.52-.48,4.42,2.88-.07,2.61-.39,5.44-1.5,7.74-2.88,5.96-5.84,11.96-9.55,17.41-4.19,6.16-15.62,5.8-19.65-.34-.87-1.32-.44-3.49-.72-6.42Z"/><path d="M1218.52,76.73c2.69.19,5.42.17,8.07.61,6.02,1,12.04,2.07,17.98,3.45,1.95.45,4.42,1.52,5.31,3.07,2.01,3.52,3.22,7.51,4.65,11.35.19.5-.07,1.35-.41,1.83-5.56,7.74-15.49,9.53-20.8,2.98-3.95-4.88-8.53-9.26-12.38-14.21-1.69-2.17-2.27-5.21-3.36-7.86l.93-1.22Z"/><path d="M2740.2,531.2c2.16,2.92,2.69,5.82,2.33,9.11-.77,7.13-3.74,13.41-7.07,19.59-4.12,7.66-14.19,7.07-20.05.93-3.08-3.23-.26-15.48,4-16.91,6.53-2.19,11.51-6.53,16.87-10.43,1.18-.85,2.51-1.48,3.93-2.3Z"/><path d="M1297.15,737.83c2.02-2.43,3.6-4.66,5.5-6.57,3.39-3.4,7.25-6.4,8.44-11.42.11-.46.43-.9.74-1.29,2.43-3.07,14.21-4.55,16.86-2.13,5.67,5.17,6.05,12.53.91,17.53-6.69,6.52-22.89,8.84-32.46,3.87Z"/><path d="M1291.27,76.36c-1.71,3.67-3.03,7.59-5.23,10.93-2.72,4.13-6.06,7.88-9.35,11.59-3.36,3.78-8.83,4.64-13.04,1.75-2.48-1.7-5.88-4.22-6.09-6.61-.4-4.43.42-9.38,4.05-12.85,1.11-1.07,2.85-1.68,4.4-2.05,5.78-1.38,11.59-2.64,17.42-3.78,2.16-.42,4.42-.37,6.63-.54.41.52.81,1.05,1.22,1.57Z"/><path d="M2676.4,541.79c1.74,1.12,3.96,1.87,5.1,3.43,2.03,2.77,3.41,6.01,5.02,9.07.22.41.29.97.24,1.44-.64,6.43-10.54,12.47-16.04,9.26-6.69-3.91-13.34-8.1-18.03-14.6-3.32-4.6-2.75-6.39,2.99-6.9,6.75-.6,13.56-.59,20.35-.84.13-.28.25-.57.38-.85Z"/><path d="M1280.39,737.82c-4.44-.29-8.13-.22-11.69-.9-1.92-.36-4.13-1.6-5.28-3.14-3.31-4.42-1.07-13.16,3.75-15.93,1.43-.82,2.89-1.65,4.41-2.27,3.79-1.55,5.65-.91,8.08,2.35,3.07,4.11,6.41,8.03,9.31,12.26,2.99,4.37,1.9,6.44-3.44,7.18-1.96.27-3.96.35-5.14.45Z"/><path d="M151.88,380.48c-1.07,3.58-1.56,6.6-2.83,9.24-3,6.22-9.9,6.85-14.21,1.53-4.38-5.41-4.78-15.43-.84-21.19,3.58-5.25,10.28-5.59,13.68-.22,2.06,3.25,2.91,7.25,4.2,10.63Z"/><path d="M2337.81,529.48c1.34-3.83,1.98-7.36,3.71-10.23,3.23-5.35,9.34-5.48,13.34-.74,4.43,5.26,4.83,16.06.79,21.6-3.64,5-9.93,5.33-13.35.17-2.11-3.18-3.03-7.16-4.5-10.8Z"/><path d="M2240.15,467.72c1.25-3.72,1.87-7.06,3.42-9.9,2.92-5.36,9.27-5.78,13.36-1.25,4.79,5.31,5.28,16.27,1,21.94-3.67,4.85-10.12,5.08-13.41-.04-2.08-3.23-2.98-7.21-4.36-10.74Z"/><path d="M727.92,741.68c-.96,3.3-1.42,6.32-2.69,8.94-3.24,6.63-10.9,7.16-14.76.95-3.99-6.41-4.19-13.35-.5-19.96,3.48-6.23,10.93-6.28,14.46-.05,1.74,3.08,2.39,6.78,3.5,10.12Z"/><path d="M151.86,617.56c-1.1,3.38-1.63,6.59-3.11,9.27-3.28,5.98-10.35,6.18-14.36.69-3.82-5.24-4.15-15.01-.67-20.42,3.79-5.9,11.1-5.94,14.61.27,1.74,3.08,2.39,6.78,3.53,10.19Z"/><path d="M728.06,61.71c-1.13,3.6-1.72,6.92-3.17,9.81-2.69,5.37-9.2,6.04-13.35,1.69-4.88-5.13-5.39-16.77-.96-22.37,3.84-4.86,10.07-4.9,13.36.39,1.94,3.13,2.78,6.95,4.12,10.48Z"/><path d="M2260.01,529.67c-.93,3.33-1.4,6.5-2.69,9.29-2.66,5.81-9.78,6.6-13.99,1.8-4.44-5.08-4.74-16.67-.56-22.09,3.94-5.11,10.78-4.71,13.97,1.16,1.61,2.97,2.2,6.5,3.27,9.83Z"/><path d="M660.05,61.03c1.01-3.11,1.56-6.46,3.11-9.27,3.08-5.58,9.52-5.9,13.64-1.05,4.33,5.11,4.71,16.14.74,21.61-3.44,4.74-9.34,5.02-13.15.52-2.81-3.32-3.9-7.27-4.34-11.81Z"/><path d="M2359.73,469.61c-.98,2.96-1.54,6.15-3.03,8.82-3.14,5.64-9.5,6.05-13.63,1.2-4.55-5.33-4.98-15.83-.89-21.53,3.51-4.89,9.13-5.24,13.1-.7,2.99,3.42,3.97,7.58,4.45,12.2Z"/><path d="M681.21,742.03c-1.41,3.65-2.18,7.51-4.22,10.52-3.06,4.52-8.78,4.36-12.42.3-4.59-5.13-5.28-15.84-1.38-21.55,3.76-5.51,10.36-5.84,13.94-.2,1.96,3.09,2.66,6.98,4.08,10.93Z"/><path d="M31.73,380.37c1.15-3.82,1.62-7.19,3.12-10.02,2.87-5.4,9.95-5.7,13.76-.92,4.11,5.17,4.5,15.75.77,21.25-3.68,5.43-9.96,5.86-13.54.39-2.07-3.17-2.82-7.21-4.1-10.7Z"/><path d="M54.1,617.68c-1.1,3.79-1.6,6.96-2.93,9.73-2.66,5.55-9.53,6.26-13.68,1.69-4.68-5.15-5.01-16.98-.62-22.42,3.66-4.52,9.91-4.57,13.04.44,2.03,3.24,2.9,7.21,4.18,10.56Z"/></svg>