<?xml version="1.0" encoding="UTF-8"?><svg id="a" xmlns="http://www.w3.org/2000/svg" viewBox="0 0 3001 801"><path d="M2899,801c-1.28-.68-2.5-1.61-3.86-2-11.81-3.43-18.44-13-16.94-25.15,3.68-29.9,7.51-59.79,11.26-89.68,3.17-25.27,6.31-50.55,9.48-75.82.22-1.75.59-3.49.89-5.23.42-.03.85-.07,1.27-.1.33,1.26.75,2.51.97,3.8,9.13,53.84,17.12,107.84,22.23,162.24.47,4.98,1.19,9.52-.54,14.47-2.84,8.1-7.91,13.27-16.27,15.29-1.89.46-3.65,1.44-5.47,2.18h-3ZM2902.5,685.73c-.32,0-.64-.02-.96-.03-.15.54-.36,1.07-.43,1.61-3.63,29.21-7.25,58.42-10.87,87.62-.55,4.43.29,8.43,4.31,10.9,4.54,2.79,9.28,2.31,13.69-.38,4.04-2.46,4.9-6.46,4.43-10.88-2.28-21.16-4.52-42.33-6.88-63.48-.95-8.47-2.18-16.91-3.29-25.37Z"/><path d="M107,1c4.91.81,9.86,1.43,14.72,2.47,42.61,9.15,73.54,43.74,78.12,87.25.3,2.81.85,5.62.87,8.43.03,4.1-2.04,7.77-6.04,7.99-4.05.22-6.15-3.03-6.25-7.39-.42-18.66-5.54-35.8-17.03-50.73-21.39-27.79-49.78-39.73-84.26-34.57-33.23,4.97-55.83,24.79-68.23,55.6-3.52,8.74-4.09,18.75-5.35,28.27-.58,4.4-1.53,7.77-6.14,9.16-4.32-.95-5.23-4.04-5.3-8.13C1.49,61.06,20.15,33.87,51.41,14.21c11.57-7.28,24.63-10.81,38.22-12.24,1.8-.19,3.58-.64,5.37-.97,4,0,8,0,12,0Z"/><path d="M3001,400c-24.9,2.94-47.23-4.07-67.03-18.72-23.86-17.66-37.81-41.55-41.9-71.08-.86-6.22-1.92-12.41-2.99-19.24,3.18-.2,5.97-.7,8.71-.5,47.43,3.5,82.6,31.31,95.98,76.47,2.63,8.87,3.32,18.3,5.07,27.45.31,1.62,1.42,3.09,2.16,4.62v1ZM2985.54,387.66c-2.53-25.71-13.36-47.06-32.95-63.81-14.11-12.06-30.5-18.83-49.14-20.71,2.65,49.03,46.1,84.93,82.09,84.52Z"/><path d="M1,696c1.9-8.42,2.86-17.18,5.85-25.19,14.31-38.36,41.39-61.72,82.52-66.8,30.69-3.79,57.52,5.41,79.89,26.97,1.64,1.58,2.83,3.62,4.2,5.4-5.05,7.55-7.65,8.1-14.02,1.69-30.06-30.25-86.1-29.87-118.01.1-34.13,32.06-37.38,89.67-4.38,122.95,1.16,1.17,2.88,2.45,3.04,3.83.26,2.21.13,5.14-1.15,6.65-1.11,1.31-4.16,1.69-6.13,1.32-1.71-.33-3.28-2.13-4.62-3.55-14.62-15.54-23.01-34.03-26.02-55.07-.25-1.78-.77-3.53-1.17-5.29,0-4.33,0-8.67,0-13Z"/><path d="M740,1c7,2.49,14.38,4.25,20.92,7.64,11.92,6.18,17.26,16.88,16.77,30.1-.51,13.65-7.31,23.62-19.57,29.68-8,3.95-16.35,6.16-25.45,6.11-41.13-.21-82.27-.14-123.4-.14-3.86,0-7.1-.63-7.24-5.46-.11-3.57,1.46-5.73,5.15-6.01,1.49-.11,3-.07,4.5-.08,41.31-.18,82.62-.33,123.94-.54,9.78-.05,18.32-3.34,24.9-10.74,8.31-9.34,6.67-24.06-3.46-31.31-6.97-4.99-14.77-7.47-23.44-6.99-7.48.41-14.97.74-22.46,1.05-1.66.07-3.33,0-4.98-.16-3.28-.32-5.28-2.19-5.34-5.49-.06-3.44,1.71-5.76,5.33-6.01,5.32-.36,10.65-.48,15.97-.81,2.3-.14,4.59-.54,6.88-.83,3.67,0,7.33,0,11,0Z"/><path d="M1807,801c-5.73-3.84-5.02-9.91-5.04-15.5-.04-17.32-1.33-34.82.68-51.92,3.46-29.45,27.65-45.39,55.07-34.46,14.61,5.82,20.62,19.11,22.62,33.66,1.47,10.66.89,21.6,1.15,32.42.1,4.21-1.63,7.49-6.15,7.49-4.7,0-5.82-3.48-5.87-7.63-.11-9.33-.36-18.66-.62-27.99-.33-12.42-7.7-24.14-17.31-27.64-17.87-6.51-37.07,6.95-37.42,26.45-.28,15.66-.2,31.33-.33,47-.06,6.43,1.29,13.26-4.79,18.11h-2Z"/><path d="M1270,1c3.44,2.15,4.52,5.22,4.4,9.24-.24,8.29-.07,16.59-.07,24.32,5.83,1.89,10.88,3.01,15.48,5.11,12.4,5.66,15.96,17.02,17.87,29.23.15.94.11,2.28-.44,2.9-2.08,2.36-4.4,6.27-6.65,6.29-3.28.03-5.86-3.23-5.65-7.47.64-13.17-7.29-19.99-15.35-22.32-3.52-1.02-5.65-.65-6.03,3.73-.25,2.93-1.23,5.87-2.33,8.63-3.22,8.12-9.06,11.87-16.88,11.15-10.86-1-15.73-4.89-17.81-14.22-1.61-7.21,1.94-15.04,9.04-18.19,4.02-1.79,8.53-2.71,12.92-3.38,2.92-.44,3.99-1.39,3.98-4.34-.02-7.49.46-14.99.27-22.47-.1-3.79,1.17-6.33,4.25-8.21h3ZM1262.36,48.82c-.31-.49-.61-.98-.92-1.46-2.97.67-6.2.83-8.83,2.17-1.88.96-3.7,3.36-4.1,5.39-.24,1.25,1.95,3.74,3.58,4.43,2.89,1.22,6.02.79,7.5-2.66,1.09-2.55,1.86-5.24,2.77-7.86Z"/><path d="M1035,801c-7.93-2.4-15.85-4.62-22.06-10.78-7.87-7.8-15.79-24.1-8.21-40.35,6.06-12.98,19.73-22.44,33.59-21.93,3.83.14,6.66,1.98,6.71,5.91.05,3.86-2.56,6.09-6.46,6.11-8.41.05-15.16,3.19-20.1,10.11-5.87,8.21-6.17,19.1-.65,27.18,6.18,9.07,16.44,13.05,26.54,10.3,10.05-2.73,17.01-11.25,17.75-21.69.1-1.49-.25-3.27.44-4.41,1.01-1.69,2.62-3.86,4.25-4.11,1.89-.3,5.1.69,5.89,2.13,1.31,2.39,1.95,5.72,1.48,8.41-3.1,17.53-13.05,28.71-30.96,32.1-.77.14-1.46.66-2.19,1.01h-6Z"/><path d="M2668,1c1.35,2.18,3.41,4.2,3.94,6.57,2.56,11.43,12.1,21.27,23.65,23.59,10.11,2.03,20.25,3.9,30.38,5.86.9.17,1.77.5,2.66,1.67-10.5,1.81-20.99,3.64-31.49,5.43-15.03,2.56-22.29,9.64-25.25,24.68-.7,3.57-2.95,5.77-6.46,5.51-3.73-.28-6.46-5.28-5.59-9.18,2.62-11.73,8.49-21.21,19.52-27.62-2.7-2.29-5.16-4.37-7.61-6.46-7.05-6.03-10.87-13.95-11.78-22.92-.22-2.19,3.26-4.75,5.04-7.14,1,0,2,0,3,0Z"/><path d="M3001,197c-2.75,1.28-5.39,3.01-8.28,3.71-3.05.74-4.73-1.14-5.41-4.33-2.56-12.01-10.43-19.53-22.51-21.57-10.17-1.72-20.38-3.22-30.57-4.82-1.93-.3-3.85-.66-5.78-1.87,10.56-2.05,21.09-4.32,31.7-6.08,7.69-1.28,14.57-4.27,19.68-9.91,3.31-3.65,5.48-8.49,7.48-13.1,1.47-3.37,3.01-6.21,6.99-5.6,2.93.45,5.75,3.96,4.75,8.82-2.34,11.36-9.52,18.72-18.55,24.7,4.06,3.82,8.5,7.1,11.72,11.31,2.86,3.72,4.34,8.49,6.48,12.78.68,1.37,1.52,2.65,2.29,3.98v2Z"/><path d="M1799.66,533.31c-6.57,2.92-13.83,1.56-21.1.32-24.01-4.07-46.28-12.22-65.1-28.2-12.84-10.9-22.98-23.91-31.51-38.51-11.78-20.16-13.86-42.63-17.58-65.72,37.59-1.51,69.81,10.5,96.14,36.84,26.05,26.06,37.42,58.75,39.15,95.26ZM1678.49,412.96c5.24,68.01,59.92,106.93,107.73,108.79-2.38-32.01-15.41-58.9-39.11-80.16-19.24-17.26-42.29-26.46-68.61-28.63Z"/><path d="M1802.35,469.14c28.5-1.53,54.52,5,77.28,21.24,34.15,24.38,51.74,52.03,57.42,108.97-4.15.43-8.42,1.65-12.49,1.19-47.95-5.47-84.66-27.85-107.09-71.65-8.22-16.04-10.54-33.53-13.36-50.93-.42-2.6-1.03-5.18-1.76-8.82ZM1817.03,481.41c2.48,30.41,14.81,55.96,37.11,76.69,19.35,17.98,42.53,27.1,68.67,29.89-2.35-56.66-51.5-105.33-105.78-106.58Z"/><path d="M1699.3,231.06c-2.76,19.43-5.62,38.84-8.24,58.29-4.45,33.01-8.73,66.05-13.1,99.07-.58,4.36-3.84,7.99-6.65,7.18-3.95-1.14-6.01-3.59-5.37-8.18,8.05-57.04,15.99-114.1,23.99-171.15.25-1.8.65-3.63,1.28-5.33,1.5-4.06,4.46-7.1,8.77-7.08,4.56.02,7.86,3.1,8.79,7.58,1.91,9.29,3.7,18.62,4.98,28.01,6.53,47.86,12.89,95.74,19.29,143.61.3,2.21,1.42,4.99.51,6.51-1.24,2.08-3.94,4.18-6.26,4.51-3.4.48-5.18-2.32-5.63-5.71-1.51-11.56-3.04-23.12-4.59-34.67-5.41-40.45-10.83-80.89-16.26-121.33-.06-.44-.34-.85-.52-1.27-.33-.01-.66-.02-.99-.03Z"/><path d="M835.04,173.6c.91-6.85,1.86-13.69,2.73-20.54,5.76-45.26,11.5-90.53,17.26-135.79.65-5.13,3.24-7.76,7.05-7.19,4.01.6,5.67,3.91,4.99,9.17-4.42,34.19-8.64,68.4-13.17,102.57-3.02,22.78-6.44,45.5-9.7,68.24-.19,1.31-.46,2.63-.85,3.9-1.32,4.28-4.16,6.91-8.74,6.8-4.58-.11-7.52-2.83-8.32-7.23-2.22-12.12-4.55-24.23-6.2-36.43-6.05-44.89-11.85-89.8-17.69-134.72-.34-2.62-.83-5.53-.04-7.9.69-2.09,2.95-4.87,4.75-5.05,1.9-.19,4.27,2.13,6.03,3.78.78.73.64,2.51.81,3.82,6.69,51.69,13.36,103.39,20.04,155.08.06.48.25.95.39,1.42l.66.08Z"/><path d="M2502.96,376.82c5.03-45.19,10.05-90.38,15.08-135.57.94-8.44,1.85-16.89,2.87-25.33.58-4.74,3.34-7.28,6.97-6.67,3.58.6,5.58,4.63,5.07,8.78-2.1,17.2-3.9,34.43-5.97,51.63-4.65,38.7-9.35,77.4-14.19,116.08-.6,4.81-.77,10.06-5.91,13.1-5.55,3.27-11.89.75-13.16-6.02-2.48-13.26-4.79-26.56-6.67-39.91-6.22-44.04-12.22-88.11-18.31-132.17-.21-1.48-.37-2.99-.79-4.42-1.26-4.33.89-6.84,4.66-7.79,4.04-1.01,6.41,1.46,7.01,5.23,1.29,8.06,2.32,16.16,3.41,24.24,6.12,45.4,12.22,90.8,18.34,136.2.13.93.42,1.84.63,2.76.32-.05.64-.09.96-.14Z"/><path d="M1500.77,200.92c-.51-1.78-1.27-3.52-1.49-5.33-6.17-49.6-12.29-99.21-18.41-148.81-.74-5.95-1.31-11.93-2.26-17.85-2.34-14.5,9.49-27.32,24.11-25.99,12.89,1.18,21.07,8.47,22.58,21.32.55,4.63-1.01,9.52-1.62,14.28-6.59,51.9-13.17,103.79-19.78,155.69-.28,2.2-.83,4.36-1.25,6.54-.63.05-1.25.1-1.88.14ZM1501.31,114.06c.6-1.78.91-2.37.99-2.99,3.59-28.04,7.21-56.07,10.69-84.12.52-4.22-.85-7.99-4.92-10.08-4.58-2.35-9.39-2.74-13.73.33-3.57,2.52-4.31,6.47-3.79,10.67,1.49,11.88,2.99,23.75,4.47,35.63,2.05,16.45,4.09,32.9,6.28,50.56Z"/><path d="M2032.69,200.73c-.48-1.99-1.15-3.95-1.4-5.96-6.87-55.54-13.7-111.09-20.52-166.64-1.45-11.78,4.69-21.7,15.01-24.46,13.19-3.53,25.14,1.42,29.39,12.91,1.53,4.14,2.05,9.09,1.52,13.49-4.01,33.4-8.4,66.76-12.65,100.14-2.78,21.81-5.51,43.62-8.32,65.43-.22,1.71-.82,3.37-1.24,5.05-.6.02-1.19.03-1.79.05ZM2033.35,113.18c.69-1.78,1.04-2.34,1.12-2.94,3.58-27.91,7.18-55.83,10.65-83.75.53-4.25-.9-8.02-4.93-10.11-4.38-2.27-9.06-2.79-13.31.04-3.78,2.52-4.84,6.45-4.24,10.97,1.53,11.55,2.93,23.13,4.37,34.69,2.07,16.61,4.13,33.22,6.34,51.09Z"/><path d="M2972.25,402.1c1.17,7.32,2.54,14.62,3.49,21.98,6.2,47.9,12.12,95.83,18.62,143.68,1.08,7.96,1.07,15.04-3.24,21.96-4.86,7.82-12.94,10.97-20.87,10.49-9.43-.57-17.6-5.13-20.81-15.83-2.35-7.85-.23-15.18.7-22.64,6.44-51.73,13.09-103.44,19.69-155.16.18-1.42.53-2.83.8-4.24.54-.08,1.08-.16,1.62-.25ZM2972.91,484.36c-.61.92-.91,1.17-.94,1.46-3.93,30.19-7.91,60.38-11.68,90.59-.75,6.02,3.5,10.57,9.57,11.19,8.13.84,13.83-4.77,13.01-12.94-1.65-16.56-3.29-33.12-5.1-49.66-1.46-13.36-3.18-26.7-4.86-40.65Z"/><path d="M638.36,203.4c1.87,11.97,4.02,23.9,5.56,35.92,5.56,43.27,10.74,86.58,16.5,129.82,1.01,7.55,1.31,14.41-2.61,21.18-5.03,8.67-13,10.74-22.17,10.49-8.74-.24-15.47-3.62-18.89-12.12-1.93-4.79-2.72-9.52-2.01-14.93,6.3-47.72,12.24-95.48,18.28-143.23.98-7.76,1.94-15.53,2.96-23.29.18-1.41.62-2.78.94-4.17.48.11.96.22,1.43.33ZM638.93,285.37c-.61,1.12-.86,1.39-.9,1.68-3.92,30.2-7.86,60.39-11.68,90.6-.65,5.14,2.85,10.02,7.38,11.03,9.61,2.15,16.12-3.57,15.13-13.33-1.68-16.56-3.27-33.12-5.08-49.67-1.44-13.19-3.16-26.36-4.84-40.31Z"/><path d="M1245.41,698.49c2.11-32.48,27.75-56.6,58.35-54.47,36.3,2.53,52.75,29.84,53.35,56.02.35,15-6.57,29.03-18.29,39.79-10.97,10.07-24.67,16.55-38.55,15.3-34.32-3.1-53.46-26.04-54.86-56.64ZM1257.85,699.33c.08,23.83,20.22,43.9,43.64,43.48,23.76-.43,43.09-19.95,43.14-43.56.04-23.96-19.36-43.39-43.49-43.55-23.86-.15-43.37,19.51-43.29,43.63Z"/><path d="M1502.89,601.9c30.84.18,54.62,23.34,55.51,55.87.79,28.86-27.57,57.22-56.09,55.52-28.9-1.72-54.68-21.36-55.19-56.61-.44-30.29,25.27-54.89,55.77-54.78ZM1502.67,700.38c24.11-.13,43.71-19.71,43.52-43.48-.19-23.62-19.85-43.13-43.48-43.15-24.13-.02-43.63,19.35-43.62,43.34.01,24.02,19.55,43.42,43.58,43.3Z"/><path d="M2487.29,799.12c2.04-30.37,9.69-57.77,30.97-79.87,19.27-20.02,42.74-30.67,70.45-31.99,2.32-.11,4.65.17,6.98.34.79.06,1.56.3,2.04.4-1.81,29.81-10.09,56.85-30.71,78.99-19.11,20.52-43.09,30.65-70.75,32.67-2.93.21-5.91-.33-8.98-.53ZM2583.96,699.88c-48.61,2.78-82.18,49.18-82.49,86.34,41.29-.92,80.08-40.71,82.49-86.34Z"/><path d="M2340.38,738.15c-9.19,2.59-17.89.9-26.49-.88-42.97-8.88-74.58-43.15-81.77-88.41-1.09-6.88-2.16-13.77-3.36-21.45,3.17-.18,6.09-.62,8.97-.46,47.23,2.62,85.67,34.01,97.22,79.85,2.55,10.12,3.61,20.61,5.43,31.34ZM2243.21,640.37c2.36,47.07,42.74,84.84,82.46,86.07,2.87-38.89-48.15-92.14-82.46-86.07Z"/><path d="M105.98,401.15c20.35,1.7,40.07,7.88,56.91,22.33,19.2,16.47,31.81,36.37,35.7,61.67,9.99,65.08-42.51,109.51-84.37,113.04-3.47.29-6.89,1.32-10.36,1.51-5.21.28-9.69-3.06-9.62-6.72.07-3.46,3.46-5.72,8.99-5.97,37.78-1.75,64-21.16,78.22-55.1,13.35-31.85,5.95-70.41-22.4-95.87-15.88-14.26-33.93-21.85-55.12-22.49-6.28-.19-9.9-2.72-9.68-6.32.24-4.01,3.87-6.11,11.73-6.09Z"/><path d="M900.34,400.87c-49.78,1.42-91-38.1-97.26-81.7-.8-5.54-1.1-11.19-1.21-16.79-.07-3.53,1.95-6.39,5.69-6.32,3.86.07,5.76,2.76,5.93,6.68.49,11.21,1.81,22.3,6.46,32.66,11.65,25.94,30.56,44.32,58.42,51.07,60.94,14.78,107.87-31.15,109.32-80.19.03-1.17.05-2.34.15-3.5.37-4.22,3.19-7.19,6.41-6.82,2.86.33,6.73,4.94,6.41,8-2.4,22.77-8.71,43.93-24.03,61.81-19.95,23.28-45.55,35.32-76.3,35.09Z"/><path d="M2311.75,90.22c-2.08,28.59-9.55,54.88-29.49,76.34-18.8,20.23-42.15,30.83-69.48,33.12-.66.06-1.33.07-2,.06-9.17-.1-9.05-.25-7.83-9.29,2.33-17.25,5.6-34.18,14.82-49.32,20.71-34.02,50.56-51.94,90.85-51.33,1.13.02,2.25.3,3.13.43ZM2297.76,102.28c-37.13-2.67-86.78,49.01-81.23,84.55,46.95-3.75,79.89-46.14,81.23-84.55Z"/><path d="M2002.1,403.38c8.6-1.3,17.29-.57,25.93,1.18,44.5,8.99,76.75,46.1,81.96,89.62.69,5.74,1.79,11.43,2.74,17.38-12.94,3.6-25.58.24-37.57-4.04-38.67-13.8-61.56-41.5-69.27-81.76-1.37-7.14-2.44-14.33-3.79-22.38ZM2098.53,499.75c-3.73-51.88-49.31-84.74-81.96-83.92,3.13,48.44,45.16,83.09,81.96,83.92Z"/><path d="M2099.57,645.9c4.35,13,8.36,25.1,12.43,37.18,8.34,24.75,16.8,49.46,24.9,74.29.83,2.54-.17,5.81-.73,8.66-4.1,20.64-14.72,30.66-35.39,33.55-9.86,1.38-25.43-7.11-30.77-17.18-5.44-10.26-7.35-20.52-3.4-32.38,11.02-33.14,20.98-66.64,31.37-99.99.34-1.08.81-2.12,1.6-4.14ZM2099.95,684.37c-.83,2.17-1.27,3.15-1.59,4.17-7.1,22.68-14.31,45.33-21.25,68.05-4.17,13.67,5.45,27.97,19.82,29.96,17.56,2.44,32.13-14.95,26.56-31.72-5.19-15.62-10.39-31.23-15.6-46.84-2.5-7.5-5.04-14.98-7.94-23.62Z"/><path d="M1473.73,308.23c-21.48,0-42.97-.07-64.45.06-4.31.03-7.27-1.38-7.86-5.76-.47-3.48,2.99-5.8,8.14-5.82,41.97-.17,83.94-.17,125.9-.7,5.93-.08,12.21-1.95,17.66-4.45,8.1-3.71,12.98-10.53,12.57-19.87-.43-9.71-6.7-15.4-15.04-18.7-4.38-1.73-9.31-2.59-14.04-2.84-9.47-.49-18.98-.27-28.47-.39-4.95-.07-7.58-2.24-7.34-6.09.28-4.53,3.18-5.69,7.23-5.57,12.42.37,24.92-2.87,37.26.81,4.13,1.23,8.34,2.36,12.26,4.1,12.69,5.64,20.15,15.24,20.18,29.42.04,14.31-7.45,24.12-19.99,30.31-7.57,3.73-15.53,5.65-24.08,5.57-19.98-.18-39.97-.06-59.95-.06v-.02Z"/><path d="M673.33,539.05c-21.49,0-42.98-.07-64.47.06-4.3.03-7.45-1-7.47-5.77-.01-4.84,3.33-5.78,7.53-5.79,42.15-.08,84.29-.28,126.44-.38,8.01-.02,15.08-2.59,21.24-7.47,12-9.52,11.44-26.13-1.08-34.94-8.32-5.86-17.88-6.84-27.67-6.65-6.82.14-13.64.54-20.46.45-4.82-.06-7.78-2.74-7.41-6.26.46-4.33,3.39-5.71,7.39-5.7,10.32.05,20.66-.24,30.97.12,8.65.31,16.55,3.41,23.89,8,10.47,6.54,15.38,16.71,15.11,28.24-.32,13.89-7.48,24.63-20.49,30.74-7.46,3.5-15.19,5.55-23.6,5.45-19.97-.24-39.95-.08-59.93-.08,0-.01,0-.03,0-.04Z"/><path d="M499.42,406.82c8.21,21.38,15.91,41.41,23.6,61.45,4.18,10.88,8.36,21.76,12.51,32.66,1.43,3.76,2.35,7.27,1.06,11.64-4.32,14.67-13.13,24.16-28.55,26.45-4.98.74-10.19.94-15.18.38-17.83-1.99-26.07-13.68-29.16-30.09-.28-1.51.09-3.29.62-4.79,9.12-25.56,18.3-51.1,27.48-76.64,2.36-6.56,4.73-13.11,7.6-21.06ZM499.79,441.39c-.64,1.54-.96,2.24-1.22,2.96-6.97,19.21-13.46,38.61-21.1,57.55-3.49,8.65,2.25,21.66,11.97,24.51,7.4,2.16,14.82,2.2,22.03-.58,10.82-4.17,15.39-14.73,11.29-25.36-6.94-17.98-13.82-35.98-20.74-53.97-.57-1.48-1.27-2.9-2.24-5.1Z"/><path d="M2531.54,466.14c19.5,0,38.99-.01,58.49,0,4.81,0,8.56,2.64,8.48,5.85-.08,3.22-3.78,5.71-8.63,5.71-37.99.04-75.98.04-113.97.11-9.17.02-17.36,3.03-24.43,8.81-8.99,7.36-8.75,20.65.53,27.7,6.26,4.75,13.45,7.25,21.34,7.47,9.66.27,19.32.53,28.99.66,4.16.06,7.58,1.25,7.65,5.9.06,4.33-3.1,5.61-7.09,6-18.44,1.8-36.62,1.17-53.46-7.43-18.02-9.21-22.49-32.94-8.74-46.91,8.83-8.97,20.27-13.57,32.85-13.84,19.32-.42,38.65-.11,57.98-.11v.08Z"/><path d="M2304.07,339.02c-36.44-1.57-63.81-15.16-84.78-41.03-6.03-7.44-10.88-15.87-15.86-24.09-2.72-4.48-1.67-8.08,1.9-9.86,3.58-1.78,6.27-.23,8.79,4.63,12.57,24.18,30.34,43.28,56.5,52.25,32.98,11.31,63.37,5.38,90.01-17.52,11.49-9.87,20.48-21.75,27.45-35.22,1.07-2.06,3.74-4.52,5.69-4.53,1.98-.01,4.06,2.68,5.9,4.4.5.46.66,1.89.33,2.55-15.7,31.18-38.32,54.66-72.98,64.16-8.45,2.32-17.27,3.24-22.96,4.27Z"/><path d="M1601.69,532.05c-2.02,2.31-4.04,4.63-6.05,6.94l-2.73-.92c-2-2.58-4.39-4.94-5.94-7.76-15.96-29-38.3-49.97-72.04-55.47-31.56-5.14-58.5,4.84-80.72,27.59-8.52,8.72-16.15,18.21-21.07,29.53-1.73,3.99-4.41,5.28-8.33,3.8-3.4-1.28-4.34-4.9-2.5-8.85,5.64-12.03,13.24-22.7,22.56-32.15,28.4-28.8,62.47-39.47,101.78-29.68,31.37,7.81,53.08,28.65,69,56.05,1.74,3,3.17,6.2,4.74,9.3.44.54.88,1.07,1.31,1.61Z"/><path d="M300.28,694.82c30.3,0,60.61.07,90.91-.08,4.42-.02,7.09,1.89,8.22,5.7.82,2.77-3.79,6.26-8.2,6.26-60.61.04-121.21.02-181.82.03-4.28,0-7.03-2.24-7.95-6.14-.65-2.76,3.7-5.75,7.91-5.75,30.3-.02,60.61-.01,90.91-.01Z"/><path d="M300.41,334.14c9.66,0,19.31-.03,28.97.01,3.99.02,8.5,3.27,7.78,5.9-1.04,3.81-3.56,5.92-8.04,5.89-18.15-.09-36.3.09-54.44.24-8.8.07-16.7,2.9-23.36,8.67-9,7.8-8.46,20.48,1.12,27.52,6.65,4.89,14.29,6.92,22.48,7.09,9.49.2,18.99.18,28.45.84,2.25.16,5.27,2.22,6.25,4.23,1.28,2.62.3,5.86-3.72,5.87-13.65.04-27.43,1.14-40.9-.42-14.37-1.67-30.19-10.51-32.03-28.63-1.17-11.51,3.11-20.92,12.6-27.52,8.76-6.09,18.5-9.76,29.37-9.74,8.49.01,16.98,0,25.47,0,0,.01,0,.02,0,.03Z"/><path d="M2541.73,189.12c-1.99,1.64-3.82,4.11-6.23,4.96-23.42,8.31-46.96,8.18-70.36-.1-1.97-.7-4.03-3.17-4.57-5.21-.39-1.47,1.26-4.37,2.78-5.21,1.73-.96,4.42-.76,6.55-.34,7.8,1.55,15.54,3.41,24.01,5.31.12-2.67.25-4.42.27-6.17.18-27.47.35-54.94.53-82.41.01-1.66-.44-3.71.35-4.89,1.25-1.85,3.3-4.21,5.14-4.32,1.86-.12,4.38,1.87,5.64,3.63,1,1.39.67,3.84.68,5.82.16,27.3.28,54.61.41,81.91,0,1.79,0,3.58,0,6.3,7.86-1.63,15.07-2.78,22.08-4.66,7.88-2.12,8.28-2.23,12.71,5.4Z"/><path d="M1875.16,145.29c-1.31,4.58-2.22,8.98-3.82,13.11-3.39,8.77-13.12,13.92-21.17,11.55-9.14-2.68-14.82-11.77-13.13-21.34,1.68-9.49,9.22-12.28,17.14-14.48,1.54-.43,3.14-.6,5.01-.94-4.8-5.24-10.45-6.05-15.78-2.46-1.92,1.29-3.59,2.95-5.41,4.4-2.81,2.24-5.52,1.99-7.97-.57-2.44-2.55-2.48-5.14-.09-7.84,14.35-16.24,32.84-12.59,42.58,3.05,1.03,1.65,3.21,3.27,5.08,3.59,18.88,3.19,28.56,13.44,29.94,32.33.14,1.93.11,4.34-.91,5.78-1.3,1.85-3.86,4.27-5.54,4.04-2.04-.28-3.96-2.9-5.49-4.85-.68-.86-.29-2.58-.36-3.91-.62-13.07-6.48-19.46-20.08-21.46ZM1862.83,146.07c-.48-.46-.97-.93-1.45-1.39-3.21,1.09-6.64,1.79-9.54,3.42-1.52.85-3.16,3.59-2.84,5.06.41,1.86,2.54,4.23,4.32,4.64,1.7.39,4.7-.94,5.72-2.46,1.82-2.72,2.58-6.15,3.78-9.28Z"/><path d="M2753.98,588.7c0-2.83,0-4.61,0-6.39.11-27.3.22-54.61.33-81.91,0-1.33-.02-2.67.04-4,.17-3.56,2.15-5.76,5.6-5.79,3.6-.03,5.92,1.98,5.94,5.91.02,5.33.03,10.66.05,15.98.08,23.48.27,46.95.16,70.43-.02,4.27,1.55,5.37,5.3,4.55,6.49-1.42,13.01-2.7,19.44-4.35,4.52-1.16,8.92.33,9.65,4.28.74,4.04-2.26,5.92-5.58,7.02-23,7.56-46.04,7.75-69.07.19-4.87-1.6-6.7-4.55-5.37-7.95,1.53-3.91,4.36-4.65,9.46-3.35,7.69,1.96,15.48,3.49,24.05,5.38Z"/><path d="M600.54,242.64c-1.75,4.73-5.15,5.8-9.86,5.8-27.46-.03-54.93.24-82.39.4-6.23.04-6.39.06-5.33,6.44.93,5.57,2.05,11.13,3.51,16.57,1.93,7.18,1.99,7.46-5.71,12.38-1.86-2.79-4.5-5.38-5.5-8.49-7.19-22.38-7.13-44.83.26-67.19,1.64-4.96,4.63-6.92,8.39-5.35,4.44,1.85,3.99,5.32,2.97,9.22-1.6,6.1-2.68,12.33-4.16,18.45-1.05,4.31.11,5.84,4.83,5.82,27.63-.09,55.26.22,82.89.15,4.64-.01,8.16.91,10.1,5.79Z"/><path d="M2605.65,267.63c13.42-4.26,26.67-9.2,40.3-12.6,18.22-4.54,36.74-7.94,55.15-11.69,3.96-.81,6.63,1.59,7.31,5.16.67,3.55-1.41,5.95-5.14,6.65-13.9,2.63-27.82,5.17-41.67,7.99-6.42,1.31-12.72,3.21-19.07,4.85-.01.48-.02.96-.03,1.44,10.45,2.51,20.86,5.21,31.37,7.46,9.27,1.98,18.65,3.46,27.98,5.17,4.67.85,7.26,3.6,6.67,7.07-.66,3.88-4.02,5.66-8.83,4.63-19.52-4.18-39.16-7.86-58.49-12.77-12.04-3.05-23.6-7.95-35.38-12.03l-.18-1.34Z"/><path d="M2616.71,741.49c-10.92-7.88-12.69-19.65-15.27-30.96-1-4.37,2.63-9.46,6.43-9.9,3.41-.4,5.98,2.79,6.39,7.86.19,2.32.33,4.66.71,6.95,1.09,6.59,3.42,12.7,9.2,16.5,2.61,1.72,6.02,3.05,9.09,3.11,22.14.43,44.28.48,66.42.66,5.98.05,10.05,2.53,9.94,5.99-.11,3.3-4.46,5.82-10.21,5.86-20.98.13-41.95.25-62.93.36-12.3.07-19.38,6.07-21.48,18.31-.34,1.97-.53,3.96-.71,5.95-.48,5.12-3.52,8.87-6.72,8.23-3.77-.76-7.08-6.55-5.99-10.84,2.66-10.46,4.66-21.28,15.13-28.07Z"/><path d="M872.71,699.96c.03,14.62,10.82,26.1,25.35,26.99,1,.06,2.24-.25,2.95.24,2.02,1.39,5.22,3,5.35,4.72.16,2.17-1.83,5.95-3.66,6.5-3.23.97-7.09.37-10.6-.17-14.78-2.28-31.13-15.14-31.62-37.88-.41-19.05,12.17-33.45,28.63-38.39,21.89-6.56,47.67,9.32,49.52,35.12.13,1.8.46,4.09-.44,5.36-1.35,1.92-3.52,4.07-5.65,4.46-3.04.55-5.24-1.62-5.69-4.97-.49-3.62-.46-7.41-1.57-10.83-4.14-12.75-16.9-20.15-30.34-18-12.82,2.06-22.27,13.47-22.24,26.85Z"/><path d="M931.81,460.92c18.54.11,33.64,12.39,38.63,29.18,7.51,25.33-14.13,48-33.53,49.33-.5.03-.99.15-1.49.19-5.91.46-9.78-1.76-10.07-5.77-.29-4.01,2.5-6.08,8.77-6.54,16.81-1.21,27.76-15.02,25.11-31.65-2.5-15.67-17.78-25.6-33.44-21.74-10.3,2.54-18.67,12.04-19.91,22.58-.19,1.65-.43,3.31-.51,4.97-.18,3.77-2.11,6.11-5.85,6.04-3.68-.06-6.25-2.5-5.8-6.12.75-6.03,1.21-12.48,3.75-17.84,6.94-14.69,19.36-21.82,34.33-22.64Z"/><path d="M1341.12,507.67c.91,11.53,8.2,18.86,19.66,19.56,1.16.07,2.33.22,3.49.21,4.16-.05,7.19,2.05,7.08,6.03-.1,3.87-3.22,6.09-7.27,6.08-16.72-.04-30.56-7.85-34.02-25.92-1.07-5.61-3.29-6.88-8.43-6.59-6.47.36-12.98,0-19.47-.13-4.25-.09-8.27-3.11-7.72-6.11.71-3.92,3.36-5.84,7.48-5.84,7.49,0,14.98-.29,22.47-.19,3.06.04,4.35-.81,4.81-4.04.58-4.07,1.63-8.18,3.19-11.99,2.86-6.96,9.97-10.74,17.38-9.84,8.15.99,13.62,6.2,15.47,14.72,1.58,7.3-1.42,15.28-7.82,18.37-5.02,2.42-10.56,3.74-16.32,5.7ZM1340.27,494.01c.48.44.95.88,1.43,1.32,3.28-1.43,6.82-2.47,9.73-4.45,1.34-.91,2.39-3.93,1.9-5.44-.59-1.82-2.8-3.89-4.63-4.27-1.51-.31-4.33,1.26-5.11,2.75-1.62,3.1-2.27,6.7-3.31,10.09Z"/><path d="M2128.05,237.4c0-8.96-.04-17.6.01-26.23.03-5.37,1.79-7.68,5.79-7.44,4.76.29,5.85,3.52,5.85,7.67-.01,7.33.33,14.67.16,21.99-.08,3.5,1.16,4.44,4.5,4.79,3.91.41,7.87,1.46,11.54,2.91,6.28,2.49,11.43,11.13,10.48,16.71-1.61,9.46-6.86,14.85-15.45,15.85-12.61,1.47-19.35-3.86-22.04-17.4-1.45-7.3-2.11-7.62-9-4.82-9.11,3.71-12.26,11.11-12.7,20.25-.25,5.26-2.74,8.86-5.99,8.77-3.43-.1-6.33-4.68-6.11-9.65.8-18.47,11.85-30.52,30.09-32.81.65-.08,1.28-.25,2.88-.58ZM2140.94,249.29c-.43.61-.87,1.23-1.3,1.84,1.25,2.99,1.92,6.51,3.96,8.79,1.32,1.48,4.7,1.66,7.06,1.43,1.16-.11,2.99-2.51,2.94-3.81-.08-1.83-1.19-4.47-2.65-5.21-3.06-1.55-6.64-2.09-10.01-3.05Z"/><path d="M410.12,111.04c1.57,7.71,2.95,14.63,4.41,21.53.34,1.62,1.13,3.15,1.43,4.78.67,3.7-1,6.72-4.51,7.03-2.08.19-5.28-1.59-6.39-3.44-1.63-2.71-2.49-6.27-2.53-9.48-.23-17.82-.19-35.65-.03-53.48.02-2.76.87-5.58,1.75-8.24,1.1-3.35,3.26-6.28,7.22-4.9,3.87,1.35,5.39,4.3,4.15,8.79-2.15,7.79-3.73,15.73-5.74,24.43,3.21.15,5.13.3,7.05.31,27.16.16,54.32.31,81.48.46,6.43.04,10.01,2.03,10.22,5.66.2,3.59-4.09,6.18-10.32,6.21-27.16.11-54.32.22-81.48.33-1.79,0-3.57,0-6.71,0Z"/><path d="M1703.48,676.66c-26.22-2.23-48.3-8-64.56-26.94-2.91-3.39-4.99-7.48-7.89-10.87-2.61-3.04-1.22-5.2.93-7.17,2.49-2.28,5.41-2.47,8.18-.34.76.58,1.31,1.5,1.83,2.34,10.84,17.6,27.17,26.59,47.14,29.06,23.62,2.92,45.46-1.53,63.62-18.07,3.16-2.87,5.84-6.35,8.33-9.85,3.09-4.34,6.01-5.63,9.41-3.44,3.45,2.22,3.83,5.2.8,9.86-9.98,15.35-24.33,24.93-41.62,29.93-9.38,2.71-19.15,4.07-26.18,5.51Z"/><path d="M166.83,224.21c7.53,20.78,15.2,41.52,22.51,62.38,3.15,8.97-2.05,20.85-10.65,24.9-14.93,7.03-32.77,2.11-35.45-18.69-.14-1.12-.11-2.38.25-3.44,7.22-21.73,14.5-43.44,21.76-65.16.53,0,1.05,0,1.58,0ZM167.15,258.86c-.41-.04-.82-.09-1.22-.13-3.36,10.21-6.84,20.38-10.04,30.64-1.37,4.4.27,8.22,3.83,10.98,3.38,2.63,11.09,2.38,14.58-.45,3.54-2.87,4.98-6.81,3.53-11.13-3.37-10.03-7.09-19.95-10.67-29.91Z"/><path d="M700.71,602.15c7.92,21.75,15.76,42.57,23.04,63.59,3.51,10.13-4.07,22.8-14.44,26.11-17.8,5.7-29.66-5.09-31.5-18.51-.24-1.76-.52-3.74.02-5.35,7.09-21.31,14.32-42.57,21.54-63.83.15-.44.53-.81,1.35-2.02ZM701.5,637.62c-.43.03-.87.05-1.3.08-3.34,9.92-6.81,19.8-9.95,29.78-1.41,4.48-.27,8.65,3.56,11.65,3.18,2.5,10.33,2.51,13.77.11,3.69-2.58,6.02-6.24,4.62-10.66-3.29-10.41-7.09-20.65-10.69-30.96Z"/><path d="M584.95,741.67c10.15,6.97,12.39,17.87,14.57,28.68.85,4.21-1.23,7.71-5.28,9.09-1.52.52-4.19-.43-5.45-1.63-1.23-1.19-1.5-3.52-1.89-5.41-.78-3.73-.9-7.66-2.09-11.23-2.97-8.95-9.8-13.62-19.18-13.68-21.47-.14-42.94-.33-64.41-.34-3.5,0-6.13-1.17-6.75-4.48-.32-1.74.62-4.33,1.92-5.57,1.2-1.14,3.63-1.32,5.53-1.34,21.14-.25,42.28-.4,63.41-.56,9.41-.07,16.25-4.64,19.09-13.67,1.43-4.54,1.91-9.42,2.41-14.19.36-3.36,1.44-5.91,4.94-6.54,3.79-.68,5.93,1.7,7.16,4.84.58,1.49.95,3.34.62,4.86-2.27,10.56-4.06,21.39-12.93,29.03-.59.51-.99,1.25-1.67,2.13Z"/><path d="M1300.84,249.47c7.94,22.32,16.07,43.64,22.99,65.34,3.04,9.54-4.79,20.06-11.87,23.08-14.18,6.05-30.72,1.57-34.1-16.69-.41-2.21-.62-4.77.07-6.83,6.99-21.01,14.18-41.96,21.35-62.91.14-.42.57-.74,1.57-1.99ZM1301.31,284.89c-.46.06-.92.11-1.37.17-3.3,9.89-6.79,19.71-9.79,29.69-1.3,4.34-.38,8.65,3.61,11.59,3.68,2.71,9.92,2.59,14.14-.19,3.97-2.62,5.37-6.64,4.03-10.87-3.25-10.22-7.04-20.27-10.61-30.38Z"/><path d="M1766.49,75.84c-.57-25.66-8.58-46.85-29.91-61.41-3.39-2.31-4.89-5.2-2.29-8.82,2.57-3.59,5.67-3.03,9.13-.79,19.78,12.84,29.83,31.65,33.63,54.34.93,5.56,2.76,11.22,2.36,16.7-.6,8.23-2.42,16.44-4.41,24.49-3.7,14.94-11.37,27.62-23.13,37.68-1.51,1.3-3.12,2.5-4.79,3.59-3.05,1.97-5.83,1.18-7.94-1.47-2.24-2.81-1.6-5.66.91-8.01,2.67-2.5,5.7-4.64,8.22-7.27,10.93-11.44,16.2-25.38,17.65-40.93.28-2.98.43-5.98.58-8.1Z"/><path d="M2296.74,507.86c-23.92-1.7-45.1-8.48-61.51-26.64-1.56-1.72-2.97-3.6-4.3-5.5-2.22-3.16-1.57-6.28,1.36-8.31,3.18-2.21,6.35-1.4,8.68,1.83,5.79,8.01,13.33,13.89,22.12,18.25,26.99,13.37,64.03,8.35,86.01-11.9,3.38-3.12,6.16-6.96,8.84-10.74,2.3-3.25,5-4.59,8.42-2.46,3.2,1.99,4.2,4.89,1.98,8.5-9.52,15.46-23.37,25.59-40.38,30.85-10.08,3.12-20.8,4.16-31.23,6.13Z"/><path d="M1164.75,1.94c18.41.34,34.15,14.94,34.56,36.15.3,15.27-8.14,28.56-24.81,34.66-2.65.97-5.43,2.36-8.11,2.28-3.05-.09-6.35-1.14-8.94-2.75-1.16-.72-1.52-3.96-1.09-5.79.85-3.6,4.18-3.65,7.26-3.89,11.25-.88,19.93-7.6,22.58-17.33,2.84-10.4-1.06-21.21-9.85-27.3-14.22-9.85-34.91-.9-37.44,16.21-.29,1.98-.42,3.97-.62,5.96-.37,3.64-2.79,5.48-6.02,5.4-3.01-.07-5.25-1.9-5.51-5.37-.8-10.62,2.74-19.73,10.08-27.21,7.06-7.2,15.82-10.91,27.9-11.03Z"/><path d="M1164.2,600.77c-21.22.99-36.79-14.54-38.04-35.19-.26-4.28,2.3-7.77,5.81-8.04,3.54-.28,6.38,2.48,6.27,7.32-.28,12.63,10.2,23.64,22.78,24.83,8.82.83,18.57-4.35,23.55-13.15,4.26-7.53,3.39-18.97-1.41-25.59-5.07-7-11.64-10.78-20.27-10.89-4.06-.05-6.88-1.51-6.97-5.98-.08-3.74,3.57-6.8,8.09-6.24,8.01.99,15.61,3.23,22.02,8.58,8.85,7.4,13.8,17.57,13.82,28.27.02,10.06-3.97,20.12-12.5,27.31-7.19,6.07-15.05,9.81-23.16,8.77Z"/><path d="M1801.25,238.74c-.02-18.26,13.63-33.88,31.2-35.7,19.36-2,35.97,9.97,39.55,28.7.64,3.36,3.79,7.01.22,10.22-1.86,1.67-4.71,3.55-6.81,3.25-1.7-.25-4.04-3.52-4.22-5.61-.73-8.41-3.4-15.51-10.52-20.56-7.72-5.49-18.76-5.88-26.33-.79-8.95,6.01-12.89,16.14-10.34,26.56,2.16,8.85,10.63,16.38,19.7,17.52,1.16.15,2.32.23,3.48.35,4.99.51,7.33,2.81,6.77,6.67-.47,3.25-5.13,6.88-8.58,6.19-19.27-3.88-33.82-15.51-34.12-36.79Z"/><path d="M1160.73,302.97c-10.26,1.97-20.53,3.91-30.78,5.92-12.86,2.52-21.26,11.79-23.31,24.75-.51,3.22-2.82,6.15-4.35,9.29-8.22-4.62-8.82-5.8-7.04-13.74,2.26-10.09,7.22-18.54,15.61-24.8,1.06-.79,2.06-1.65,3.07-2.5.11-.09.13-.29-.26.69-4.08-4.57-8.58-8.34-11.39-13.1-3.21-5.45-5.34-11.66-7.14-17.78-1.43-4.84.78-8.19,4.59-8.98,3.13-.65,6.27,2.21,6.92,6.91,1.81,13.07,10.24,20.82,21.59,25.2,7.36,2.84,15.54,3.56,23.34,5.26,3.06.66,6.1,1.39,9.15,2.09,0,.26,0,.53,0,.79Z"/><path d="M265.95,501.22c-10.07,1.93-20.15,3.84-30.22,5.8-11.59,2.25-20.73,12.45-21.78,24.23-.52,5.8-3.22,8.99-7.02,8.28-3.9-.73-6.58-5.53-5.38-10.41,2.69-10.9,7.4-20.64,16.89-27.4.79-.56,1.5-1.22,2.57-2.1-9.45-6.78-15.97-15.34-18.84-26.41-.41-1.59-.82-3.25-.8-4.88.05-4.25,2.41-7.34,6.5-7.48,3.72-.13,5.49,2.92,6.08,6.65,2.23,14.19,11.47,23.78,25.67,26.89,8.76,1.92,17.52,3.87,26.28,5.8.02.34.04.68.07,1.02Z"/><path d="M286.46,101.64c11.92,7.28,17.44,18.41,20.01,31.21.94,4.69-2.97,6.63-6.39,8.53-4.1-1.71-5.72-4.73-6.31-9.17-1.58-11.83-11.2-21.51-23.03-23.88-9.61-1.92-19.23-3.78-29.02-6.73,2.78-.61,5.56-1.2,8.34-1.82,5.36-1.19,10.68-2.62,16.09-3.56,15.42-2.68,24.38-11.95,27.78-26.91.77-3.39,2.27-6.62,5.77-6.41,2.2.13,4.35,2.82,6.26,4.64.53.5.36,2.07.09,3.03q-4.58,16.41-19.59,31.08Z"/></svg>