<?xml version="1.0" encoding="UTF-8"?><svg id="a" xmlns="http://www.w3.org/2000/svg" viewBox="0 0 3001 800"><path d="M3001,139c-.85,1.1-1.85,2.13-2.54,3.33-1.89,3.31-3.38,6.9-5.54,10.02-3.27,4.72-7.62,5.61-11.56,2.89-4.51-3.11-5.28-7.65-2.14-12.63,10.49-16.63,9.56-35.29-3.72-49.73-5.15-5.6-11.87-10.32-18.75-13.65-18.01-8.75-37.49-8.39-56.83-6.53-28,2.69-54.99,9.81-81.21,19.92-2.33.9-4.67,1.78-7.06,2.5-4.34,1.31-8.99-.5-10.22-3.84-1.89-5.1-.04-10.29,4.86-11.91,16.42-5.44,32.76-11.25,49.45-15.73,22.57-6.06,45.64-9.52,69.13-8.57,23.45.95,45.17,6.42,61.7,24.72,1.89,2.1,3.7,4.29,5.37,6.57,5.6,7.66,9.35,15.72,8.58,25.78-.65,8.56.26,17.24.48,25.87v1Z"/><path d="M2158.81,624.79c-5.07,5.68-9.8,10.81-14.29,16.14-.93,1.11-1.34,2.98-1.35,4.51-.22,19.15-.66,38.3-.29,57.44.17,8.81-1.97,16.53-5.68,24.38-9.37,19.84-18.18,39.94-27.22,59.94-.41.91-.86,1.8-1.33,2.69-2.66,5.04-7.17,6.95-11.42,4.87-4.85-2.38-6.5-7.38-4.09-12.7,8.78-19.39,17.31-38.89,26.53-58.07,4.29-8.92,6.32-17.89,6.2-27.76-.24-18.98.03-37.96.39-56.94.05-2.57,1.22-5.61,2.89-7.57,7.21-8.49,14.74-16.7,22.25-24.92,4.86-5.32,10.1-5.31,14.98.06,8.04,8.86,16.07,17.75,23.82,26.86,1.57,1.84,2.67,4.71,2.71,7.12.37,21.64.63,43.28.48,64.92-.04,4.99-1.03,10.28-2.91,14.89-9.22,22.64-18.87,45.1-28.39,67.61-2.63,6.22-7.07,8.7-11.84,6.65-5.31-2.28-6.9-7.13-4.28-13.38,9.47-22.54,19.05-45.03,28.37-67.63,1.35-3.27,2.12-7.03,2.13-10.56.04-18.64-.22-37.28-.46-55.92-.02-1.58-.16-3.57-1.08-4.66-5.06-5.92-10.38-11.62-16.1-17.95Z"/><path d="M2042.76,226.72c-5.4,6.02-10.5,11.51-15.33,17.23-1.16,1.37-1.96,3.51-1.98,5.31-.28,19.81-.41,39.63-.45,59.45,0,2.09.45,4.33,1.26,6.26,9.35,22.42,18.81,44.8,28.24,67.18.39.92.84,1.82,1.18,2.75,2.03,5.45.25,10.31-4.41,12.09-4.55,1.74-8.87-.34-11.11-5.62-6.32-14.85-12.54-29.74-18.81-44.62-3.03-7.21-5.5-14.73-9.25-21.54-5.46-9.92-3.77-20.4-3.77-30.77,0-16.48.17-32.97.69-49.44.1-3.18,1.43-6.9,3.45-9.32,7.45-8.95,15.4-17.49,23.21-26.14,4.59-5.08,9.56-5.17,14.07-.2,7.49,8.27,15.05,16.48,22.2,25.04,1.83,2.19,3.08,5.57,3.14,8.43.46,21.47.42,42.96.9,64.43.09,4.16,1.14,8.57,2.82,12.38,9.58,21.78,19.5,43.41,29.28,65.1,2.35,5.21.8,10.13-3.76,12.14-4.35,1.92-8.99-.04-11.32-5.16-10.83-23.77-21.61-47.56-32.27-71.41-.98-2.19-1.32-4.82-1.35-7.25-.25-20.98-.44-41.96-.43-62.95,0-3.94-1.07-6.96-3.83-9.77-4.18-4.25-8.05-8.82-12.37-13.6Z"/><path d="M100.19,93.09c17.65-.38,34.03,1.91,49.09,10.01,13.95,7.51,24.3,18.03,26.57,34.61,1.48,10.83-1.35,20.79-6.66,30.06-8.59,14.98-21.2,24.47-38.44,27.5-23.44,4.11-46.53,2.59-68.84-5.5-14.76-5.36-26.63-14.72-30.92-30.84-6.23-23.44,6.58-48.37,30-58.95,12.71-5.75,26.19-7.29,39.2-6.88ZM101.54,109.77c-2.33,0-4.66-.08-6.99.01-10.06.4-19.86,1.99-28.88,6.78-13.76,7.31-21.93,23.08-18.84,36.42,2.82,12.16,11.98,18.07,22.69,21.75,19.61,6.74,39.7,7.51,60.02,3.43,10.22-2.05,17.81-7.77,23.51-16.32,11.11-16.67,7.58-32.62-9.7-42.76-12.9-7.57-27.13-9.52-41.8-9.3Z"/><path d="M2310.44,352.3c-16.51-.37-32.91-1.64-48.38-8.26-39.34-16.84-36.46-58.36-12.17-79.62,11.81-10.33,25.59-14.55,40.65-15.71,18.91-1.45,37.68-.79,55.5,6.66,12.27,5.13,23,12.59,28.78,24.98,8.98,19.29,2.89,36.28-9.47,51.85-11.33,14.28-27.1,18.97-44.42,20.06-3.48.22-6.99.03-10.48.03ZM2304.11,264.55c-5.79.48-11.63.67-17.37,1.48-15.53,2.2-28.15,9.01-35.05,23.86-6.41,13.78-2.13,27.6,10.92,35.31,3.98,2.35,8.24,4.47,12.65,5.76,18.83,5.51,37.93,6.51,57.19,2.33,14.59-3.17,23.45-12.61,28.12-26.24,3.8-11.09.69-21.29-8.46-28.58-3.22-2.56-6.84-4.77-10.56-6.53-11.82-5.6-24.45-7.29-37.44-7.38Z"/><path d="M96.64,404.15c17.73-.19,33.51,1.06,48.15,7.88,6.1,2.84,12.07,6.53,17.15,10.92,16.62,14.36,19.26,36.54,7.3,56.59-8.53,14.31-20.52,23.7-37.22,26.81-24.82,4.61-49.22,3.08-72.51-6.54-32.87-13.57-39.83-50.17-15.31-76.02,11.73-12.37,26.48-17.31,42.77-19.03,3.8-.4,7.64-.49,9.66-.61ZM109.26,491.98c3.55-.29,8.87-.54,14.14-1.19,14.25-1.76,25.47-8.18,32.32-21.3,7.85-15.04,4.36-28.86-10.01-37.95-3.62-2.29-7.61-4.14-11.62-5.67-14.34-5.5-29.38-5.88-44.3-4.23-8.1.9-16.53,2.99-23.77,6.62-12.22,6.12-19.59,16.79-19.44,30.83.15,14.11,9.78,21.5,21.74,26.34,12.55,5.08,25.8,6.15,40.93,6.56Z"/><path d="M873.44,764.35c8.78,4.59,17.3,9.05,26.27,13.74,4.37-7.58,8.65-15.02,13.2-22.9-1.77-1.01-3.44-1.96-5.73-3.26-2.35,4.28-4.6,8.44-6.9,12.57-2.93,5.25-7.88,7.02-12.5,4.5-4.31-2.34-5.53-7.33-2.86-12.61,3.38-6.68,6.86-13.31,10.42-19.89,2.66-4.92,7.72-6.53,12.74-3.92,6.94,3.6,13.8,7.35,20.6,11.22,4.93,2.8,6.35,7.81,3.56,12.78-7,12.48-14.09,24.9-21.29,37.26-2.83,4.87-7.32,6.03-12.41,3.4-13.45-6.95-26.88-13.96-40.28-21.01-5.18-2.73-6.89-7.21-4.26-12.57,5.86-11.95,12.06-23.73,18.09-35.59,1.5-2.95,2.82-6,4.31-8.96,13.89-27.66,27.85-55.29,41.68-82.98,2.24-4.49,5.63-6.61,10.44-5.79,4.06.69,6.54,3.69,6.71,7.65.11,2.46-.96,5.16-2.1,7.45-19.1,38.08-38.3,76.1-57.46,114.15-.73,1.45-1.38,2.95-2.22,4.76Z"/><path d="M1537.35,497.81c12.55,13.18,25.45,25.94,37.4,39.52,10.27,11.67,18.79,24.68,21.58,40.47.68,3.86.89,7.99.32,11.85-.66,4.46-3.97,6.78-8.61,6.65-4.53-.13-7.69-2.86-7.72-7-.18-19.24-11.09-33.25-22.98-46.29-11.18-12.25-23.72-23.26-35.87-34.6-1.6-1.49-4.41-2.33-6.67-2.36-15.99-.2-31.98-.09-47.97-.11-5.83,0-9.74-3.37-9.78-8.3-.04-4.77,3.48-8.27,9.24-8.33,16.15-.17,32.31.06,48.46-.2,2.93-.05,6.25-1.04,8.69-2.66,16.56-10.99,32.19-23.12,44.48-38.98,6.07-7.83,11.17-16.18,12.29-26.33.23-2.13.27-4.31.07-6.44-.51-5.66,1.94-9.38,7.01-10.31,4.69-.86,8.68,2.26,9.69,7.81,2.07,11.37-.92,21.86-6.38,31.64-8.98,16.09-21.76,28.93-35.86,40.51-5.89,4.83-12.04,9.34-17.38,13.47Z"/><path d="M2159.25,58.92c-4.94,5.93-10.09,11.99-15.04,18.21-.82,1.03-1.05,2.75-1.08,4.16-.21,12.49-.17,24.98-.57,37.46-.09,2.81-.97,5.98-2.52,8.3-10.28,15.35-20.82,30.54-31.33,45.74-3.5,5.06-8.64,6.3-12.8,3.24-3.87-2.84-4.2-7.88-.78-12.87,9.6-14.01,19.29-27.96,28.78-42.04,1.21-1.79,1.99-4.23,2.03-6.39.24-12.32-.02-24.66.38-36.97.1-3.08,1.28-6.63,3.15-9.05,7.24-9.34,14.92-18.33,22.5-27.41,4.87-5.83,9.98-5.86,15.08-.13,7.42,8.33,14.96,16.57,22.06,25.16,1.95,2.36,3.39,5.81,3.59,8.85.87,13.61,1.42,27.24,1.58,40.88.04,3.42-1.08,7.31-2.88,10.23-9.27,15.01-18.94,29.78-28.47,44.63-.45.7-.9,1.4-1.38,2.08-3.41,4.8-8.33,6.09-12.43,3.26-3.89-2.69-4.7-7.73-1.74-12.42,6.48-10.28,12.49-20.94,19.81-30.59,8.1-10.69,11.96-21.93,9.48-35.19-.12-.64-.12-1.35,0-1.99,2.91-16.29-5.36-27.45-17.4-37.16Z"/><path d="M2098.52,442.52c-5.44,6.56-10.54,12.49-15.34,18.65-1,1.28-1.27,3.38-1.29,5.11-.17,11.99,0,23.99-.37,35.98-.1,3.13-1.09,6.65-2.81,9.23-9.97,14.96-20.26,29.71-30.53,44.48-1.3,1.87-2.85,3.86-4.77,4.94-3.6,2.03-7.35,1.23-9.92-1.92-2.84-3.49-2.49-7.39.06-11.09,8.88-12.89,17.53-25.94,26.72-38.6,3.43-4.73,4.89-9.49,4.8-15.19-.17-10.99-.15-21.99.22-32.98.09-2.75,1.2-5.93,2.9-8.09,7.39-9.44,15.12-18.6,22.8-27.81,4.46-5.35,9.83-5.53,14.44-.42,7.8,8.66,15.57,17.35,23.13,26.22,1.51,1.77,2.74,4.36,2.86,6.64.83,15.11,1.45,30.24,1.81,45.37.05,2.29-1.21,4.86-2.5,6.9-9.89,15.61-19.88,31.16-29.94,46.65-4.14,6.37-9.43,7.35-13.95,2.86-3.1-3.08-3.32-7.18-.35-11.83,9.04-14.18,18.24-28.25,27.15-42.51,1.39-2.23,2.26-5.2,2.25-7.83-.04-11.15-.47-22.3-.87-33.45-.05-1.38-.49-3.03-1.34-4.04-4.83-5.7-9.84-11.25-15.15-17.26Z"/><path d="M2496.07,742.59c-9.87,10.71-20.3,22.81-31.59,34.05-10.37,10.33-22.68,17.9-37.26,21.19-6.6,1.49-12.92.36-18.87-2.33-3.74-1.69-4.85-5.41-4.05-9.35.78-3.85,3.39-6.78,7.29-6.21,22.91,3.36,37.05-11.07,50.84-25.34,8.28-8.57,15.21-18.48,22.39-28.06,1.64-2.18,2.49-5.45,2.53-8.24.23-15.82.1-31.64.12-47.47,0-6.5,2.58-9.53,8.08-9.57,5.86-.04,8.69,2.99,8.71,9.62.05,15.82-.04,31.65.09,47.47.02,2,.46,4.44,1.65,5.92,13.64,16.89,28.39,32.68,46.44,45.02,9.61,6.57,19.66,11.8,31.96,10.58,4.02-.4,7.73,3.25,8.3,7.14.53,3.62-2.35,8.71-6.29,8.95-6.68.4-13.75.78-20.1-.9-15.99-4.22-28.72-14.42-40.83-25.19-10.19-9.06-20-18.54-29.41-27.3Z"/><path d="M1957.83,66.45c4.71-9.13,9.27-17.95,14.01-27.12-7.9-4.43-15.56-8.73-23.66-13.27-1.15,2.06-2.24,4.02-3.52,6.32,4.4,2.33,8.5,4.47,12.57,6.66,5.64,3.05,7.35,7.54,4.73,12.25-2.4,4.31-7.12,5.29-12.62,2.48-6.37-3.26-12.7-6.59-19-9.99-5.32-2.87-6.7-7.15-3.97-12.52,3.47-6.82,7.05-13.59,10.72-20.3,2.74-5.01,7.26-6.3,12.23-3.55,12.37,6.85,24.72,13.75,37.04,20.7,5.12,2.89,6.5,6.92,3.86,12.15-6.89,13.66-13.88,27.28-21.01,40.81-2.68,5.09-6.99,6.25-12.11,3.72-42.34-20.99-84.68-41.99-127-63.02-5.85-2.91-7.83-7.3-5.59-11.99,2.32-4.86,7.11-5.92,13.23-2.89,38.45,19.09,76.9,38.2,115.36,57.29,1.45.72,2.92,1.38,4.75,2.25Z"/><path d="M1470.87,302.63c-13.1-11.81-26.68-23.09-39.11-35.54-11.57-11.58-19.75-25.54-22.27-42.16-.37-2.46-.52-4.98-.46-7.46.12-4.63,2.96-7.63,7.27-8.02,4.68-.41,8.62,2.11,8.99,6.71,1.54,19.22,11.72,33.97,25.23,46.24,11.53,10.47,24.47,19.39,36.96,28.77,1.81,1.36,4.59,1.93,6.94,1.96,12.66.19,25.33.11,37.99.08,4.66,0,7.62,2.49,8.87,6.66,1.16,3.87-.95,6.91-4.13,8.81-1.58.94-3.79,1.15-5.72,1.16-12.16.1-24.33-.02-36.49.11-2.06.02-4.45.37-6.11,1.46-18.19,11.96-34.77,25.83-48.63,42.7-8.5,10.34-14.74,21.73-14.86,35.69-.04,4.2-3.9,7.54-7.85,7.6-4.33.06-7.93-3.04-8.48-7.54-1.18-9.58,1.15-18.53,5.33-27.04,7.47-15.22,18.62-27.55,31.15-38.67,8.56-7.6,17.45-14.83,25.38-21.53Z"/><path d="M2844.1,762.01c14.02-.51,26.17,4.28,38.52,8.2,6.81,2.17,13.61,4.4,20.49,6.34,9.56,2.69,15.95.48,21.89-7.37,8.12-10.75,13.35-23,17.79-35.56,5.6-15.84,11.11-31.8,11.77-48.78.33-8.43-.54-16.91-.88-25.36-.14-3.48-.46-6.96-.42-10.44.05-4.74,3.14-7.85,7.71-8.08,4.68-.24,8.6,2.91,9.2,7.35,6.05,44.64-4.54,85.78-26.44,124.44-2.83,5-6.5,9.77-10.63,13.76-10.12,9.75-22.65,9.61-35.13,6.42-11.42-2.92-22.54-7.02-33.84-10.46-3.65-1.11-7.43-1.83-11.17-2.62-13.73-2.89-24.84,1.35-33.59,12.26-4.15,5.18-8.21,5.77-12.78,2.23-4.13-3.2-4.65-8.47-.87-13.25,9.96-12.57,22.42-20.2,38.38-19.07Z"/><path d="M2499.46,57.86c13.02-11.95,27.05-22.82,43.61-30,9.01-3.91,18.3-6.07,28.2-4.88,7.75.94,14.3,4.3,19.84,9.66,3.87,3.74,4.38,8.6,1.5,12.13-3.09,3.78-8.05,4.28-12.44.75-8.2-6.59-17.26-6.6-26.49-3.46-17.94,6.11-32.18,17.88-45.46,30.89-1.15,1.13-1.32,3.65-1.3,5.51.21,17.82.65,35.63.84,53.45.08,7.35-5.71,11.65-11.73,8.97-3.65-1.62-4.9-4.62-4.95-8.47-.23-17.98-.63-35.96-.75-53.95-.02-3.43-.94-5.95-3.4-8.35-12.36-12.07-26.17-21.63-43.35-25.41-9.13-2.01-18.19-1.45-27.13,1.23-6.13,1.83-10.56-.11-12-5.21-1.36-4.8,1.31-8.92,7.12-10.73,23.9-7.41,45.78-2.2,66.07,11.2,7.47,4.93,14.28,10.85,21.83,16.66Z"/><path d="M2829.75,277.75c.45-8.64.85-17.29,1.35-25.93.38-6.54,3.51-9.67,9.14-9.3,5.1.34,7.69,3.91,7.51,10.29-.35,12.63-2.03,25.39-.73,37.85,2.89,27.83,12.37,53.74,27.19,77.52,6.35,10.19,13.06,12.75,24.71,9.46,12.8-3.61,25.28-8.41,38.15-11.73,7.47-1.93,15.43-2.75,23.16-2.67,15.52.15,27.01,8.35,35.91,20.47,2.81,3.83,1.91,8.32-1.6,11.11-3.83,3.04-7.51,2.91-11.14-.46-.73-.68-1.32-1.5-1.96-2.27-8.36-10.24-19.21-14.41-32-11.61-11.02,2.41-21.73,6.23-32.67,9.08-8.33,2.18-16.72,4.56-25.23,5.53-12.77,1.44-22.41-4.61-29.6-14.96-12.43-17.87-19.81-37.95-25.94-58.61-4.24-14.29-7.02-28.78-6.25-43.78Z"/><path d="M1715.02,113.96c-33.01.52-64.54,8.25-95.33,19.66-3.59,1.33-7.16,2.76-10.84,3.79-4.92,1.38-7.68-.8-7.62-5.89.13-10.47-1.62-8.21,8.49-12.12,26.99-10.43,54.77-17.82,83.54-21.02,23.34-2.59,46.66-2.97,68.75,6.86,18.82,8.38,32.73,22.41,37.33,42.36,3.7,16.04,2.5,32.92-8.37,47.16-3.33,4.35-7.9,5.01-11.83,2.13-3.7-2.71-4.75-7.45-2.07-11.53,16.68-25.3,3.64-52.98-21.56-64.19-12.88-5.73-26.44-7.77-40.49-7.21Z"/><path d="M401.09,731.26c-.63,2.7-.42,6.08-1.99,7.51-2.18,1.99-5.79,3.6-8.63,3.37-3.76-.3-5.94-3.47-6.68-7.61-3.13-17.49-6.01-35.05-9.94-52.36-3.46-15.27-8.71-30.04-16.89-43.58-10.09-16.7-23.31-20.53-40.71-11.5-16.99,8.81-27.78,23.35-36.33,39.92-1.19,2.31-2.45,4.95-4.43,6.39-3.36,2.43-7.35,2.28-10.59-.59-3.46-3.06-3.86-7.34-1.77-10.97,5.3-9.19,10.48-18.58,16.96-26.91,10.72-13.77,23.97-24.5,41.67-28.28,24.13-5.16,39.16,2.3,51.5,25.27,12.52,23.31,18.91,48.57,23.79,74.3,1.58,8.3,2.71,16.68,4.04,25.05Z"/><path d="M1081.25,196.45c-20.2-1-35.21-9.66-46.6-25.01-8.76-11.8-14.63-24.94-18.36-39.08-1.26-4.76,1.13-9.19,5.37-10.33,5.01-1.35,9.08.61,10.53,5.69,3.65,12.78,8.78,24.81,17.29,35.15,7.48,9.08,16.71,15.17,28.8,16.15,6.17.5,10.96-2.2,15.16-6.31,8.2-8.04,12.64-18.3,16.55-28.77,9.08-24.31,13.84-49.63,17.08-75.28.23-1.81.4-3.64.65-5.44.79-5.58,4.4-8.71,9.36-8.15,4.55.51,8.3,5.06,7.43,10.1-3.29,19-6.57,38-10.46,56.88-3.27,15.86-8.26,31.31-16.29,45.43-4.07,7.14-9.29,13.79-14.85,19.88-5.85,6.41-13.99,8.65-21.64,9.09Z"/><path d="M1933.88,798.67c-21.99-.32-36.63-9.64-48-24.84-8.59-11.47-14.37-24.32-17.89-38.18-1.46-5.73.56-9.63,5.51-11.02,4.95-1.4,8.85.86,10.42,6.53,3.64,13.16,8.76,25.75,18.29,35.6,5.16,5.33,11.78,9.89,18.59,12.85,11.4,4.96,19.92,2.46,27.09-7.73,5.21-7.4,9.63-15.62,12.93-24.05,10.21-26.04,15.03-53.4,18.19-81.09.69-6.07,3.09-8.65,8.14-8.83,4.5-.15,8.08,2.58,8.63,7.26.28,2.37-.52,4.87-.82,7.31-3.58,29.32-8.94,58.23-20.01,85.78-4.36,10.86-9.78,21.16-18.11,29.64-6.97,7.09-15.16,11.29-22.95,10.77Z"/><path d="M471.3,404.91c14.87-.68,24.71,6.37,32.59,16.86,12.63,16.82,19.72,36.24,24.99,56.25,4.53,17.19,7.74,34.73,11.36,52.15,1.17,5.63-2.13,10.82-6.81,11.51-4.92.73-8.64-2.81-9.64-9-4.83-29.82-11.07-59.28-24.7-86.54-2.94-5.88-6.97-11.34-11.17-16.44-6.05-7.36-14.1-9.44-23.42-7.39-11.61,2.55-21.13,8.75-28,18.02-6.28,8.48-11.37,17.91-16.3,27.28-3.09,5.87-6.85,8.74-11.84,6.86-4.72-1.78-6.54-6.71-4.16-12.6,7.76-19.22,18.97-35.89,36.43-47.7,9.53-6.45,20.21-9.2,30.68-9.25Z"/><path d="M2697.45,277.78c-22.24.4-44.4-10.25-58.55-35.56-2.19-3.92-4.96-7.5-7.23-11.38-3.83-6.55-9.23-10.07-16.99-10.43-6.1-.28-9.37-4.09-8.88-9.18.46-4.81,4.25-7.71,10.02-7.44,11.64.55,21.29,4.94,27.87,14.94,3.84,5.84,7.61,11.73,11.37,17.63,14.43,22.66,47.75,32.4,71.69,19.88,7.08-3.7,12.95-10.25,18.42-16.35,5.86-6.54,10.37-14.26,15.88-21.15,7.22-9.02,16.89-13.85,28.37-14.89,5.55-.51,10.06,2.78,10.73,7.54.56,3.96-3.63,8.6-8.81,9.1-8.38.81-14.68,4.73-19.46,11.55-4.59,6.54-9.27,13.03-14.17,19.33-14.68,18.87-30.31,26.42-60.24,26.42Z"/><path d="M2498.25,536.68c-25.45.26-47.5-10.03-61.51-35.03-1.54-2.75-3.65-5.19-5.16-7.96-4.76-8.7-10.96-14.84-21.83-14.74-4.13.04-6.91-4.19-6.73-8.5.18-4.27,3.23-7.45,7.64-7.63,12.33-.49,22.53,3.72,29.72,14.06,3.7,5.33,7.6,10.59,10.68,16.28,9.82,18.15,25.64,25.59,45.44,26.8,20.38,1.24,36.31-6,47.67-23.25,4.66-7.08,9.63-14.04,15.15-20.45,7.5-8.72,17.3-13.36,28.98-13.44,4.8-.03,8.62,3.3,9.05,7.56.38,3.82-3.49,8.33-7.99,8.72-8.93.77-15.68,4.89-20.72,12.22-3.97,5.76-8.26,11.29-12.23,17.04-13.5,19.51-32.2,28.71-58.15,28.33Z"/><path d="M791.52,667.97c-.53,15.27-5.33,35.42-11.37,55.33-1.4,4.61-2.9,9.2-4.54,13.73-1.98,5.47-6.27,8.28-10.36,7.03-5.87-1.8-7.96-6.01-6.04-12.63,3.34-11.5,7.56-22.8,9.96-34.48,2.53-12.3,4.06-24.91,4.72-37.45.65-12.34-4.5-19.35-14.13-21.78-7.31-1.85-14.5-.81-20.2,4.17-2.42,2.12-4.72,6.33-4.37,9.28,1.25,10.82,3.58,21.53,5.63,32.25.46,2.44,1.65,4.74,2.09,7.18.77,4.23-1.67,8.06-5.64,9.38-4.35,1.45-8.97.04-10.52-4.13-6.01-16.15-10.55-32.7-9.03-50.15,1.18-13.61,11.04-19.88,22.57-23.82,16.67-5.69,33.45-1.19,43.53,11.13,5.27,6.44,7.71,15.7,7.71,34.94Z"/><path d="M561.56,712.56c-17.94,2.01-34.39,7.52-50.75,13.09-11.16,3.8-21.93,8.69-32.91,13.02-7.13,2.81-13.67-1.14-12.56-7.89.42-2.53,2.54-5.87,4.76-6.84,27.32-11.94,55.02-22.84,84.97-26.23,5.24-.59,10.63-.56,15.89-.09,14.09,1.25,22.07,10.11,26.06,22.78,5.02,15.92,1.58,30.12-10.08,42.22-5.42,5.63-12.28,7.72-19.81,8.08-12.59.6-24.23-3.73-36-7.22-4.33-1.28-6.22-5.98-4.96-10.16,1.33-4.41,5.25-6.66,10.28-5.51,7.61,1.73,15.09,4.06,22.75,5.48,10.66,1.97,16.73-.9,20.54-8.8,4.32-8.93,3.22-21.61-3.68-26.82-3.9-2.95-9.62-3.49-14.52-5.12Z"/><path d="M3.87,666.66c1.37-2.12,2.32-4.76,4.18-6.27,25.93-21,54.96-33.59,88.91-34.6,37.86-1.12,70.17,12.38,99.41,35.03,6.45,4.99,5.54,12.71-1.96,15.73-2.07.83-5.52-.02-7.6-1.3-7.07-4.36-13.53-9.73-20.71-13.87-48.91-28.18-100.53-24.28-144.92,10.62-2.03,1.6-4.42,3.22-6.87,3.7-5.61,1.1-9.71-2.81-10.46-9.05Z"/><path d="M2669.5,557.94c1.18-27.03,9.86-45.34,30.9-56.5,3.71-1.96,7.16-2.05,10.91-.13,18.65,9.56,26.55,25.84,28.32,45.73.94,10.6-.49,20.98-5.43,30.59-6.04,11.74-15.22,19.9-28.8,19.94-13.8.04-24.25-7.41-30.04-19.72-3.45-7.34-4.68-15.73-5.86-19.92ZM2723.35,554.86c-.42-15.96-4.16-26.9-14.11-35.2-2.31-1.92-4.07-2.01-6.51-.14-9.23,7.1-14.08,16.61-15.81,27.89-1.3,8.43-.43,16.59,3.9,24.11,3.21,5.57,8,9.13,14.54,8.94,6.43-.19,11.07-4.11,13.34-9.8,2.42-6.08,3.74-12.6,4.65-15.79Z"/><path d="M1674.83,299.52c-.66,4.9-.8,9.57-1.98,13.97-4.55,17.02-18.49,27.98-33.22,25.92-23.41-3.27-39.68-16.53-35.25-44.43.88-5.58,2.17-11.1,3.49-16.6,1.25-5.19,4.98-7.43,10.09-6.42,4.34.86,6.94,4.89,6.15,9.85-1.07,6.73-2.88,13.39-3.29,20.15-.69,11.31,5.75,18.41,17.05,20,8.53,1.2,14.95-2.59,18.09-10.65,2.55-6.55,1.83-13.01-.27-19.51-1.54-4.73-3.72-9.68,1.23-13.78,4.69-3.88,9.06-1.04,13.44.94,19.71,8.88,39.44,17.74,59.15,26.63,5.67,2.56,8.11,6.74,6.34,10.65-2.54,5.61-7.14,7.28-13.2,4.58-14.43-6.44-28.81-12.98-43.23-19.46-1.48-.66-3.01-1.2-4.6-1.83Z"/><path d="M1900.77,326.83c9.46-8.66,18.42-16.86,27.18-24.89-7.49-7.25-14.37-13.91-21.65-20.95-1.84,1.75-4.66,4.43-7.74,7.36,3.26,2.84,6.31,5.38,9.22,8.06,3.98,3.68,4.43,8.29,1.32,11.94-3.06,3.58-7.95,4.07-12.07.76-5.7-4.59-11.26-9.37-16.69-14.27-3.62-3.27-3.77-8.44-.23-12.01,7.04-7.08,14.23-14.02,21.54-20.82,3.51-3.26,8.31-3.09,11.71.29,10.86,10.8,21.65,21.67,32.35,32.64,4.16,4.27,4.26,7.4.12,11.72-12.44,12.98-24.98,25.87-37.66,38.61-4.71,4.73-8.02,4.59-12.85-.15-10.92-10.74-21.73-21.6-32.51-32.49-3.97-4.01-4.12-9.51-.62-12.85,3.3-3.16,8.72-2.86,12.53.92,8.97,8.9,17.85,17.9,26.06,26.15Z"/><path d="M306.7,129.75c-9.31,8.9-18.18,17.39-27.33,26.14,6.81,7.27,13.38,14.28,20.22,21.58,3-2.71,5.81-5.24,8.96-8.1-2.96-2.78-5.74-5.34-8.45-7.97-4.08-3.96-4.58-9.22-1.29-12.82,3.19-3.49,8.26-3.42,12.46.37,5.07,4.57,10.09,9.19,15.01,13.92,4.5,4.33,4.39,9.1-.28,13.37-6.64,6.06-13.31,12.09-20.1,17.98-5.5,4.77-9.28,4.57-14.26-.68-9.73-10.27-19.4-20.61-29.01-30.98-4.8-5.18-4.66-9.35.42-14.23,12.24-11.76,24.52-23.5,36.84-35.18,5.29-5.02,9.59-4.81,14.53.45,10.14,10.81,20.28,21.6,30.39,32.43,4.47,4.79,4.7,8.91.82,12.63-3.75,3.59-8.93,3.19-13.15-1.27-8.56-9.06-17.02-18.23-25.78-27.64Z"/><path d="M1741.99,523.82c8.44-.76,16.7-2.75,24.7-2,22.63,2.13,31.83,25.56,27.03,44.5-3.84,15.14-14.64,21.88-28.36,25.6-4.97,1.35-10.08,2.18-15.16,3.09-5.42.97-9.89-1.65-10.9-6.19-1.09-4.94,1.86-8.83,7.7-10.19,6.31-1.47,12.82-2.39,18.86-4.61,11.81-4.33,16.04-18.71,9.12-29.31-5.27-8.08-18.88-9.07-28.18-2-2.65,2.01-4.92,4.76-7.86,6.08-2.76,1.25-6.41,2-9.24,1.28-3.69-.93-4.81-4.62-4.75-8.46.37-23.3.64-46.61,1.03-69.91.09-5.66,3.48-8.98,8.6-8.81,4.86.16,7.97,3.48,7.93,8.95-.11,16.31-.35,32.63-.54,48.94-.02,1.45,0,2.9,0,3.03Z"/><path d="M2706.09,607.31c9.09,0,16.33,3.84,22.14,10.68,20.28,23.9,12.7,67.9-14.3,83.77-5.48,3.22-10.34,3.28-15.89.18-26.86-15.03-37.21-53.99-20.91-79.09,6.84-10.54,16.56-15.48,28.95-15.55ZM2705.65,686.68c16.93-9.45,22.97-37.26,11.89-54.75-6.87-10.84-20.25-10.51-26.8.66-10.21,17.44-2.85,44.14,14.91,54.09Z"/><path d="M2261.26,729.08c0-17.87-.02-35.32.01-52.78.01-5.81,2.6-9.17,7.23-9.62,5.34-.52,9.26,2.54,9.36,7.92.44,23.79.87,47.59.82,71.39,0,2.69-2.4,6.49-4.77,7.74-2.16,1.15-6.04.13-8.69-1.02-2.64-1.14-4.72-3.62-7.02-5.54-5.76-4.8-12.43-6.23-19.65-4.99-5.29.91-9.16,3.99-10.97,9.12-3.78,10.75-2.19,23.55,13.51,27.61,5.31,1.38,10.75,2.23,16.1,3.45,5.78,1.32,8.61,5.54,7.19,10.46-1.52,5.26-6.47,7.43-12.07,5.79-6.05-1.77-12.3-2.88-18.36-4.62-27.47-7.9-29.09-37.42-19.65-53.97,7.61-13.34,25.54-18.64,42.32-12.73,1.54.54,3.06,1.17,4.63,1.77Z"/><path d="M904.4,518.79c-29.02-.47-55.13-9.71-79.9-23.46-5.38-2.99-10.63-6.21-15.81-9.54-4.83-3.11-5.99-7.69-3.37-11.93,2.66-4.3,7.65-5.18,12.64-1.93,14.57,9.47,29.92,17.31,46.35,23.04,36.79,12.84,71.42,7.35,104.42-12.09,5.87-3.46,11.41-7.46,17.13-11.18,4.31-2.8,9.27-2.08,11.99,1.68,2.91,4.03,2.32,8.49-2.13,11.76-27.28,20.05-57.06,33.38-91.31,33.64Z"/><path d="M2898.49,580.48c28.48,0,56.95,0,85.43,0,1.33,0,2.67-.07,4,.03,4.76.34,8.4,3.89,8.47,8.21.06,3.74-4.11,8.38-8.11,8.94-.98.14-2,.04-2.99.04-57.78,0-115.57,0-173.35,0-6.51,0-9.91-2.59-10.08-7.61-.25-7.32,1.84-9.58,9.22-9.58,29.14-.03,58.28-.01,87.42-.01Z"/><path d="M1500.99,25.5c-29.16,0-58.33.01-87.49-.01-5.77,0-9.19-2.54-9.84-7.1-.74-5.15,1.89-8.75,7.07-9.51,1.8-.26,3.65-.34,5.47-.34,56.66-.02,113.32-.02,169.99,0,1.82,0,3.65.16,5.47.35,4.79.49,6.81,4.03,7.7,8,.71,3.14-4.08,7.94-7.88,8.51-1.47.22-2.99.1-4.49.1-28.66,0-57.33,0-85.99,0Z"/><path d="M2504.08,264.16c6.27,1.46,12.85,2.14,18.75,4.52,20.39,8.19,28.08,36.53,15.05,54.4-1.54,2.11-3.53,4.1-5.72,5.5-16.14,10.36-40.14,11.34-56.76.25-3.58-2.39-6.87-6.01-8.88-9.82-12.04-22.84,1-48.78,26.41-53.04,3.6-.6,7.26-.79,10.9-1.18.08-.21.17-.42.25-.63ZM2504.06,282.28l-.37-1.45c-5.46,1.64-11.33,2.52-16.3,5.11-7.72,4.02-8.67,11.56-7.61,19.48.97,7.2,5.28,11.14,12.16,12.75,8.28,1.94,16.61,2.15,24.6-.69,3.17-1.13,6.78-3.57,8.28-6.42,6.7-12.66-.32-26.33-14.33-28.73-2.09-.36-4.3-.05-6.45-.05Z"/><path d="M356.78,503.48c.13,5.09-3.8,10.01-8.23,10.3-4.65.3-8.38-3.74-8.68-9.47-.87-16.69-9.4-28.58-24.36-34.8-14.07-5.85-28.85-10.05-43.43-14.63-11.59-3.64-23.44-6.47-35-10.21-10.1-3.27-19.45-8.31-25.91-17.02-2.98-4.02-4.94-9-6.47-13.82-1.31-4.12,1.57-8.28,5.37-9.46,4.02-1.24,8.67.32,10.07,4.3,4.37,12.45,14.47,17.87,25.91,21.29,17.86,5.34,35.96,9.86,53.82,15.21,14.72,4.41,28.98,9.97,40.49,20.82,10.81,10.19,15.34,23.07,16.42,37.49Z"/><path d="M1846.82,499.84c.67-16.58,8.56-30.52,23.26-40.61,14.53-9.98,31.26-14.53,47.93-19.2,13.61-3.81,27.26-7.52,40.8-11.55,7.59-2.26,14.56-5.93,19.59-12.27,1.92-2.42,2.98-5.51,4.44-8.3,2.15-4.12,6.31-5.78,10.49-4.19,4.12,1.57,6.05,5.96,4.96,10.36-3.11,12.61-11.75,20.82-22.97,25.32-14.45,5.8-29.54,10.08-44.51,14.47-16.11,4.72-32.59,8.31-47.36,16.76-12.46,7.14-19.58,17.68-20.3,32.26-.3,6.11-3.56,9.82-8.3,9.75-4.99-.08-8.09-4.1-8.06-10.46,0-.33,0-.67,0-2.34Z"/><path d="M2706.38,101.62c0,28.48.1,56.96-.15,85.43-.03,2.97-1.5,6.45-3.44,8.72-1.32,1.54-5.21,2.55-6.92,1.71-2.48-1.22-4.13-4.25-5.9-6.68-.49-.67-.17-1.95-.17-2.94,0-57.79-.01-115.58,0-173.37,0-6.32,2.5-9.47,7.52-9.72,5.56-.29,9.01,3.21,9.04,9.42.06,13.49.02,26.98.02,40.47,0,15.65,0,31.31,0,46.96Z"/><path d="M723.07,43.73c-2.04-9.57-3.89-19.18-6.18-28.69-1.45-6.02-.04-10.6,4.48-12.05,5.44-1.75,10.12.73,11.48,7.08,2.47,11.5,5.36,23.06,6.2,34.72,1.07,15.05-4.71,27.34-19.41,33.94-15.21,6.83-29.44,4.91-42.86-4.7-9.82-7.03-12.34-17.38-11.41-28.28,1.07-12.54,3.55-24.99,5.85-37.39.79-4.29,4.33-6.09,8.74-5.72,4.28.36,6.94,2.89,7.18,6.96.22,3.58-.55,7.24-1.11,10.83-1.23,7.87-3.22,15.68-3.79,23.59-1.02,14.28,6.06,21.74,19.6,21.76,13.68.01,20.9-7.73,21.23-22.04Z"/><path d="M717.44,487.33c-.5,0-1,0-1.5,0-14.23-.31-18.24-3.96-18.28-18.19-.05-22.02,9.85-38.89,28.75-49.79,19.27-11.12,41.5-.28,42.87,20.87.39,6.11-1.42,13.17-4.46,18.53-10.28,18.16-26.69,27.18-47.39,28.58ZM714.38,469.98c13.44,2.74,32.73-9.21,37.51-22.86,1.75-5,.67-9.22-3.02-12.74-3.62-3.45-7.85-3.08-12.1-1.27-13.15,5.57-23.25,22.07-22.39,36.87Z"/><path d="M655.88,222.7c9.94.08,18.79,5.74,26.72,13.21,10.79,10.16,16.83,22.95,17.6,37.52.74,13.88-5.93,19.55-20.99,16.25-14.2-3.11-26.5-9.9-36.41-20.52-3.57-3.83-6.75-8.34-8.93-13.08-7.77-16.84,2.06-32.51,22.01-33.37ZM682.57,273.31c.77-13.26-12.43-30.64-25.31-33.31-2.42-.5-6.43.01-7.54,1.59-1.34,1.9-1.45,6.03-.25,8.16,7.24,12.94,18.97,19.83,33.1,23.56Z"/><path d="M1273.55,642.13c-1.5,2.7-2.39,5.47-4.19,7.36-8.07,8.4-16.35,16.61-24.68,24.76-5.02,4.92-9.9,4.9-14.78-.07-8.62-8.78-17.13-17.67-25.63-26.57-3.56-3.72-3.74-9.29-.2-13.03,8.79-9.31,17.67-18.54,26.66-27.66,4.09-4.15,9.6-3.78,13.56.53,8.55,9.29,17.18,18.51,25.61,27.91,1.54,1.72,2.27,4.15,3.66,6.77ZM1237.02,625.66c-5.06,5.33-9.7,10.23-14.82,15.62,5.32,4.85,10.44,9.5,14.9,13.57,4.38-4.24,9.2-8.9,14.18-13.72-4.47-4.86-9.17-9.95-14.26-15.47Z"/><path d="M546.41,312.74c19.11.25,38.05,14.29,42.69,31.14,3.3,12-1.13,21.38-9.67,28.95-8.45,7.49-18.64,7.75-28.59,3.41-15.38-6.71-23.83-19.09-26.91-35.36-.25-1.3-.52-2.62-.57-3.94-.64-16.85,2.24-23,23.05-24.21ZM549.33,329.57c-9.58-.07-10.33.56-9.12,7.71,1.78,10.59,7.06,18.85,17.18,23.37,4.38,1.96,8.67,2.21,12.38-1.6,3.7-3.81,4.65-8.88,2.02-13.72-5.34-9.83-14.16-14.38-22.47-15.76Z"/><path d="M1240.25,397.2c-2.39-1.41-4.85-2.26-6.49-3.92-8.78-8.87-17.4-17.89-25.97-26.97-3.92-4.15-3.81-8.52.2-12.8,8.54-9.1,17.14-18.15,25.8-27.13,4.08-4.23,9.06-4.19,13.06.07,8.76,9.35,17.49,18.73,26.12,28.2,4.23,4.64,4.19,8.5-.25,13.05-8.49,8.69-17.08,17.29-25.8,25.74-1.68,1.63-4.19,2.4-6.66,3.76ZM1255.35,360.24c-4.87-5.24-9.9-10.66-15.13-16.29-5.19,5.44-10.08,10.55-15.19,15.9,5.24,5.48,10.26,10.72,14.92,15.59,5.16-5.1,10.2-10.07,15.4-15.2Z"/><path d="M1400.53,560.69c-1.46,2.46-2.33,4.89-3.97,6.56-8.49,8.68-17.1,17.25-25.84,25.68-4.96,4.79-8.48,4.66-13.28-.25-8.6-8.8-17.12-17.69-25.58-26.63-4.2-4.44-4.07-8.57.21-13.1,8.45-8.95,16.92-17.87,25.43-26.77,4.21-4.4,9.34-4.36,13.45.09,8.58,9.29,17.17,18.56,25.62,27.96,1.58,1.76,2.53,4.08,3.97,6.47ZM1379.34,560.1c-4.92-5.33-9.95-10.77-15.24-16.5-5.27,5.52-10.24,10.73-15.69,16.45,5.66,5.27,10.96,10.21,15.95,14.86,4.88-4.82,9.81-9.7,14.98-14.81Z"/><path d="M1477.86,647.74c-24.44-1.62-45.13-9.11-64.2-21.38-2.1-1.35-4.22-2.67-6.23-4.15-4.08-3.01-5.07-7.87-2.52-11.82,2.45-3.79,7.49-4.64,11.95-2.05,7.04,4.08,13.87,8.61,21.19,12.12,31.41,15.07,60.9,11.49,88.36-9.82,1.8-1.4,3.79-2.87,5.93-3.46,3.91-1.08,7.29.23,9.26,4,2.05,3.93,1.16,7.57-2.08,10.34-13.49,11.54-28.62,19.94-46.17,23.51-5.66,1.15-11.39,1.99-15.49,2.7Z"/><path d="M956.53,101.76c-11.19-1.99-21.54-3.58-31.78-5.73-5.48-1.15-8.03-6.85-5.29-11.76,6.66-11.96,13.83-23.71,24.6-32.46,3.87-3.14,8.89-5.09,13.66-6.83,5.06-1.85,10.18-.42,13.95,3.19,9.65,9.22,14.04,20.98,13.9,34.12-.08,6.98-4.08,12.47-10.87,14.79-6.05,2.06-12.4,3.24-18.16,4.7ZM939.93,80.88c.33.63.66,1.26.99,1.89,4.57.43,9.17,1.45,13.69,1.14,4.39-.3,10.45-.58,12.62-3.35,3.37-4.29-.57-9.67-2.77-14.29-.21-.45-.53-.84-.8-1.26-2-3.11-4.58-4.03-7.36-1.24-5.56,5.6-10.92,11.39-16.37,17.11Z"/><path d="M851.15,300.69c-5.91-1.58-12.3-2.73-18.23-5.04-6.79-2.65-10.36-8.31-10.29-15.7.11-11.4,4-21.61,11.25-30.29,6.51-7.8,15.51-8.88,25.15-2.58,5.34,3.49,10.22,8.1,14.25,13.07,5.53,6.83,10.27,14.33,14.94,21.81,3.78,6.06,1.52,11.73-5.4,13.19-10.22,2.15-20.59,3.64-31.65,5.55ZM867.46,282.28l.5-1.83c-3.05-3.91-5.73-8.19-9.25-11.62-3.17-3.09-7.26-5.24-10.95-7.8-2.51,4.33-5.02,8.67-7.53,13.01-.08.14-.07.32-.1.49-.78,4.3.48,7.51,5.25,7.69,7.35.27,14.72.07,22.08.07Z"/><path d="M1401.48,39.78c-1.49,2.68-2.31,5.22-3.97,6.95-7.24,7.57-14.69,14.96-22.14,22.33-5.56,5.51-9.42,5.44-14.69-.21-7.6-8.15-15.16-16.34-22.66-24.58-4.4-4.83-4.31-9.03.35-13.46,8.08-7.68,16.23-15.28,24.42-22.84,4.02-3.71,9.11-3.52,12.78.46,7.34,7.94,14.69,15.87,21.83,23.99,1.7,1.93,2.57,4.58,4.07,7.37ZM1355.02,38.07c4.64,4.99,8.9,9.56,13.02,13.99,4.5-4.37,8.65-8.41,13.01-12.65-4.23-4.59-8.35-9.07-12.68-13.77-4.51,4.2-8.73,8.13-13.35,12.43Z"/><path d="M1141.87,730.4c0,1.66.09,3.34-.02,4.99-.32,4.83-3.79,8.24-8.3,8.23-4.58-.01-7.93-3.35-8.35-8.21-.64-7.45-.67-15.02-2.11-22.31-5.92-30.04-22.89-51.52-50.98-64.03-1.52-.68-3.09-1.25-4.58-1.98-4.67-2.28-6.54-6.8-4.67-11.14,1.86-4.32,6.39-6.05,11.32-4.13,30.86,12.06,52.16,33.47,62.04,65.24,3.33,10.7,4.53,22.05,6.71,33.1l-1.07.22Z"/><path d="M1060.07,518.32c.7-15.1,2.96-29.85,10.19-43.36,12.35-23.09,31.84-36.49,57.33-41.48,1.62-.32,3.31-.37,4.97-.33,4.49.11,7.78,3.01,8.23,7.12.48,4.35-2.21,8.23-6.59,9.26-2.1.49-4.29.59-6.4,1.04-26.32,5.64-45.96,27.42-49.74,55.34-.73,5.43-1.02,10.93-1.29,16.4-.28,5.61-3.79,9.95-8.35,9.93-4.69-.02-8.26-4.25-8.35-9.93-.02-1.33,0-2.66,0-3.99Z"/><path d="M197.82,351.61c-1.96,19-10.89,36.62-32.12,41.98-9.29,2.35-18.93,3.37-28.46,4.66-2.12.29-4.6-.43-6.62-1.34-3.98-1.78-5.64-5.16-4.58-9.43.99-4.01,3.82-5.83,7.96-6.33,9.38-1.14,18.96-1.7,28.03-4.11,15.18-4.04,22.65-21.72,15.96-35.68-2.77-5.77-5.37-7.22-11.73-6.52-5.01.55-8.52-1.82-9.68-6.55-.99-4.05,1.27-8.09,5.87-9.61,8.02-2.64,15.41-1.29,21.98,4.15,9.3,7.69,11.86,18.41,13.4,28.76Z"/><path d="M2263.03,490.01c-8.52-1.38-17.18-2.23-25.55-4.25-26.64-6.42-40.31-37.25-27.53-61.42,5.93-11.21,16.19-16.73,27.42-14.76,6.09,1.07,9.51,5.07,8.63,10.11-.88,5.06-4.75,7.56-10.91,6.52-4.83-.81-7.55,1.73-9.77,5.3-7.71,12.39-1.7,31.44,12.44,36.3,8.51,2.93,17.82,3.71,26.85,4.9,7.82,1.03,11.46,3.68,10.93,9.2-.53,5.47-4.74,8.02-12.49,8.11Z"/><path d="M2261.04,113.71c1.83,0,3.66-.07,5.49.01,4.66.21,7.95,3.35,8.18,7.72.23,4.45-3.14,8.08-7.85,8.68-8.72,1.1-17.62,1.53-26.11,3.6-15.85,3.88-24.02,21.49-17.35,35.84,2.81,6.04,5.53,7.61,12.07,6.95,4.89-.49,8.48,1.79,9.51,6.04,1.05,4.37-1.39,8.54-5.95,10.13-10.88,3.81-22.7-1.52-29.21-12.89-13.05-22.8-2.25-58.16,31.91-63.76,6.39-1.05,12.84-1.72,19.27-2.56.01.08.02.15.04.23Z"/><path d="M1177.5,294.71c-1.03,27.53-19.49,39.72-38.06,42.92-4.54.78-8.57-2.63-9.32-7.12-.72-4.32,1.82-8.07,6.29-9.46,3.79-1.18,7.71-2.11,11.29-3.78,9.02-4.21,13.6-12.68,12.52-22.32-.9-8.06-6.41-13.55-16.18-16.04-2.73-.7-5.58-.99-8.26-1.85-4.19-1.35-6.14-4.49-5.66-8.83.48-4.38,3.15-6.95,7.53-7.3,13.36-1.06,30.97,9.15,36.32,21.47,2.01,4.64,2.83,9.79,3.53,12.31Z"/><path d="M541.71,99.35c-.05,5.4-2.94,8.97-6.9,9.54-4.49.64-8.26-1.76-9.6-6.1-5.08-16.51-15.92-22.76-32.65-18.79-8.19,1.94-13.35,7.48-14.62,15.69-1.05,6.73-4.94,10.14-10.5,9.17-4.8-.83-7.25-5.51-6.18-11.78,3.19-18.54,16.47-29.98,35.24-30.44,9.4-.23,18.67.13,26.98,5.34,10.51,6.59,16.42,16.16,18.22,27.36Z"/><path d="M1660.85,704.01c.36-.73.96-3.08,2.41-4.65,8.67-9.4,17.54-18.62,26.34-27.91,2.63-2.77,5.19-5.61,7.88-8.32,4.1-4.13,9.7-4.54,13.29-1.06,3.85,3.73,3.86,8.78-.31,13.24-7.38,7.89-14.91,15.63-22.4,23.41-4.38,4.55-8.5,9.43-13.37,13.38-2.01,1.63-5.91,2.13-8.55,1.5-3.95-.95-5.29-3.9-5.29-9.59Z"/><path d="M285.74,389.51c1.69-3.15,2.39-5.46,3.87-7.04,11.44-12.29,22.97-24.5,34.61-36.6,4.68-4.86,10.44-3.8,14.13,1.86,2.11,3.24,1.11,5.97-.91,8.14-12.22,13.14-24.58,26.16-37.06,39.05-2.04,2.1-4.98,3.83-7.97,1.26-2.32-1.99-4.35-4.32-6.67-6.67Z"/></svg>