<?xml version="1.0" encoding="UTF-8"?><svg id="a" xmlns="http://www.w3.org/2000/svg" viewBox="0 0 3000 801"><path d="M1664,801c.85-2.93,1.61-5.89,2.61-8.77.42-1.22,1.43-2.22,2.05-3.39,8.57-16.13,17.13-32.27,25.67-48.41,1.22-2.31,2.04-4.91,3.64-6.91,1-1.25,3.65-2.65,4.6-2.16,1.92,1,3.39,3.11,4.64,5.03.94,1.44,1.04,3.4,1.85,4.95,9.62,18.2,19.36,36.34,28.85,54.61.62,1.2-.57,3.35-.92,5.05h-73ZM1701.43,747.54c-8.28,15.62-15.9,30-23.69,44.71h47.42c-7.93-14.93-15.52-29.23-23.74-44.71Z"/><path d="M1233,801c-.36-.53-.62-1.39-1.1-1.54-11.87-3.79-20.11-11.44-24.63-23.78,2.55-1.24,5.44-2.64,8.84-4.3,4.96,12.82,14.09,19.23,27.5,19.7,13.99.49,22.27-7.07,27.74-19.65,2.98,1.43,5.74,2.75,8.81,4.22-4.19,10.35-10.54,18.21-20.83,22.55-1.56.66-2.89,1.85-4.33,2.8h-22Z"/><path d="M1352,801c-1.53-.89-2.98-2-4.61-2.63-10.58-4.07-17.78-11.38-21.8-22.71,2.65-1.31,5.38-2.65,8.71-4.29,5.02,12.93,14.33,19.44,27.92,19.68,13.83.25,22.11-7.56,27.91-19.6,3.01,1.66,5.68,3.13,8.42,4.64-4.88,10.82-11.75,18.98-22.86,22.94-1,.36-1.8,1.3-2.69,1.96h-21Z"/><path d="M1368.64,194.63c-3.27.71-6.02,1.3-9.59,2.07-8.86-52.44-17.69-104.66-26.52-156.88l-1.03-.08c-1.75,7.62-3.54,15.23-5.26,22.86-9.45,42.08-18.83,84.17-28.44,126.22-.54,2.38-2.49,5.67-4.46,6.24-4.37,1.28-5.34-2.66-6.1-6.02-4.71-20.95-9.42-41.91-14.12-62.87-6.35-28.27-12.69-56.54-19.04-84.81-.28-1.25-.69-2.48-1.89-3.74-10.76,52.99-21.52,105.98-32.34,159.3-3.34-.86-6.19-1.6-9.71-2.5,1.89-9.35,3.75-18.57,5.62-27.79,10.37-51.08,20.71-102.16,31.17-153.21.44-2.14,1.41-4.67,3-5.97,2.83-2.32,6.28-.2,7.35,4.4,3.3,14.28,6.48,28.59,9.69,42.89,8.09,36.07,16.17,72.14,24.26,108.2.21.95.59,1.87,1.17,3.68.72-1.73,1.26-2.65,1.48-3.64,11.12-49.55,22.22-99.11,33.33-148.67.18-.81.19-1.82.68-2.38,1.57-1.79,3.11-4.5,5.05-4.88,3.41-.66,4.6,2.37,5.11,5.42,1.53,9.2,3.15,18.39,4.7,27.58,8.41,49.92,16.82,99.84,25.22,149.76.25,1.46.41,2.94.66,4.81Z"/><path d="M816.46,383.06c10.83-10.6,20.66-20.21,30.48-29.82,45.84-44.87,91.68-89.74,137.52-134.61,2.14-2.09,4.15-4.39,6.56-6.12,1.44-1.04,3.81-1.98,5.25-1.49,1.47.5,2.78,2.67,3.33,4.38.59,1.82.27,3.96.27,5.95,0,56.49,0,112.99,0,169.48q0,9.36-9.95,7.95v-171.09c-1.56,1.14-2.47,1.65-3.19,2.36-30.98,30.28-61.93,60.59-92.9,90.87-25.61,25.04-51.21,50.1-76.96,74.99-1.76,1.7-4.8,2.08-7.25,3.08-.98-2.43-2.8-4.87-2.8-7.3-.16-58.66-.12-117.32-.12-175.98v-4.86h9.76v172.21Z"/><path d="M19.03,26.35v170.07c-.99.29-1.44.51-1.91.54q-7.91.53-7.91-7.47c0-57.83,0-115.65.03-173.48,0-1.96.05-4.1.81-5.83,1.4-3.15,5.2-3.08,8.28-.05,10.79,10.65,21.57,21.31,32.33,32,44.9,44.65,89.79,89.3,134.69,133.95,1.03,1.03,2.16,1.96,4.17,3.78V8.11h9.6c.09,1.76.25,3.51.25,5.26.01,58.49.01,116.99.01,175.48,0,.33.11.72-.02.99-1.02,2.25-1.56,5.34-3.32,6.41-1.21.74-4.54-.84-6.21-2.23-3.82-3.2-7.22-6.9-10.76-10.43-45.14-44.88-90.3-89.74-135.38-134.67-7.76-7.74-15.19-15.81-22.77-23.73-.63.38-1.26.77-1.89,1.15Z"/><path d="M2401.26,495.27c-2.7-46.49,40.54-95.74,96.19-94.29,50.33,1.31,92.65,43.24,92.63,94.37-.02,52.97-42.85,95.32-96.72,94.9-54-.42-95-49.26-92.1-94.99ZM2410.76,495.45c.02,46.98,37.26,84.79,83.52,84.8,48.56.01,85.5-36.96,85.91-85.14.39-45.78-39.3-85.55-86.25-84.29-46.42,1.25-83.2,37.55-83.18,84.62Z"/><path d="M1305.51,399.73c-28.33,0-56.67,0-85,0-6.27,0-8.11-1.74-8.12-7.9-.02-38.67-.05-77.33.09-116,0-2.21.98-5.73,2.44-6.31,1.94-.77,5.26.05,7.19,1.36,58.09,39.3,116.1,78.71,174.01,118.27,1.8,1.23,3.9,5.22,3.28,6.12-1.45,2.08-4.48,4.26-6.89,4.29-29,.29-58,.18-87,.18ZM1376.77,389.18c.23-.4.46-.8.69-1.19-51.54-35.04-103.08-70.07-155.16-105.48v106.67h154.48Z"/><path d="M504,467.97c28.5,0,57-.01,85.5,0,8.71,0,10.43,1.76,10.43,10.45,0,36.17-.11,72.33.15,108.5.03,4.22-1.68,7-4.74,8.26-1.81.74-5.04-.61-7.04-1.92-57.54-37.68-115.01-75.47-172.45-113.3-2.99-1.97-7.69-3.38-6.18-8.37,1.52-5.01,6.24-3.55,9.84-3.56,28.17-.1,56.33-.05,84.5-.05ZM588.13,581.46v-103.15h-157c52.97,34.8,104.67,68.77,157,103.15Z"/><path d="M2130.31,214.82c12,0,24-.02,36,0,7.49.02,9,2.03,6.97,9.05-16.5,56.78-33.03,113.55-49.43,170.36-1.33,4.61-3.24,6.68-8.57,6.6-23.49-.35-47-.15-70.49-.15-6.68,0-7.89-1.58-6.08-8.18,14.12-51.4,28.26-102.79,42.39-154.19,1.63-5.94,3.43-11.85,4.85-17.84.97-4.08,3.12-5.78,7.36-5.72,12.33.17,24.66.06,37,.06ZM2162.86,224.68c-21.58,0-42.22.1-62.85-.09-3.86-.04-5.38,1.1-6.42,4.89-14.26,52.38-28.72,104.7-43.11,157.04-.37,1.34-.49,2.74-.79,4.52,20.24,0,39.88-.13,59.52.11,4.08.05,5.73-1.13,6.85-5.07,11.38-39.69,22.98-79.32,34.51-118.98,4.04-13.89,8.05-27.78,12.29-42.43Z"/><path d="M1272.57,409.13c11.5,0,22.99.1,34.49-.05,4.39-.06,6.59,1.71,7.75,5.98,15.2,55.75,30.52,111.46,45.81,167.18,1.46,5.34-.48,8.04-5.98,8.05-22.83.05-45.65-.05-68.48.07-4.76.03-6.25-2.78-7.35-6.59-7.89-27.53-15.84-55.05-23.78-82.57-7.89-27.35-15.79-54.7-23.71-82.05-2.42-8.35-1.18-10.01,7.76-10.02,11.16-.02,22.33,0,33.49,0ZM1241.41,419.1c2.29,7.86,4.39,15.01,6.45,22.18,12.9,44.77,25.82,89.53,38.59,134.34,1.01,3.55,2.57,4.64,6.19,4.56,11.32-.24,22.65-.09,33.97-.09,7.63,0,15.26,0,23.41,0-14.86-54.09-29.56-107.59-44.23-160.99h-64.39Z"/><path d="M1071.24,300.09c19.85,0,37.04,16.79,36.74,36.35-.35,23.03-18.31,37.93-37.21,37.85-18.07-.08-36.37-14.24-36.58-37.8-.18-20.34,18.05-37.75,37.06-36.4Z"/><path d="M939.45,796.72h-9.44v-175.82h-56.13v175.69h-9.84c-.07-1.57-.22-3.31-.22-5.06-.01-57.5-.01-114.99,0-172.49,0-7.74.58-8.38,8.14-8.4,20-.04,40-.04,60,0,6.82.01,7.81,1.03,7.82,7.87.02,57.83.01,115.66,0,173.49,0,1.47-.19,2.94-.32,4.73Z"/><path d="M338.81,497.64c19.74-.86,36.92,15.42,36.97,36.02.05,22.9-17.84,37.31-36.85,37.69-19.85.4-36.81-17.24-36.79-37.54.02-20.2,16.21-36.17,36.67-36.16Z"/><path d="M1505.5,285.73c-28.15,0-56.31-.05-84.46.05-3.76.01-7.23-.36-8.65-4.22-1.42-3.87,1.89-5.63,4.4-7.5,27.9-20.81,55.87-41.53,83.69-62.46,3.82-2.88,6.65-3.13,10.56-.13,28.16,21.57,56.48,42.93,84.7,64.43,1.58,1.2,2.72,2.97,4.07,4.47-2.45,1.78-4.81,3.7-7.4,5.26-.86.52-2.28.09-3.45.09-27.82,0-55.64,0-83.46,0ZM1576.85,275.04c.14-.35.27-.69.4-1.04-23.67-17.94-47.34-35.88-71.16-53.93-24.35,18.15-48.45,36.12-72.55,54.08.21.3.41.59.62.89h142.69Z"/><path d="M2499.72,633.95c41.9-.49,70.84,32.87,70.45,70.01-.41,39.13-28.8,70.41-71.95,70.4-33.98-.01-67.83-27.18-68.35-70.42-.47-39.81,33.44-71.61,69.84-69.99ZM2500,643.69c-33.25-1.86-60.69,28.07-60.41,59.27.31,34,26.1,60.25,58.76,61.41,29.66,1.06,61.8-23.79,61.78-61.03-.02-32.05-27.46-61.29-60.13-59.66Z"/><path d="M2741.87,399.96c-9.37,1.97-9.72,1.78-12.96-6.24-9.35-23.14-18.71-46.28-28.43-70.32-.84,1.85-1.42,2.9-1.82,4.01-7.88,21.94-15.75,43.89-23.61,65.84q-2.91,8.13-12.75,6.95c.51-1.76.9-3.44,1.48-5.06,9.73-27.29,19.57-54.54,29.1-81.9.92-2.65.8-6.27-.24-8.89-11.09-28.03-22.45-55.94-33.74-83.89-.43-1.05-.84-2.11-1.46-3.68,2.91-1.28,5.57-2.45,8.92-3.92,10.96,27.09,21.85,53.98,33.22,82.09,10.03-27.98,19.61-54.73,29.41-82.08,3.11,1.17,5.97,2.25,9.19,3.47-.57,1.79-1,3.34-1.54,4.86-9.98,27.91-20.04,55.8-29.85,83.77-.83,2.37-.75,5.61.17,7.94,11.11,28.02,22.45,55.94,33.73,83.88.37.92.7,1.85,1.19,3.15Z"/><path d="M1994.76,265.02c.99,3.34,1.82,6.15,2.78,9.38-24.76,7.78-49.12,15.44-73.47,23.1-.03.35-.06.7-.1,1.05,24.3,7.58,48.59,15.17,73.5,22.94-.89,3.15-1.72,6.07-2.7,9.5-9.54-2.96-18.71-5.78-27.87-8.63-19.07-5.93-38.1-11.96-57.22-17.71-2.5-.75-5.63-.79-8.12-.03-26.9,8.18-53.73,16.59-80.59,24.92-1.41.44-2.85.81-4.72,1.34-1-3.07-1.96-6-3.04-9.34,24.84-7.73,49.26-15.32,73.67-22.92.07-.36.14-.71.21-1.07-24.42-7.67-48.84-15.33-73.81-23.17,1-3.2,1.91-6.12,2.95-9.44,9.54,2.98,18.7,5.85,27.86,8.71,19.22,6.01,38.42,12.08,57.69,17.92,2.34.71,5.28.73,7.61,0,27.03-8.34,54-16.88,80.98-25.35,1.26-.39,2.54-.7,4.39-1.2Z"/><path d="M1014.68,73.64c-1.02-3.34-1.94-6.32-3.03-9.87,24.66-7.63,49.11-15.21,73.57-22.78.04-.51.08-1.02.12-1.53-24.39-7.61-48.79-15.21-73.65-22.97.94-3.1,1.84-6.02,2.83-9.28,14.62,4.5,28.91,8.86,43.18,13.3,14.98,4.65,29.92,9.39,44.91,14.01,1.1.34,2.49.25,3.61-.1,29.02-8.98,58.03-18.02,87.48-27.18.98,2.84,1.96,5.71,3.16,9.19-24.86,7.77-49.31,15.42-73.76,23.06-.04.45-.09.89-.13,1.34,24.48,7.62,48.96,15.24,73.81,22.97-1.13,3.59-2.11,6.68-2.97,9.42-10.12-3.22-20.08-6.47-30.09-9.56-18.57-5.74-37.15-11.45-55.77-17.03-2.1-.63-4.68-.92-6.71-.31-27.44,8.36-54.83,16.9-82.22,25.42-1.34.42-2.6,1.12-4.34,1.88Z"/><path d="M1010.93,599.37c-1.05-3.09-1.99-5.86-3.08-9.06,24.77-7.71,49.29-15.34,73.81-22.97.03-.39.06-.78.1-1.17-24.42-7.66-48.83-15.32-73.88-23.18,1.01-3.04,1.97-5.92,3.06-9.19,13.81,4.28,27.27,8.43,40.71,12.64,15.23,4.77,30.43,9.64,45.69,14.3,1.75.53,3.95.49,5.71-.06,28.09-8.74,56.15-17.6,84.22-26.42.45-.14.96-.09,1.89-.17,1.02,2.82,2.05,5.69,3.2,8.85-24.74,7.77-49.29,15.49-73.84,23.2-.06.38-.11.75-.17,1.13,24.58,7.68,49.15,15.35,73.9,23.08-1.05,3.07-1.99,5.85-3.11,9.14-6.41-1.95-12.58-3.79-18.72-5.7-22.06-6.88-44.09-13.85-66.2-20.57-2.5-.76-5.63-.76-8.13,0-26.72,8.12-53.37,16.46-80.05,24.74-1.55.48-3.13.88-5.11,1.42Z"/><path d="M2303,669.96h69.23v-51.76h10.14c.15,1.87.42,3.67.42,5.46.03,15.83.05,31.66,0,47.48-.02,7.9-1.93,9.8-9.58,9.8-50.32,0-100.63,0-150.95,0-6.5,0-9.2-2.69-9.2-9.16,0-16.16,0-32.32,0-48.48v-5.15h10.77v51.73h69.32v-49.7h9.85v49.79Z"/><path d="M2323.87,136.52c0,17.16.01,34.31,0,51.47,0,6.02-1.38,7.46-7.25,7.47-18.65.03-37.31.03-55.96,0-5.86,0-7.29-1.48-7.3-7.48-.02-34.64-.02-69.29,0-103.93,0-6.2,1.07-7.28,7.29-7.29,18.65-.04,37.31-.04,55.96,0,6.31.01,7.25,1,7.26,7.3.02,17.49,0,34.98,0,52.47ZM2263.74,86.88v97.95h49.96v-97.95h-49.96Z"/><path d="M975.08,143.6h-69.48v49.55h-9.9v-49.48h-69.61v51.89h-9.83c-.08-1.76-.21-3.38-.21-5-.02-15.99,0-31.98,0-47.97,0-8.66.53-9.18,9.43-9.2,7.99-.01,15.99,0,23.98,0,41.97,0,83.95,0,125.92,0,9.14,0,9.98.87,9.98,9.98,0,15.49,0,30.98,0,46.47v5.74h-10.28v-51.99Z"/><path d="M103.46,786.48c29.24-41.13,58.15-81.8,87.3-122.81,2.76,1.91,5.31,3.66,8.11,5.59-14.47,20.37-28.72,40.43-42.97,60.5-15.43,21.71-30.85,43.43-46.28,65.14-4.76,6.71-7.56,6.76-12.4.22-30.39-41.08-60.77-82.17-91.52-123.75,2.57-1.92,5.03-3.77,8.08-6.05,29.88,40.36,59.63,80.55,89.68,121.16Z"/><path d="M2647.66,195.46c-10.33,0-20.65.04-30.98-.01-6.08-.03-7.76-2.21-6.21-8.18,10.5-40.41,21.03-80.8,31.57-121.2.74-2.84,1.69-5.5,5.41-5.44,3.76.05,4.48,2.87,5.23,5.65,10.86,40.31,21.72,80.61,32.56,120.92,1.57,5.82-.19,8.21-6.11,8.24-10.49.06-20.98.02-31.48.02ZM2648.06,86.71c-.42-.02-.84-.03-1.27-.05-8.53,32.68-17.06,65.36-25.67,98.36h53.45c-8.9-33.02-17.71-65.67-26.51-98.32Z"/><path d="M297.86,361.94c-29.51,0-52.89-23.7-52.88-53.62,0-29.57,23.31-52.08,53.12-52.79,28.22-.67,53.21,24.15,53.11,53.03-.1,29.51-23.94,53.38-53.35,53.38ZM298.12,351.97c24.27,0,43.04-19.07,43.01-43.7-.03-24.03-18.77-42.78-42.81-42.83-24.74-.05-43.55,18.6-43.5,43.13.05,24.59,18.82,43.4,43.3,43.39Z"/><path d="M498.83,400.78c.55-2.73.83-4.65,1.32-6.53,10.33-39.82,20.63-79.65,31.18-119.41.59-2.23,3-5.06,5.07-5.58,3.8-.96,4.73,2.74,5.51,5.66,10.41,38.75,20.78,77.5,31.17,116.26.13.48.23.97.36,1.45.67,2.44,1.35,4.89,2.03,7.33-2.91.27-5.82.77-8.73.78-20.66.07-41.33.04-61.99.04-1.64,0-3.28,0-5.92,0ZM563.62,393.75c-8.96-33.35-17.75-66.11-26.55-98.87-.33.05-.67.09-1,.14-8.51,32.79-17.01,65.59-25.61,98.74h53.16Z"/><path d="M2076.36,702.98c0,9.82.03,19.65-.01,29.47-.03,5.59-1.93,7.48-7.41,7.49-19.15.01-38.3.01-57.45,0-5.58,0-9.18-3.53-9.18-9.04-.02-18.48-.01-36.97,0-55.45,0-6.8,2.35-9.26,9.24-9.29,17.15-.06,34.3.11,51.45-.06,15.48-.16,13.33,1.18,13.36,13.4.02,7.83,0,15.65,0,23.48ZM2014.12,676.39v52.55h52.17v-52.55h-52.17Z"/><path d="M2992.2,740.54c2.64,3.21,5.03,6.13,7.42,9.04-53.8,49.23-131.53,55.89-196.85.38,2.29-2.94,4.6-5.9,7.2-9.23,26.77,21.6,56.15,36.13,91.14,36.15,34.86.01,64.18-14.15,91.1-36.33Z"/><path d="M795.6,569.85c-56.52-47.58-126.55-48.55-182.21.35-2.4-2.92-4.79-5.83-8.03-9.79,9.25-6.44,17.97-13.32,27.43-18.95,36.63-21.8,75.48-25.34,115.79-12.28,17.71,5.74,33.58,15.28,48.3,26.64,5.06,3.9,4.71,7.55-1.28,14.02Z"/><path d="M2901.8,342.39c-9.82,0-19.64.07-29.45-.03-6.18-.06-7.32-1.26-7.33-7.32-.03-19.47-.03-38.94,0-58.4,0-6.36,1.12-7.48,7.66-7.5,19.3-.04,38.6-.04,57.9,0,6.54.01,8.28,1.76,8.3,8.34.04,18.97.05,37.94,0,56.91-.02,6.08-2.03,7.99-8.12,8-9.65.02-19.3,0-28.95,0ZM2927.95,279.26h-52.73v53.19h52.73v-53.19Z"/><path d="M2159.42,460.97c9.99,0,19.98.12,29.97-.05,4.64-.08,6.66,1.72,6.64,6.45-.1,19.48-.11,38.96,0,58.45.03,4.78-2.1,6.5-6.65,6.48-20.48-.08-40.96-.1-61.44.02-4.49.03-6.38-1.87-6.37-6.24.04-19.65.02-39.3,0-58.95,0-4.3,1.81-6.3,6.37-6.22,10.49.2,20.98.06,31.47.06ZM2132,522.1h53.77v-50.83h-53.77v50.83Z"/><path d="M2751.42,403.1h10.23c0,2.22,0,4.16,0,6.1,0,57.61,0,115.23,0,172.84,0,8.79-.71,9.31-10.23,7.22v-186.17Z"/><path d="M1788.3,102.43c0,9.33-.01,18.66,0,27.99.02,8.46-3.71,10.9-11.28,6.95-14.42-7.52-28.71-15.28-43.05-22.94-4.68-2.5-9.46-4.83-13.97-7.61-3.62-2.23-3.06-7.31.68-9.24,10.74-5.55,21.46-11.13,32.16-16.74,8.66-4.55,17.26-9.23,25.94-13.75,5.39-2.81,9.52-.28,9.57,5.85.07,9.83.02,19.66.02,29.49-.02,0-.04,0-.07,0ZM1777.86,78.53c-15.32,8.15-29.84,15.88-45.32,24.11,15.6,8.28,30.23,16.04,45.32,24.04v-48.15Z"/><path d="M1800.21,209.24c-2.13,3.31-3.4,5.01-4.39,6.86-9.77,18.34-19.43,36.73-29.32,55.01-1.07,1.99-3.5,4.75-5.04,4.6-2.03-.21-4.45-2.59-5.57-4.66-10.15-18.71-20.07-37.53-30.01-56.35-3.32-6.29-1.47-9.38,5.8-9.42,19.63-.08,39.26-.2,58.88.15,3.16.06,6.27,2.41,9.65,3.81ZM1784.95,215.61h-47.54c7.97,15.02,15.6,29.4,23.8,44.85,8.3-15.68,15.88-30,23.74-44.85Z"/><path d="M900.52,473.11c-9.98,0-19.96.02-29.94,0-7.08-.02-8.86-3.05-5.48-9.41,10.06-18.93,20.08-37.88,30.32-56.72.94-1.73,3.23-3.55,5.04-3.72,1.49-.14,3.86,1.76,4.73,3.36,10.74,19.69,21.29,39.48,31.85,59.27,1.99,3.74-.59,7.16-5.59,7.2-10.31.1-20.62.03-30.94.03ZM924.24,462.96c-7.97-14.93-15.65-29.34-23.83-44.68-8.17,15.34-15.85,29.75-23.8,44.68h47.64Z"/><path d="M2506.28,207.52c9.82,0,19.64-.07,29.46.02,7.7.07,9.42,3.11,5.83,9.85-9.85,18.5-19.67,37.02-29.51,55.53-.62,1.17-1.22,2.38-2.02,3.43-2.38,3.14-4.92,3.06-7.28,0-1.01-1.3-1.75-2.83-2.52-4.29-9.68-18.22-19.35-36.44-28.99-54.68-3.65-6.91-1.89-9.78,6.07-9.84,9.65-.07,19.31-.02,28.96-.02ZM2482.57,217.89c8.05,15.15,15.73,29.59,23.86,44.89,8.16-15.41,15.82-29.87,23.77-44.89h-47.63Z"/><path d="M1879.28,6.31h9.3v188.6h-9.3V6.31Z"/><path d="M1808,675.09v-9.69c1.61-.1,3.06-.28,4.51-.28,59.48-.01,118.96.02,178.44-.08,4.15,0,6.06.92,5.85,5.55-.16,3.58-1.4,4.6-4.75,4.56-10.49-.12-20.99-.04-31.49-.05-48.98,0-97.97,0-146.95-.01-1.78,0-3.57,0-5.62,0Z"/><path d="M1805.34,527.3c1.91-.09,3.53-.22,5.16-.22,58.44-.01,116.88.06,175.32-.12,5.07-.02,6.31,1.73,5.93,6.33-.22,2.7-1.08,4.04-3.79,4.04-1.33,0-2.66,0-4,0-56.78,0-113.55,0-170.33,0q-8.99,0-8.3-10.04Z"/><path d="M2735.16,798.25v-181.99h10.03v6.25c0,56.16,0,112.31,0,168.47,0,8.86-.49,9.24-10.03,7.26Z"/><path d="M2629.35,405.26v182.03h-9.37v-182.03h9.37Z"/><path d="M2666.88,616.12h9.91v4.95c0,57.43,0,114.86,0,172.3,0,5.15-3.62,7.51-8.33,5.34-.71-.33-1.23-1.37-1.51-2.2-.26-.75-.07-1.65-.07-2.48,0-57.93,0-115.86,0-173.79v-4.11Z"/><path d="M1601.19,498.94c0-10.82-.03-21.64.01-32.46.02-4.61,1.68-5.68,5.83-3.49,19.7,10.42,39.38,20.88,59.01,31.44,5.29,2.85,5.22,6.59-.19,9.5-19.33,10.41-38.71,20.72-58.12,30.99-4.93,2.61-6.53,1.55-6.54-4.02-.02-10.65,0-21.31,0-31.96ZM1609.16,523.01c15.21-8.1,29.59-15.76,44.82-23.88-15.45-8.19-29.87-15.84-44.82-23.77v47.64Z"/><path d="M441.86,721.9c-3.03-1.83-5.58-3.36-8.06-4.86,8.81-23.11,31.28-37.4,55.53-35.11,3.64.34,7.36,2.14,10.59,4.04,7.59,4.47,15.02,9.25,22.32,14.18,18.83,12.72,43.59,9.64,57.85-10.32,1.44-2.01,3.12-3.86,5.05-6.22,2.5,2,4.88,3.9,7.24,5.79-12.32,19.79-29.28,30.75-52.6,27.76-8.08-1.04-15.92-5.46-23.41-9.24-6.35-3.2-12.05-7.69-18.02-11.64-12.18-8.05-24.22-5.21-35.78,1.09-7.93,4.32-12.98,11.79-17.63,19.38-.95,1.54-1.85,3.11-3.08,5.17Z"/><path d="M776.98,613.42c-3.91,4.54-7.39,9.03-11.33,13.07-15.42,15.82-38.2,19.6-57.75,9.25-7.62-4.03-14.72-9.05-21.98-13.74-16.63-10.72-35.67-7.95-48.4,7.4-4.01,4.84-7.37,10.22-11.42,15.92-2.45-1.47-5.08-3.05-7.66-4.6,8.69-22.76,30.68-37.1,54.42-35.37,3.18.23,6.53,1.54,9.32,3.18,7.73,4.55,15.33,9.35,22.75,14.4,12.38,8.42,25.56,10.73,39.85,6.02,7.77-2.56,13.15-8.24,18.28-14.2,1.94-2.25,3.73-4.64,5.96-7.44,2.65,2.03,5.1,3.91,7.96,6.11Z"/><path d="M582.55,145.46c2.5,1.94,4.82,3.75,7.12,5.54-16.2,27.93-45.99,35.59-70.53,21.77-7.53-4.24-14.65-9.22-21.93-13.89-11.91-7.65-28.2-7.7-39.02,1.52-7.46,6.36-13.33,14.6-20.29,22.42-1.46-.9-4.09-2.53-6.69-4.13,8.94-22.92,31.2-37.25,55.05-35.1,3.8.34,7.7,2.2,11.08,4.18,8.75,5.13,17.02,11.11,25.87,16.06,18.53,10.37,37.77,6.77,51.76-9.23,2.51-2.87,4.87-5.87,7.58-9.15Z"/><path d="M1131.81,614.21h10.63c.09,1.88.23,3.49.23,5.11.01,38.95.01,77.91,0,116.86,0,6.32-2.38,8.75-8.52,8.75-9.49,0-18.98-.02-28.46-.05-.32,0-.63-.16-1.36-.35v-9.89h27.48v-120.44Z"/><path d="M795.12,6.22c0,1.96-.12,3.6.03,5.21.27,3.04-.99,4.07-4.03,4.07-60.98-.07-121.97-.06-182.95-.07-.63,0-1.26-.17-2.1-.3V6.22h189.05Z"/><path d="M106.54,408.17v9.84h-27.57c-.1,2.36-.26,4.28-.26,6.2-.01,36.46,0,72.91-.01,109.37,0,5.32-3.34,7.61-8.21,5.52-.73-.31-1.39-1.35-1.6-2.18-.28-1.1-.1-2.31-.1-3.48,0-39.12,0-78.24,0-117.36,0-6.84.95-7.85,7.71-7.89,9.8-.06,19.61-.01,30.04-.01Z"/><path d="M2950.78,65.43c1.41,3.34,2.56,6.05,3.85,9.1-45.05,20.33-89.76,40.52-135.01,60.94-1.36-3.1-2.6-5.9-3.98-9.04,45.07-20.34,89.79-40.53,135.14-61Z"/><path d="M2203.42,599.87c-4.02-6.52-3.28-9.59,2.71-12.6,38.83-19.49,77.66-38.99,116.49-58.47,1.61-.81,3.25-1.55,5.25-2.49,1.55,2.96,2.99,5.7,4.58,8.73-42.95,21.58-85.88,43.15-129.03,64.84Z"/><path d="M396.73,740.99c-43.21-21.59-86.19-43.06-129.64-64.76,1.42-2.92,2.77-5.68,4.31-8.85,2.26,1.05,4.21,1.89,6.1,2.83,38.71,19.33,77.41,38.67,116.12,58.01,7.98,3.99,8.05,4.23,3.11,12.76Z"/><path d="M1421.77,481.03c9.41.02,17.14,7.86,17,17.26-.14,9.41-8.02,17.4-17.13,17.35-8.67-.05-18.78-9.73-18.53-17.74.26-8.2,9.87-16.89,18.66-16.87Z"/><path d="M2340.6,216.4c9.93-.01,17.63,7.53,17.5,17.15-.12,8.88-8.49,17.32-17.25,17.39-9.08.06-17.46-8.42-17.39-17.62.07-9.72,7.35-16.91,17.13-16.92Z"/><path d="M2274.4,250.94c-9.09.03-17.44-8.45-17.42-17.69.02-9.44,7.59-16.81,17.31-16.85,9.46-.04,17.28,7.68,17.2,16.99-.07,9.04-8.33,17.52-17.1,17.55Z"/><path d="M1561.7,514.95c-9.46.09-17.55-7.95-17.52-17.39.04-9.51,7.46-16.64,17.39-16.72,8.62-.07,18.36,8.86,18.35,16.81,0,7.9-9.82,17.21-18.22,17.29Z"/><path d="M1500.76,795.15c-9.54-.02-16.86-7.54-16.8-17.24.06-9.45,7.33-16.72,16.75-16.76,9.26-.04,18.21,8.29,18.21,16.96,0,8.51-9.11,17.07-18.16,17.04Z"/><path d="M107.07,290.99c9.86,0,17.06,7.13,17.04,16.9-.02,9.19-7.95,17.49-16.85,17.62-8.67.13-16.99-8.36-17.08-17.43-.09-9.69,7.22-17.08,16.89-17.09Z"/><path d="M1498.02,17.55c9.84,0,17.14,7.19,17.15,16.88,0,9.18-8.01,17.46-16.94,17.51-8.89.06-17.05-8.16-17.18-17.3-.13-9.5,7.41-17.09,16.97-17.09Z"/><path d="M2078.41,18.64c2.88-1.81,5.36-3.37,7.81-4.91,11.2,12.39,12.72,30.12,3.92,44.01-9.45,14.93-26.39,23.03-40.37,18.89.21-2.94.43-6,.67-9.46,13.55,1.12,24.39-2.79,31.21-14.74,6.72-11.77,5.11-22.94-3.24-33.79Z"/><path d="M701.23,225.63c2.64,1.83,5.06,3.51,7.99,5.53-5.12,6.26-7.65,13.22-7.14,21.22.94,14.9,13.04,27.12,27.36,27.38q8.64.16,9.11,9.19c-12.26,4.28-29.28-2.09-38-14.23-11.43-15.92-11.36-33.71.67-49.1Z"/><path d="M2957.43,525.57c-2.58-1.91-5.08-3.77-7.96-5.91,8.41-10.78,9.51-22.19,3.12-34.1-6.62-12.35-17.7-15.72-30.61-14.33-1.88-8.97-.82-10.28,7.12-10.1,14.45.33,25.17,6.87,31.97,19.51,7.24,13.46,7.73,27-.57,40.32-.96,1.54-2.01,3.02-3.08,4.6Z"/><path d="M2524.6,97.42c.56,9.93.56,9.9-8.8,9.89-21.63-.02-43.26,0-64.89,0q-9.07,0-8.53-9.88h82.22Z"/><path d="M220.04,32.71c-2.82-1.55-5.26-2.9-7.67-4.22,5.18-15.57,17.86-24.7,35.14-25.03,15.73-.3,30.85,7.23,37.01,25.09-1.59.87-3.32,1.69-4.92,2.72-2.43,1.57-4,.9-5.11-1.6-5.2-11.76-14.74-16.48-27.05-16.38-12.61.11-21.16,6.46-26.29,17.77-.2.43-.53.8-1.11,1.65Z"/><path d="M392.23,32.83c-4.95-12.89-14.24-19.42-27.85-19.55-13.75-.14-22.58,7.05-28.07,19.54-2.82-1.55-5.39-2.96-7.93-4.36,6.04-17.04,22.22-26.8,39.78-24.8,13.7,1.56,23.96,7.6,30.59,19.93,2.03,3.77,1.58,5.72-2.25,7.21-1.35.53-2.63,1.25-4.27,2.04Z"/></svg>