<?xml version="1.0" encoding="UTF-8"?><svg id="a" xmlns="http://www.w3.org/2000/svg" viewBox="0 0 2989.71 795.27"><path d="M1380.45,375.06c5.35-.07,10.48,4.22,10.63,8.89.15,4.81-5.1,9.64-10.57,9.65-13.99.02-27.98.14-41.97-.02-34.86-.41-69.72-.94-104.59-1.45-5.54-.08-8.6-2.82-8.63-8.09-.08-17.63-.08-35.26.02-52.89.03-4.21,2.44-6.8,6.67-7.37,1.97-.27,3.98-.28,5.98-.28,32.98-.02,65.95.16,98.93-.1,11.34-.09,22.68-1.25,34.29-1.94,3.02-17.41.97-35.15,1.55-52.8.07-1.99-.19-4.02.07-5.98.54-4.12,1.05-7.3,8.71-6.74,4.74.35,6.75,2.04,6.78,7.15.11,17.3.02,34.61.17,51.91.05,5.27.51,10.56,1.01,15.81.54,5.6-2.6,9.88-8.43,10-11.65.26-23.43,1.13-34.95-.12-34.42-3.75-68.87-.52-103.29-1.63-.47-.02-.95.2-1.77.38v36.95c1.55.11,2.99.31,4.44.31,29.31.02,58.62.05,87.94-.06,1.98,0,3.97-1.04,5.95-1.59l-.06-.13c1.06.29,2.11.81,3.17.82,11.61.06,23.22.06,34.83,0,1.06,0,2.11-.54,3.17-.82l-.06.14Z"/><path d="M1215.11,663.99c2.87,0,4.86,0,6.85,0,43.81,0,87.62,0,131.44-.01,4.61,0,9.14.04,11.6,4.94.56,1.11,1.27,2.33,1.28,3.5.09,18.63.08,37.26.06,55.88,0,5.66-3.86,9.58-9.61,9.58-48.81.04-97.62.03-146.43,0-5.57,0-8.96-3.08-8.92-7.82.04-4.75,3.26-7.67,9.1-7.68,30.32-.07,60.64-.04,90.96-.04,15.8,0,31.6,0,47.85,0v-42.6h-5.8c-44.48,0-88.96,0-133.44,0-8.22,0-10.72-2.48-10.72-10.66-.01-19.31-.03-38.61.01-57.92.01-6.02,3.46-9.62,8.6-9.21,4.47.35,7.14,3.62,7.16,9.12.06,15.64.02,31.29.02,46.93,0,1.79,0,3.58,0,5.99Z"/><path d="M856.06,86.52c0-27.57-.04-51.02.03-74.47.02-5.27,3.14-8.45,7.77-8.49,4.85-.05,7.87,3.21,7.9,8.82.11,25.28-.02,50.56.28,75.84.25,21.11.59,42.24,1.68,63.32.5,9.66,5.88,17.5,14.9,21.4,3.54,1.53,9,1.62,12.37-.06,9.88-4.94,16.37-13.13,16.52-24.71.61-45.07,1-90.13,1.49-135.2.07-6.02,2.96-9.41,7.9-9.41,4.95,0,8.48,3.89,8.4,9.68-.61,46.55-.41,93.14-2.4,139.64-.68,16.03-11.58,28.25-26.57,35.51-10.82,5.25-21.02,2.59-29.92-3.98-11.29-8.34-18.26-19.67-18.67-34.2-.65-22.6-1.21-45.2-1.7-63.69Z"/><path d="M799.84,675.03c0-15.91-.03-39.2.02-62.5.01-5.58,3.12-8.87,7.94-8.86,4.89.01,7.82,3.22,7.85,8.89.09,19.63-.11,39.27.18,58.9.4,26.93.86,53.88,1.92,80.79.36,9.16,5.42,16.72,12.96,22.08,5.31,3.78,11.32,2.46,15.39-2.75,6.48-8.28,9.43-17.53,9.48-28.18.19-43.08.83-86.16,1.24-129.24.04-3.85.41-7.39,4.05-9.55,5.44-3.23,12.51,1.18,12.44,8.03-.14,13.95-.61,27.9-.91,41.86-.29,13.63-.59,27.26-.78,40.89-.27,18.96-.35,37.92-.7,56.88-.22,11.76-11.96,35.75-26.76,39.08-9.83,2.22-18.74.6-25.9-6.48-9.72-9.61-16.26-20.9-16.54-35.16-.43-22.44-1.12-44.88-1.88-74.71Z"/><path d="M919.21,484.09c0-23.79-.04-47.57.03-71.36.01-5.28,3.15-8.53,7.74-8.49,4.55.04,7.6,3.35,7.62,8.63.09,25.79-.02,51.57.2,77.36.17,20.28.61,40.57,1.17,60.85.22,8.21,4.03,15.06,9.98,20.53,5.14,4.72,11.48,4.99,16.76.4,7.07-6.14,12.02-13.55,12.11-23.54.39-45.07.91-90.14,1.4-135.21.06-5.69,3-9.05,7.73-9.02,4.71.03,8.24,3.9,8.16,9.41-.36,27.1-.88,54.19-1.23,81.28-.24,18.8.55,37.65-.69,56.38-1.1,16.56-10.04,29.28-24.73,37.41-11.16,6.18-21.18,2.07-29.58-5.41-9.89-8.82-15.51-20.18-15.48-33.87.05-21.78.01-43.57.01-65.35-.4,0-.81,0-1.21,0Z"/><path d="M175.02,377.32v-6.55c0-51.91,0-103.81,0-155.72,0-1.5-.14-3.02.06-4.49.58-4.32,2.95-7.01,7.46-7.25,4.56-.24,7.09,2.39,8.2,6.49.38,1.4.19,2.98.19,4.47,0,55.9,0,111.8,0,167.69,0,8.58-2.83,11.48-11.2,11.48-55.78,0-111.57.03-167.35-.08-2.5,0-5.73-.47-7.31-2.04-1.83-1.82-3.5-5.46-2.87-7.65.69-2.42,3.79-4.53,6.32-5.91,1.71-.93,4.23-.44,6.39-.44,51.12-.02,102.24-.01,153.36-.01,1.98,0,3.97,0,6.73,0Z"/><path d="M174.76,417.98c-2.56,0-4.52,0-6.48,0-51.97,0-103.94.03-155.91-.08-2.49,0-5.7-.51-7.26-2.08-1.66-1.67-2.83-5.18-2.25-7.36.59-2.19,3.36-4.16,5.63-5.41,1.57-.87,3.91-.43,5.9-.43,54.47-.02,108.93-.01,163.4-.01,10.65,0,12.62,1.95,12.62,12.4,0,54.25.03,108.5-.08,162.75,0,2.69-.38,6-1.95,7.88-1.63,1.96-5.68,4.15-7.31,3.37-2.68-1.28-4.48-4.73-6.2-7.54-.67-1.09-.12-2.93-.12-4.43,0-50.92,0-101.85,0-152.77,0-1.82,0-3.64,0-6.3Z"/><path d="M17.3,18.59c0,2.44,0,4.39,0,6.33,0,51.91,0,103.82,0,155.73,0,1.33.05,2.66-.02,3.99-.25,4.96-3.68,8.6-7.95,8.48-3.97-.11-7.42-3.8-7.54-8.43-.14-5.82-.04-11.65-.04-17.47,0-51.08,0-102.16,0-153.23,0-8.51,2.19-10.88,10.45-10.89,56.45-.03,112.91-.02,169.36,0,1.33,0,2.68-.02,3.99.21,4.15.74,6.46,3.23,6.54,7.49.09,4.37-2.54,6.68-6.44,7.67-1.41.36-2.98.11-4.48.11-52.46,0-104.91,0-157.37,0h-6.5Z"/><path d="M1051.51,709.49c6.58,1.92,14.77,2.95,21.63,6.54,28.31,14.77,56.26,30.24,84.25,45.62,9.62,5.29,19.04,10.96,28.41,16.68,6.61,4.04,6.69,10.39.59,14.33-3.32,2.15-5.98.65-8.77-.98-18.98-11.06-37.78-22.45-57.02-33.04-19.08-10.5-38.27-20.91-58.05-29.97-12.93-5.92-25.9-2.87-36.72,6.58-10.06,8.79-11.15,24.47-2.84,34.76,6.4,7.94,18.35,10.21,27.1,4.98,5.11-3.05,7.85-7.6,7.39-13.71-.47-6.11-4.47-10.08-10.52-10.58-1.16-.1-2.35-.03-3.49-.24-4.11-.78-6.95-4.19-6.77-8.04.2-4.33,3.17-7.07,7.88-7.29,13.69-.64,23.76,6.61,27.56,19.82,3.6,12.53-2.31,26.92-13.38,33.18-23.73,13.42-49.86.63-56.08-24.96-5.68-23.39,11.31-44.53,30.27-49.87,5.56-1.57,11.33-2.35,18.57-3.81Z"/><path d="M2079.73,8.33c24.32.14,40.93,14.48,46.06,36.06,2.98,12.56,1.47,24.61-4.51,35.82-14.15,26.55-28.61,52.93-43.12,79.29-6.09,11.07-12.67,21.87-18.93,32.85-2.06,3.62-5.14,5.65-8.96,4.26-2.27-.83-4.74-3.3-5.44-5.55-.66-2.12.34-5.24,1.56-7.38,13.24-23.27,26.87-46.32,39.96-69.67,7.56-13.47,14.73-27.2,21.37-41.15,6.42-13.48,5.56-26.89-3.74-39-8.83-11.5-25.86-13.16-36.93-3.97-8.54,7.09-9.63,21.42-2.25,29.64,3.7,4.13,9.58,5.7,14.56,3.87,5.27-1.93,7.91-5.47,7.93-11.31.02-6.07,3.25-9,8.48-8.62,4.7.34,7.28,3.94,6.91,9.64-.86,13.37-7.35,21.63-20.01,25.48-10.91,3.32-23.66-.82-30.77-10.28-9.18-12.22-10.24-25.57-3.57-39.01,7.12-14.33,19.78-20.38,31.39-20.97Z"/><path d="M2893.02,396.65c-15.31,0-30.63.02-45.94,0-6.02,0-9.9-3.77-9.92-9.87-.06-19.46-.06-38.92,0-58.37.02-6.06,2.75-9.12,8.76-9.14,31.63-.11,63.25-.11,94.88.02,5.89.02,8.78,3.3,8.8,9.19.05,19.29.05,38.58,0,57.88-.02,6.48-4.04,10.29-10.63,10.3-15.31.01-30.63,0-45.94,0ZM2853.1,379.77h80.32v-44.65h-80.32v44.65Z"/><path d="M2893.32,674.47c-15.15,0-30.29,0-45.44,0-7.95,0-10.6-2.56-10.61-10.32-.02-18.62-.02-37.25,0-55.87,0-7.93,2.49-10.52,10.46-10.53,30.46-.05,60.92-.05,91.38,0,8.17.01,10.61,2.6,10.62,10.88,0,18.46.01,36.92,0,55.37,0,7.81-2.66,10.46-10.47,10.47-15.31,0-30.63,0-45.94,0ZM2853.32,658.33h80.23v-44.53h-80.23v44.53Z"/><path d="M695.06,535.05c-15.49,0-30.97,0-46.46,0-8,0-10.59-2.49-10.59-10.29-.02-19.13-.03-38.26,0-57.4.01-7.03,2.54-9.82,9.56-9.84,31.64-.09,63.28-.09,94.92-.01,7.37.02,9.81,2.68,9.82,10.09.03,19.13.03,38.26,0,57.4-.01,7.58-2.57,10.05-10.29,10.05-15.65.01-31.31,0-46.96,0ZM736.45,473.72h-82.33v45.2h82.33v-45.2Z"/><path d="M1088.01,395.92c-21.26-2.06-37.99-9.15-48.91-26.62-3.2-5.13-2.67-9.58,1.37-12.28,3.88-2.59,8.48-1.07,11.68,3.86,12.04,18.58,36.73,24.09,55.33,12.35,15.17-9.58,19.18-29.45,8.88-44.08-6.95-9.88-22.5-12.3-32.11-5.01-7.14,5.42-8.8,15.4-3.78,22.75,3.4,4.97,9.35,6.81,14.42,4.45,5.03-2.34,6.58-6.29,4.52-11.45-2.11-5.27-.83-9.71,3.33-11.5,4.21-1.81,8.53.14,11,5.04,4.25,8.46,3.08,16.77-2.21,24.05-6.03,8.3-14.8,11.57-25.04,10.2-11.38-1.52-20.99-10.27-23.64-22.17-2.98-13.34.7-24.9,11.55-33.4,21.31-16.7,52.26-6.13,61.19,20.64,8.34,25.01-6.87,52.56-33.09,59.77-5.25,1.44-10.61,2.49-14.49,3.39Z"/><path d="M764.36,778.87c-14.81-15.65-28.74-30.18-42.34-45.01-1.85-2.01-3.22-5.77-2.74-8.34,1.15-6.13,8.83-7.54,13.35-2.78,18.19,19.2,36.32,38.45,54.49,57.67,2.38,2.51,4.64,5.2,2.85,8.81-1.87,3.77-4.9,5.9-9.51,5.9-57.1-.08-114.21-.05-171.31-.06-5.41,0-9.83-3.89-9.79-8.46.03-4.44,3.55-7.42,9.23-7.69,2.66-.12,5.33-.04,7.99-.04,47.12,0,94.23,0,141.35,0,1.76,0,3.53,0,6.44,0Z"/><path d="M765.89,61.47c-10.01-10.88-19.08-20.76-28.18-30.62-4.85-5.26-9.78-10.44-14.59-15.75-4.02-4.44-4.07-8.95-.33-12.29,3.25-2.9,8.13-2.12,11.82,1.89,18.04,19.58,36.12,39.12,54.1,58.75,4.59,5.01,3.94,10-1.49,12.69-1.41.7-3.2.88-4.82.88-57.45.04-114.91.04-172.36.02-5.52,0-9.22-3.03-9.37-7.5-.16-4.67,3.52-8,9.39-8.02,21.48-.08,42.97-.04,64.45-.04,28.31,0,56.62,0,84.93,0,1.66,0,3.31,0,6.45,0Z"/><path d="M765.62,320.77c-7.37-7.93-13.78-14.84-20.2-21.74-7.49-8.04-15.03-16.03-22.46-24.12-4.12-4.48-4.15-8.89-.31-12.22,3.34-2.89,8.09-2.03,11.81,1.96,17.8,19.13,35.66,38.22,53.46,57.35,5,5.37,4.63,10.28-1.09,13.55-1.34.77-3.13,1.08-4.71,1.08-56.64.05-113.29.05-169.93.04-5.45,0-9.47-3.46-9.52-8.06-.06-4.85,3.6-7.81,10.05-7.82,42.32-.04,84.63-.02,126.95-.02,8.13,0,16.26,0,25.97,0Z"/><path d="M456.81,496.15c0-10.32-.04-20.63.01-30.95.03-6.03,2.67-9.12,8.7-9.16,20.48-.16,40.97-.16,61.45.02,6.02.05,9.27,3.86,9.28,10.02.04,20.13.05,40.27,0,60.4-.02,6.41-3.84,10.29-10.17,10.31-19.99.05-39.97.05-59.96,0-6.24-.02-9.29-3.25-9.31-9.68-.04-10.32,0-20.63,0-30.95ZM473.07,471.98v48.58h46.42v-48.58h-46.42Z"/><path d="M2613.06,166.55c14.74-13.92,28.27-26.7,41.8-39.48,1.21-1.14,2.42-2.28,3.64-3.41,3.48-3.23,8.22-3.57,11.16-.79,4.04,3.81,4.13,7.24-.24,11.56-6.27,6.2-12.8,12.14-19.21,18.21-12.45,11.78-24.89,23.59-37.35,35.36-1.21,1.14-2.48,2.26-3.88,3.12-4.54,2.81-10.17.36-11.19-4.9-.34-1.77-.25-3.64-.25-5.47-.01-55.92-.01-111.85,0-167.77,0-1.66-.16-3.38.2-4.97.86-3.79,3.16-6.17,7.27-6.28,4.34-.12,6.85,2.25,7.86,6.22.4,1.57.18,3.31.18,4.97,0,48.93,0,97.87,0,146.8v6.83Z"/><path d="M2480.02,362.78c11.99-11.39,24.21-22.89,36.3-34.52,5.28-5.08,9.51-4.81,14.08.87,1.95,2.42,2.09,4.23-.03,6.43-6.8,7.06-13.51,14.21-20.34,21.23-10.21,10.49-20.5,20.9-30.76,31.34-2.79,2.84-5.79,5.29-10.09,3.3-4.02-1.86-4.93-5.33-4.92-9.51.08-37.59.06-75.17.07-112.76,0-18.12-.02-36.24-.02-54.36,0-1.5-.16-3.03.13-4.48.8-4.01,3.05-6.59,7.42-6.71,4.6-.13,7.1,2.41,8.02,6.63.35,1.59.14,3.31.14,4.97,0,47.73,0,95.46,0,143.19v4.37Z"/><path d="M15.7,778.61h6.54c52.29,0,104.58,0,156.86,0,1.66,0,3.34-.05,4.99.08,4.61.36,8.43,3.74,8.58,7.51.15,3.64-4.13,8.01-8.41,8.5-1.15.13-2.33.04-3.49.04-56.28,0-112.57,0-168.85,0-9.14,0-11.92-2.76-11.92-11.81,0-16.97-.01-33.94,0-50.91,0-6.26,2.61-9.54,7.55-9.66,5.33-.13,8.12,3.09,8.13,9.59.03,15.29.01,30.58.01,46.66Z"/><path d="M487.97,778.87c0-4.65,0-8.76,0-12.87,0-10.65-.06-21.31.02-31.96.05-5.64,3.09-8.78,8.05-8.65,4.72.12,7.45,3.18,7.48,8.67.06,12.98.02,25.97.02,38.95,0,1.78,0,3.56,0,5.86,2.55,0,4.51,0,6.46,0,22.49,0,44.98,0,67.48,0,1.83,0,3.67.04,5.49.21,4.45.41,6.99,3.01,7.47,7.31.42,3.74-3.57,8.09-7.57,8.63-1.15.16-2.33.04-3.5.04-54.31,0-108.63,0-162.94-.02-1.79,0-3.81.08-5.33-.67-3.62-1.79-6.39-4.56-5.44-9.08,1.04-4.95,4.76-6.42,9.36-6.42,20.16,0,40.32,0,60.48,0,3.95,0,7.91,0,12.46,0Z"/><path d="M2973.77,417.73h-6.56c-50.78,0-101.57,0-152.35,0-1.5,0-3.02.12-4.49-.06-4-.5-7.21-4-6.98-7.82.25-4.12,2.47-6.84,6.65-7.54,1.79-.3,3.65-.23,5.48-.23,53.95-.01,107.89-.01,161.84,0,10.14,0,12.22,2.13,12.22,12.34,0,18.13-.04,36.26.03,54.4.02,4.61-2.04,8.23-6.3,8.91-2.5.4-5.85-1.49-8.05-3.3-1.28-1.05-1.42-3.95-1.43-6.03-.11-14.8-.06-29.61-.06-44.42,0-1.81,0-3.61,0-6.25Z"/><path d="M1055.36,488.22c.04-20.74,18.04-35.74,38.92-33.77,20.01,1.89,32.28,15.76,36.15,33.26,6.43,29.11-16.35,51.88-38.12,56.08-3.73.72-7.58,1.07-11.37,1.11-4.3.04-7.76-3.43-7.98-7.37-.22-3.98,2.95-7.08,7.3-8.04,6.11-1.36,12.52-2.34,18.07-5,16.73-8.01,21.96-28.51,12.14-44.18-5.98-9.55-20.86-12.68-29.64-8.02-8.63,4.59-12.17,15.24-7.56,23.41,3.39,6.01,9.93,8.16,15.76,5.19,4.27-2.17,5.71-5.97,3.97-10.41-2.32-5.93-1.11-10.41,3.31-12.23,4.42-1.83,8.85.53,11.4,6.05,6.93,15.01-4.36,32.83-21.37,33.75-17.26.94-31.01-12.3-30.97-29.84Z"/><path d="M2688.98,680.64c-21.98,0-35.79-9.71-41.77-29.37-1.78-5.83-.2-10.24,4.16-11.66,5.36-1.75,8.83.45,10.95,6.98,4.41,13.53,12.44,18.6,28.87,18.21,14.39-.34,26.46-9.87,29.23-23.38,1.77-8.63-.61-16.35-7.04-22.28-6.08-5.61-13.64-6.74-21.47-4.39-5,1.5-8.46,4.92-10.36,10.02-2.29,6.14,2.3,16.62,10.79,15.98,2-.15,4.99.31,5.94,1.63,1.66,2.31,3.05,5.59,2.81,8.31-.34,3.92-3.85,5.49-7.68,5.71-20.2,1.16-34.18-20.03-25.93-39.29,5.12-11.96,18.56-20.11,31.75-19.26,19.58,1.26,32.96,12.49,36.68,30.79,3.75,18.4-5.44,37.28-22.13,45.48-10.42,5.12-15.73,6.51-24.81,6.51Z"/><path d="M488.88,17.04c-2.33,0-4.28,0-6.23,0-24.82,0-49.64-.03-74.46.03-4.11.01-7.13-1.46-8.78-5.26-1.45-3.36-.44-6.41,2.3-8.45,1.59-1.19,3.92-1.83,5.95-1.9,6.49-.24,12.99-.1,19.49-.1,50.31,0,100.62,0,150.92,0,1.83,0,3.67-.03,5.49.1,4.19.3,7.92,3.8,8.04,7.43.12,3.72-3.85,7.76-8.06,8.12-1.16.1-2.33.01-3.5.01-22.99,0-45.98,0-68.96,0h-6.28v5.04c0,11.48.02,22.97,0,34.45-.01,5.96-2.9,9.63-7.59,9.75-4.78.13-8.01-3.77-8.04-9.95-.06-11.15,0-22.3-.03-33.45,0-1.78-.15-3.56-.25-5.85Z"/><path d="M1018.43,18.84c0,14.79.09,28.91-.09,43.03-.03,2.32-.7,5.2-2.18,6.77-1.7,1.8-5.42,3.97-6.86,3.24-2.73-1.39-6.24-4.68-6.32-7.28-.55-18.11-.45-36.24-.21-54.36.05-4.03,2.88-6.6,7.21-6.87,1.49-.09,2.99-.14,4.49-.14,53.76,0,107.53-.06,161.29.12,3.34.01,6.98,1.39,9.9,3.11,1.49.87,2.93,4.69,2.22,5.83-1.61,2.59-4.38,4.62-7.04,6.32-1.19.76-3.25.22-4.91.22-50.27,0-100.54,0-150.8,0-1.97,0-3.95,0-6.68,0Z"/><path d="M1416.27,290.99c8.21,0,15.68,0,23.14,0,4.16,0,8.33-.11,12.49.11,4.73.25,8.33,3.71,8.35,7.65.02,4.04-3.98,7.73-8.75,7.77-11.47.08-22.95.03-35.22.03v5.55c0,23.29,0,46.59,0,69.88,0,1.5.19,3.05-.15,4.48-.94,3.94-3.45,6.66-7.59,6.72-4.17.06-6.66-2.69-7.73-6.57-.34-1.25-.17-2.64-.17-3.97,0-54.57,0-109.14,0-163.72,0-1-.06-2,.04-2.99.44-4.59,3.46-7.46,7.8-7.45,4.34,0,7.5,2.89,7.74,7.48.22,4.31.07,8.65.07,12.97,0,18.63,0,37.27,0,55.9,0,1.81,0,3.62,0,6.16Z"/><path d="M297.18,285.61c-10.67,8.67-20.74,17.09-31.07,25.18-16.61,13.01-34.69,23.43-54.7,30.39-3.76,1.31-7.4,1.08-9.26-2.32-1.31-2.39-1.23-5.83-.86-8.69.17-1.31,2.33-2.89,3.9-3.41,25.53-8.31,46.59-23.92,66.94-40.7,6.42-5.29,12.73-10.71,19.06-16.1,4.71-4.01,7.84-3.9,12.71.19,14.13,11.87,28.02,24.05,42.59,35.36,11.58,8.99,24.53,15.91,38.48,20.78,4.93,1.72,7.23,6.16,5.6,10.08-1.98,4.73-6.34,6.47-11.48,4.61-23.18-8.42-43.06-22.2-61.68-38-6.71-5.7-13.36-11.46-20.23-17.37Z"/><path d="M2081.16,720.89h5.75c29.81,0,59.63,0,89.44,0,1.66,0,3.34-.02,4.99.14,4.54.45,7.83,3.62,7.89,7.48.06,3.92-3.62,7.76-7.94,8.23-.99.11-2,.04-3,.04-38.14,0-76.28,0-114.42,0-1,0-2.26.36-2.95-.1-2.62-1.77-5.79-3.35-7.38-5.86-1.85-2.93-.03-5.9,2.55-8.3,15.11-14.05,30.15-28.18,45.2-42.29,7.29-6.83,14.57-13.66,21.83-20.51,4.55-4.29,8.98-4.9,12.26-1.65,3.6,3.57,2.96,8.48-1.81,12.96-16.01,15.03-32.06,30.03-48.07,45.07-1.4,1.31-2.59,2.84-4.33,4.77Z"/><path d="M1330.12,518.8v-14.47c0-9.49-.05-18.97.02-28.46.05-5.66,2.58-8.72,7.97-8.8,14.32-.2,28.65-.2,42.97,0,5.42.08,8.1,3.19,8.12,8.69.06,16.48.05,32.95,0,49.43-.01,5.49-3.17,9.16-7.68,9.2-4.54.03-7.85-3.63-7.88-9.04-.07-12.32-.02-24.63-.02-36.95v-5.62h-28.08c0,1.86,0,3.63,0,5.39,0,12.32.04,24.63-.02,36.95-.03,6.34-2.87,9.23-9.1,9.25-20.32.04-40.64.05-60.97.02-5.1,0-8.83-3.18-8.99-7.4-.16-4.44,3.59-8.09,8.83-8.13,16.16-.1,32.32-.05,48.47-.05,1.82,0,3.64,0,6.33,0Z"/><path d="M299.16,545.04c-8.65,6.66-16.75,13.3-25.26,19.35-17.71,12.58-37.02,22.3-57.18,30.26-3.34,1.32-7.56.91-11.3.53-3.02-.31-4.98-6.14-2.84-9.22,1.57-2.26,4.21-4.27,6.8-5.23,31-11.48,58.66-28.27,82.56-51.16,5.05-4.83,8.78-4.73,13.7.15,22.9,22.71,49.53,39.58,79.58,51.22,2.41.94,5.03,2.9,6.23,5.11,2.52,4.67-.75,9.5-6.03,9.24-3.54-.18-7.27-.53-10.51-1.81-28.3-11.25-53.57-27.32-75.76-48.42Z"/><path d="M1576.35,505.16c-8.37,0-16.32,0-24.27,0-3.83,0-7.67.1-11.49-.03-4.7-.16-8.09-3.55-8.01-7.79.07-4.02,3.28-7.36,7.8-7.44,10.83-.18,21.66-.1,32.49-.13.97,0,1.93-.14,3.5-.25v-5.52c0-23.97-.03-47.94.04-71.91,0-2.1.21-4.38,1.04-6.27,1.65-3.77,5.04-4.71,8.79-3.85,3.58.82,4.81,3.26,4.8,7.01-.1,43.94-.07,87.89-.07,131.83,0,13.65,0,27.3,0,40.95,0,4.47-2.85,8.22-6.45,8.54-3.11.27-7.53-3.84-8.06-7.66-.21-1.47-.1-2.99-.1-4.49,0-22.3,0-44.61,0-66.91,0-1.8,0-3.6,0-6.07Z"/><path d="M462.72,337.08c8.47,8.68,15.85,16.28,23.28,23.84,5.59,5.7,11.24,11.35,16.85,17.05,4.15,4.21,4.57,8.41,1.22,11.78-3.54,3.57-7.54,3.56-11.78-.7-15.63-15.68-31.11-31.5-46.64-47.26-2.1-2.13-4.73-3.97-6.17-6.48-1.43-2.5-2.64-5.83-2.21-8.52.56-3.56,3.93-5.09,7.64-5.09.5,0,1-.05,1.5-.05,45.13,0,90.26,0,135.39,0,1.16,0,2.35.01,3.48.24,4.11.84,6.61,3.48,6.58,7.58-.04,4.11-2.71,6.67-6.73,7.52-1.44.3-2.99.1-4.49.1-36.97,0-73.94,0-110.91,0-1.8,0-3.59,0-7.01,0Z"/><path d="M2081.9,457.81c3.2,0,4.94,0,6.69,0,29.64,0,59.28,0,88.92,0,7.66,0,11.68,2.68,11.73,7.75.05,5.07-4.43,8.1-11.96,8.1-37.97,0-75.93-.04-113.9.06-4.41.01-8.02-.98-9.78-5.23-1.84-4.47.66-7.43,3.93-10.26,21.04-18.16,41.97-36.44,62.99-54.62,5.15-4.45,11.23-3.03,13.17,2.91,1.3,3.99-.75,6.64-3.56,9.07-14.58,12.65-29.13,25.34-43.69,38.02-1.18,1.02-2.29,2.11-4.55,4.2Z"/><path d="M932.39,330.02c-1.11,11.9-1.42,23.95-3.53,35.67-2.81,15.61-17.78,27.87-33.5,29-15.62,1.13-29.61-8.26-36.48-22.95-5.64-12.05-4.63-24.66-5.22-37.18-.48-10.3-.39-20.63-.43-30.94-.02-6.09,2.9-9.4,7.89-9.32,4.79.08,7.5,3.33,7.63,9.12.35,16.13.19,32.3,1.32,48.38.43,6.2,2.89,12.69,6,18.15,4.12,7.22,11.48,10.19,19.76,8.73,8.7-1.53,14.85-6.93,17.53-15.29,1.45-4.5,1.63-9.48,1.9-14.27.89-15.61,1.57-31.23,2.31-46.85.2-4.15,2.07-7.02,6.28-7.84,3.91-.76,6.96.84,8.66,4.35.75,1.55.92,3.53.83,5.29-.4,8.64-.98,17.27-1.49,25.9.17.02.34.03.52.05Z"/><path d="M298.52,25.71c-19.16,14.79-41.25,26.9-65.02,35.93-6.37,2.42-12.84,4.6-19.35,6.63-5.45,1.7-9.66-.16-11.1-4.5-1.53-4.59.9-8.59,6.61-10.36,31.02-9.57,59.49-23.92,84.64-44.62,4.02-3.31,7.39-2.92,12.03,1,20.77,17.57,43.83,31.24,69.38,40.65,3.12,1.15,6.29,2.16,9.45,3.19,4.97,1.62,7.3,5.05,6.19,9.21-1.32,4.94-5.12,7.47-10.38,5.59-11.4-4.1-23.1-7.86-33.72-13.55-16.36-8.75-31.92-19-48.74-29.17Z"/><path d="M2896.45,174.13c-37.75-.46-68.38-13.58-95.76-35.25-3.53-2.79-3.97-7.25-1.47-10.69,2.48-3.4,7.18-4.1,11.15-1.42,5.09,3.44,9.91,7.31,15.1,10.59,48.18,30.45,103.2,27.47,147.9-7.91,1.56-1.23,3.11-2.59,4.89-3.39,3.97-1.79,7.41-1.08,9.96,2.78,2.46,3.73,1.79,7.14-1.42,9.77-23.01,18.87-48.8,31.51-78.76,34.61-4.62.48-9.27.73-11.6.91Z"/><path d="M1295.65,51.91c-25.18-.83-48.6-8.34-70.72-20.26-6.87-3.7-13.48-7.92-20.14-12.01-4.39-2.69-5.51-7.03-3.06-11.04,2.27-3.71,7.07-4.52,11.47-2.09,10.47,5.79,20.72,12.08,31.54,17.13,17.06,7.95,35.04,12.43,54.12,12.01,20.91-.46,39.79-7.4,57.7-17.43,6.81-3.81,12.99-8.74,19.82-12.51,2.74-1.51,6.79-2.38,9.65-1.53,5.27,1.56,6.1,9.15,1.46,12.63-27.18,20.41-56.92,34.3-91.84,35.09Z"/><path d="M2090.93,280.02c30.71.28,57.09,10.27,82.13,24.58,4.19,2.39,8.32,4.9,12.31,7.61,5.34,3.63,6.37,7.42,3.52,11.67-2.77,4.13-6.94,4.5-12.17,1.11-19.13-12.41-39.36-22.31-61.88-26.95-32.28-6.66-61.73.99-89.31,17.8-4.68,2.86-9.18,6.02-13.69,9.16-4.58,3.19-9.01,3-11.91-.7-2.91-3.7-2.22-8.21,2.44-11.63,26.76-19.65,56-32.6,88.56-32.66Z"/><path d="M2650.11,298.46c.1-21.11,6.28-40.66,16.15-59.03,5.65-10.52,12.32-20.5,18.74-30.59,3.03-4.77,7.51-5.75,11.44-3.07,4.1,2.8,4.24,6.98,1.12,12.06-6.61,10.75-13.48,21.39-19.27,32.58-15.48,29.91-16.48,60.6-2.59,91.33,5.94,13.14,13.19,25.69,19.68,38.59,1.14,2.26,2.72,5.44,1.93,7.25-1.16,2.67-4.11,5.98-6.59,6.25-2.47.27-6.3-2.23-7.85-4.62-11-16.91-20.64-34.64-26.32-54.07-3.47-11.87-5.26-24.23-7.81-36.37.46-.11.92-.21,1.38-.32Z"/><path d="M1586.68,784.95c-2.61,2.83-4.2,5.78-6.58,6.74-2.1.85-5.65.29-7.62-1.04-15.66-10.58-32.07-19.58-50.23-25.12-35.19-10.72-67-2.55-96.67,17.37-3.45,2.31-6.74,4.87-10.11,7.3-4.66,3.37-8.5,3.05-11.84-.96-3.29-3.95-3.13-6.96,1.94-10.9,36.39-28.3,76.23-41.63,122.19-27.35,18.76,5.83,35.86,15.04,51.92,26.18,2.53,1.75,4.25,4.66,7,7.78Z"/><path d="M289.6,700.56c0-27.8,0-55.59,0-83.39,0-1.33-.07-2.67.03-3.99.33-4.39,3.13-7.27,7.2-7.49,4.13-.23,7.78,2.67,8.51,6.87.2,1.13.09,2.32.09,3.49,0,56.26,0,112.51,0,168.77,0,5.5-2.43,9.62-5.97,10.27-5.71,1.04-9.69-2.14-9.83-8.14-.15-6.32-.04-12.65-.04-18.97,0-22.47,0-44.94,0-67.41Z"/><path d="M1790.61,97.12c0,7.49.07,14.98-.02,22.46-.07,6.03-3.29,9.26-9.25,9.28-14.82.05-29.65.05-44.47,0-6-.02-9-2.84-9.04-8.81-.1-15.64-.11-31.28,0-46.93.04-5.87,2.78-8.73,8.57-8.78,15.16-.14,30.31-.14,45.47.01,5.75.06,8.64,3.32,8.71,9.29.09,7.82.02,15.64.02,23.46ZM1743.67,79.98v32.99h30.83v-32.99h-30.83Z"/><path d="M1632.19,527.54c-6.99,0-13.98.01-20.97,0-6.6-.02-10.14-3.43-10.16-10.01-.06-14.13-.06-28.27,0-42.4.03-6.19,2.53-9.02,8.72-9.09,15.14-.17,30.29-.16,45.43.04,5.73.08,8.54,3.16,8.57,8.85.09,14.3.09,28.6,0,42.9-.04,6.04-3.97,9.69-10.12,9.71-7.16.03-14.31,0-21.47,0ZM1616.8,510.69h30.95v-28.55h-30.95v28.55Z"/><path d="M1665.96,761.99c0-7.64-.04-15.29.01-22.93.04-6.21,2.53-9.14,8.58-9.22,14.47-.18,28.94-.19,43.41.02,6,.08,8.68,3.14,8.7,9.2.07,15.29.07,30.58,0,45.86-.03,6.36-3.5,9.75-9.95,9.77-13.64.06-27.28.05-40.92,0-6.55-.02-9.78-3.26-9.82-9.77-.05-7.64-.01-15.29-.01-22.93ZM1681.73,778.31h29.06v-32.64h-29.06v32.64Z"/><path d="M1665.11,232.81c0-7.15-.05-14.3.02-21.45.05-5.68,2.38-8.58,8.02-8.68,14.81-.25,29.63-.24,44.44,0,5.58.09,8.07,3.03,8.11,8.66.09,14.3.08,28.61,0,42.91-.03,6.08-3.58,9.54-9.6,9.55-13.82.04-27.63.03-41.45,0-6.1-.01-9.48-3.38-9.53-9.54-.06-7.15-.01-14.3-.01-21.45ZM1709.79,247.26v-28.83h-28.76v28.83h28.76Z"/><path d="M2277.6,56.01h34.58v-12.48c0-11.48-.03-22.96.01-34.44.02-5.88,2.62-8.93,7.56-9.06,5.17-.13,8.39,3.09,8.42,8.89.08,17.97.08,35.94,0,53.91-.03,6.05-3.33,9.32-9.23,9.34-16.16.05-32.31.05-48.47,0-5.28-.02-8.97-2.99-8.98-7.97-.03-18.62.1-37.25.52-55.87.14-6.04,3.52-8.7,8.85-8.29,4.67.36,6.86,3.92,6.8,9.74-.16,15.27-.06,30.54-.06,46.23Z"/><path d="M2309.27,736.82h-31.08c-.09,1.86-.25,3.61-.25,5.35-.02,12.13-.01,24.27-.01,36.4,0,1,.03,2,0,2.99-.19,4.57-4.27,9.52-7.85,9.52-3.6,0-7.73-4.92-7.76-9.55-.07-11.8-.02-23.6-.02-35.41,0-3.99,0-7.98,0-11.97,0-11.44,1.61-13.08,12.86-13.09,12.98,0,25.96-.05,38.93.01,8.51.04,11.71,3.31,11.71,11.72,0,14.13.12,28.26-.08,42.39-.05,3.41-.31,7.33-2.01,10.06-1.61,2.58-5.04,4.95-8.02,5.5-3.21.6-6.75-5.02-6.71-9.11.1-12.96.21-25.92.31-38.89.01-1.81,0-3.62,0-5.96Z"/><path d="M2446.99,49.13v-31.36c-1.91,0-3.67,0-5.44,0-11.66,0-23.31.03-34.97-.01-5.57-.02-9.08-2.99-9.17-7.62-.09-4.53,3.37-7.9,8.91-7.95,15.98-.15,31.97-.17,47.95,0,6.14.07,8.69,2.99,8.71,9.09.04,14.81.04,29.61,0,44.42-.02,6.1-2.76,9.01-8.73,9.01-15.98,0-31.97-.09-47.95-.23-5.34-.05-8.93-3.44-8.88-8.05.05-4.59,3.6-7.65,9.14-7.62,11.65.05,23.3.22,34.95.33,1.63.02,3.27,0,5.47,0Z"/><path d="M2662.06,444.54c0-4.32.37-8.68-.09-12.95-.67-6.23,2.15-10.76,5.84-15.26,9.17-11.18,20.04-17.79,35.18-14.44,11.28,2.49,23.6,16.59,24.18,27.94.5,9.78.78,19.58,1.68,29.33.5,5.42-2.49,8.43-6.16,11.05-2.83,2.02-8.54-1.45-9.82-5.9-.58-2.03-.59-4.26-.67-6.4-.32-8.97-.33-17.95-.92-26.9-.43-6.5-5.38-10.56-10.44-12.96-4.48-2.12-9.94-1.86-14.52,1.94-5.62,4.67-9.38,9.74-8.82,17.7.55,7.76,0,15.61-.25,23.41-.06,1.91-.38,4.14-1.43,5.61-1.81,2.54-4.66,5.59-7.74,3.79-2.77-1.62-5.67-5.04-6.17-8.06-.97-5.82-.28-11.91-.28-17.9h.42Z"/><path d="M1592.03,186.3c-2.38,2.82-3.82,5.83-6.16,6.91-2.03.94-5.66.57-7.56-.72-12.91-8.78-26.44-16.11-41.86-19.29-23.53-4.85-44.48,1.13-63.32,15.52-1.59,1.21-3.09,2.53-4.71,3.7-4.24,3.08-7.28,2.8-10.49-.89-2.95-3.38-2.88-7.73.84-11.08,10.75-9.7,23.01-16.94,36.89-21.26,22.44-6.98,44.16-4.06,65.07,5.63,8.56,3.97,16.63,9.06,24.66,14.06,2.46,1.53,4.05,4.44,6.64,7.43Z"/><path d="M2277.45,332c15.7,0,30.68,0,45.65,0,2.16,0,4.34-.06,6.49.13,4.35.37,7.58,3.83,7.45,7.82-.12,3.84-3.69,7.89-7.61,7.91-19.99.11-39.98.12-59.97,0-4.14-.03-7.48-3.57-7.49-7.88-.1-24.46-.11-48.93,0-73.39.02-4.79,3.47-7.68,8.12-7.5,4.48.18,7.3,3.18,7.32,8.34.08,18.81.03,37.61.03,56.42,0,2.47,0,4.94,0,8.14Z"/><path d="M1922.2,662.68c-20.16,0-40.31.02-60.47-.01-5.48,0-9.09-3.15-9.11-7.74-.02-4.31,3.36-7.38,8.63-7.76,1.49-.11,3-.07,4.5-.07,11.66,0,23.32,0,34.98,0,26.15,0,52.31,0,78.46,0,7.78,0,12.37,2.95,12.33,7.85-.04,4.95-4.48,7.73-12.35,7.73-18.99,0-37.98,0-56.97,0Z"/><path d="M2310.2,529.61v-5.85c0-16.64-.02-33.28,0-49.92.01-6.42,2.84-9.86,7.95-9.86,5.1,0,7.87,3.44,7.88,9.86.01,20.47.01,40.93,0,61.4,0,7.37-2.6,10.06-9.8,10.08-17.32.03-34.64.02-51.96,0-6.12,0-9.9-3.19-9.76-8.14.13-4.72,3.72-7.55,9.76-7.57,13.49-.03,26.98-.01,40.47-.01,1.62,0,3.24,0,5.47,0Z"/><path d="M1849.98,298.05c0-18.3-.01-36.6,0-54.9,0-6.2,2.68-9.64,7.48-9.76,4.89-.12,8.38,3.82,8.38,9.68.02,36.93.02,73.86,0,110.8,0,5.71-3.52,10.09-8.05,10.19-4.63.1-7.8-3.95-7.81-10.1-.02-18.63,0-37.26,0-55.9Z"/><path d="M2459.44,464.83v16c0,14.81,0,29.62,0,44.43,0,1.33.11,2.69-.13,3.98-.79,4.23-3.42,7.07-7.67,7.24-4.11.17-6.66-2.65-7.81-6.47-.42-1.39-.33-2.96-.33-4.45-.02-21.97-.02-43.93,0-65.9,0-7.96,2.56-10.71,10.32-10.76,13.49-.08,26.98-.05,40.48.01,4.46.02,7.85,1.91,8.78,6.54.83,4.16-1.19,7.15-4.98,8.73-1.46.61-3.24.6-4.87.61-10.98.05-21.96.03-33.77.03Z"/><path d="M1920.97,102.75c0-18.45.04-36.9-.03-55.35-.01-3.95.8-7.37,4.79-8.99,5.2-2.11,10.35,1.17,10.64,6.91.27,5.31.07,10.64.07,15.95,0,31.58,0,63.16,0,94.75,0,1.5.06,3-.04,4.49-.32,4.79-3.57,7.99-7.91,7.87-4.14-.11-7.34-3.21-7.45-7.79-.18-7.31-.07-14.63-.08-21.94,0-11.97,0-23.94,0-35.9Z"/><path d="M1887.1,495.27c0-9.48-.03-18.96,0-28.44.02-5.84,2.64-8.86,7.63-8.94,4.99-.08,8.1,3,8.13,8.61.09,19.12-.03,38.25.08,57.37.03,4.7-2.73,7.46-6.23,9.42-3.68,2.06-9.52-3.22-9.58-8.59-.11-9.81-.03-19.62-.03-29.43Z"/><path d="M2494.83,690.39c9.99,0,19.98-.05,29.96.02,5.9.04,9.2,2.78,9.31,7.44.11,4.79-3.51,7.9-9.38,7.9-19.98.02-39.95.02-59.93,0-5.55,0-9.23-3-9.35-7.47-.13-4.73,3.47-7.84,9.42-7.88,9.99-.07,19.98-.02,29.96-.02Z"/><path d="M1339.4,375.05c.72-.29,1.43-.84,2.15-.85,12.25-.05,24.5-.05,36.76,0,.72,0,1.43.55,2.15.85,0,0,.06-.14.06-.14-13.72,0-27.45,0-41.17,0,0,0,.06.13.06.13Z"/></svg>